<?xml version="1.0" encoding="UTF-8" standalone="no"?>
<!-- Created with Inkscape (http://www.inkscape.org/) -->

<svg
   width="80.124245mm"
   height="85.197319mm"
   viewBox="0 0 80.124245 85.197319"
   version="1.1"
   id="svg1"
   xml:space="preserve"
   inkscape:export-filename="SemanticSapience-VSS-DevLogo.svg"
   inkscape:export-xdpi="96"
   inkscape:export-ydpi="96"
   xmlns:inkscape="http://www.inkscape.org/namespaces/inkscape"
   xmlns:sodipodi="http://sodipodi.sourceforge.net/DTD/sodipodi-0.dtd"
   xmlns="http://www.w3.org/2000/svg"
   xmlns:svg="http://www.w3.org/2000/svg"><sodipodi:namedview
     id="namedview1"
     pagecolor="#ffffff"
     bordercolor="#000000"
     borderopacity="0.25"
     inkscape:showpageshadow="2"
     inkscape:pageopacity="0.0"
     inkscape:pagecheckerboard="0"
     inkscape:deskcolor="#d1d1d1"
     inkscape:document-units="mm" /><defs
     id="defs1" /><g
     inkscape:label="Layer 1"
     inkscape:groupmode="layer"
     id="layer1"
     transform="translate(-109.53196,-157.89106)"><path
       style="fill:#074fb6;fill-opacity:1;stroke:none"
       d="m 130.99388,162.79607 h 26.45834 v 19.05 c 0,1.987 -0.71841,5.75128 0.667,7.35121 1.30815,1.51069 4.67637,0.85088 6.47675,0.85088 h 14.2875 c 1.42782,0 4.22577,-0.531 5.44716,0.30418 0.8554,0.58492 0.63786,1.98043 0.63825,2.87082 v 7.93749 26.72292 c 0,2.36152 1.04016,7.97907 -0.30418,9.94508 -0.84808,1.24024 -4.20115,0.63825 -5.51665,0.63825 h -16.13958 -23.8125 c -1.63942,0 -6.88453,0.84372 -7.8979,-0.63825 -0.8966,-1.31122 -0.30419,-4.43696 -0.30419,-5.97633 0,-5.05261 0.42604,-10.31522 -0.0333,-15.3458 -0.20434,-2.23761 -3.1,-4.09066 -4.24109,-1.31278 -0.71882,1.74991 -0.22348,4.47088 -0.22348,6.33983 v 14.55208 c 0,1.72184 -0.68554,5.2857 1.09974,6.3104 2.35951,1.35428 7.84061,0.30419 10.54192,0.30419 h 26.72292 18.25625 c 2.06755,0 5.372,0.70931 6.1088,-1.85321 0.98222,-3.41607 -0.0234,-8.56454 -0.0234,-12.16971 v -27.51667 c 0,-3.26233 -0.0402,-6.52754 0.003,-9.78958 0.019,-1.45232 0.38794,-3.12502 -0.23141,-4.49791 -1.18348,-2.62339 -4.37704,-4.87048 -6.38573,-6.87917 l -14.2875,-14.2875 c -2.18271,-2.18272 -4.77469,-5.93778 -7.67291,-7.12031 -3.36567,-1.37325 -9.07811,-0.28802 -12.7,-0.28802 h -14.81667 c -1.60661,0 -4.36965,-0.52419 -5.71335,0.52385 -1.87445,1.46201 -0.90123,6.84864 -0.90123,9.00115 v 17.99166 c 0,2.2007 -0.64048,5.60759 0.22348,7.65332 0.79847,1.89068 3.43488,1.57402 4.04551,-0.25329 0.89142,-2.66758 0.22892,-6.45592 0.22892,-9.25211 v -8.46667 -12.7 m 31.22084,3.43959 12.7,12.43541 6.35,6.87917 H 161.9506 v -12.96458 l 0.26459,-6.35 m -15.08125,33.60208 c -10.96737,0 -22.41969,-0.95849 -33.3375,0.0333 -4.0043,0.36378 -5.8392,5.65615 -2.61181,8.26898 2.33795,1.89276 7.18157,0.95809 10.02014,0.95809 h 16.93333 c 2.91938,0 6.13851,-0.37993 8.99584,0.26459 -1.8974,1.73164 -3.8728,3.38842 -5.82084,5.06332 -1.30797,1.12458 -2.86197,2.22516 -3.42692,3.93251 -1.05331,3.18324 1.58793,6.67566 5.01442,6.20097 2.41853,-0.33505 4.34616,-2.60203 6.08542,-4.12908 3.85696,-3.38637 7.74356,-6.74414 11.64167,-10.08312 1.83182,-1.56909 4.0199,-3.10159 4.09678,-5.7471 0.0796,-2.7395 -2.22844,-4.33641 -4.09678,-5.93336 -3.90387,-3.3368 -7.75406,-6.73625 -11.64167,-10.09183 -1.66704,-1.43891 -3.54056,-3.65218 -5.82083,-4.01227 -5.48846,-0.86671 -6.83895,5.39789 -3.43659,8.63002 2.38278,2.26357 5.29177,4.12229 7.40534,6.64494 z"
       id="path2"
       inkscape:export-filename="exportLogo.svg"
       inkscape:export-xdpi="96"
       inkscape:export-ydpi="96" /></g></svg>
