<?xml version="1.0" encoding="UTF-8" standalone="no"?>
<!-- Created with Inkscape (http://www.inkscape.org/) -->

<svg
   width="226.54121mm"
   height="191.19116mm"
   viewBox="0 0 226.54121 191.19116"
   version="1.1"
   id="svg1"
   xml:space="preserve"
   inkscape:export-filename="SemanticSapience-VSS-DevLogo.svg"
   inkscape:export-xdpi="96"
   inkscape:export-ydpi="96"
   xmlns:inkscape="http://www.inkscape.org/namespaces/inkscape"
   xmlns:sodipodi="http://sodipodi.sourceforge.net/DTD/sodipodi-0.dtd"
   xmlns="http://www.w3.org/2000/svg"
   xmlns:svg="http://www.w3.org/2000/svg"><sodipodi:namedview
     id="namedview1"
     pagecolor="#ffffff"
     bordercolor="#000000"
     borderopacity="0.25"
     inkscape:showpageshadow="2"
     inkscape:pageopacity="0.0"
     inkscape:pagecheckerboard="0"
     inkscape:deskcolor="#d1d1d1"
     inkscape:document-units="mm" /><defs
     id="defs1" /><g
     inkscape:label="Layer 1"
     inkscape:groupmode="layer"
     id="layer1"
     transform="translate(22.554114,-93.923124)"><path
       style="fill:#074fb6;stroke:none"
       d="m 131.80887,93.924925 c -2.70153,0.09883 -2.64699,4.352436 0.0545,4.30467 2.83051,-0.05004 2.75912,-4.407593 -0.0545,-4.30467 m 7.51453,0.153629 c -2.74173,0.334628 -2.31362,4.458297 0.43563,4.15693 2.68225,-0.294028 2.19777,-4.478332 -0.43563,-4.15693 m -15.08352,0.653052 c -0.89152,0.116298 -1.76923,0.797946 -1.93334,1.718198 -0.22758,1.276246 0.85809,2.835326 2.26006,2.642573 1.12222,-0.154293 2.04782,-1.096694 2.04775,-2.261401 -7e-5,-1.160054 -1.2228,-2.249608 -2.37447,-2.09937 m 22.48915,0.43601 c -0.93388,0.113985 -1.75023,0.81608 -1.88773,1.772267 -0.17425,1.211741 0.86716,2.527817 2.15999,2.371264 1.00426,-0.121616 1.84658,-0.789917 1.98914,-1.826733 0.1697,-1.234222 -1.02404,-2.46782 -2.2614,-2.316798 m -29.62251,1.306862 c -0.87592,0.106141 -1.72926,0.653505 -1.95646,1.554467 -0.33072,1.311489 0.77993,2.983585 2.22873,2.806875 1.02938,-0.12555 1.85842,-0.843198 2.04225,-1.881171 0.23554,-1.329941 -0.9349,-2.647345 -2.31452,-2.480171 m 36.75587,0.655725 c -1.10569,0.08948 -1.95478,0.972299 -1.95383,2.096712 8.8e-4,1.030745 1.04828,2.133085 2.11719,2.048795 2.67401,-0.21086 2.51392,-4.36219 -0.16336,-4.145507 m -43.56251,1.850037 c -1.04729,0.141677 -1.88619,0.91564 -2.00349,1.98917 -0.13749,1.2582 1.0282,2.57682 2.33021,2.43265 1.05067,-0.11635 1.94087,-0.92573 2.05794,-1.99702 0.14107,-1.29094 -1.05181,-2.605096 -2.38466,-2.4248 m 50.09689,0.92698 c -2.73239,0.46212 -1.95657,4.53118 0.70789,4.04796 2.46485,-0.44702 1.75384,-4.464308 -0.70789,-4.04796 m -56.52236,2.39414 c -0.37021,0.0566 -0.73093,0.18696 -1.03461,0.40849 -1.83019,1.3351 -0.71021,4.33711 1.57914,4.01349 0.36551,-0.0517 0.72868,-0.19035 1.03404,-0.39787 1.84373,-1.25307 0.63707,-4.36255 -1.57857,-4.02411 m 62.89337,1.14404 c -1.02125,0.11018 -1.85304,0.94544 -1.89809,1.98917 -0.0466,1.08032 1.02428,2.15837 2.11591,2.05201 0.98317,-0.0958 1.82767,-0.8279 1.93204,-1.8342 0.11995,-1.15643 -0.97602,-2.33362 -2.14986,-2.20698 m -31.20165,0.23275 c -1.66395,0.0173 -1.59972,2.5586 0.0545,2.51706 1.62216,-0.0407 1.54683,-2.53374 -0.0545,-2.51706 m -6.75218,0.31768 c -1.60464,0.37435 -0.99142,2.86185 0.59898,2.49635 1.65887,-0.38124 0.997,-2.86869 -0.59898,-2.49635 m 13.06875,0.22212 c -1.60886,0.0942 -1.43018,2.55079 0.16336,2.46559 1.59931,-0.0855 1.41869,-2.55825 -0.16336,-2.46559 m -19.33087,0.86694 c -1.55893,0.36373 -0.93757,2.89348 0.59899,2.52431 1.73916,-0.41784 1.10863,-2.92272 -0.59899,-2.52431 m 25.21181,0.49007 c -1.49839,0.34776 -0.86915,2.67355 0.59898,2.33298 1.59273,-0.36948 0.98561,-2.70075 -0.59898,-2.33298 m -49.715724,0.75607 c -1.09822,0.15785 -2.03238,1.1232 -2.05969,2.26182 -0.0292,1.21782 1.20764,2.43907 2.44086,2.26183 1.03331,-0.14851 1.898154,-0.86916 2.051094,-1.93511 0.19255,-1.3421 -1.025934,-2.79068 -2.432264,-2.58854 m 18.840794,0.49332 c -1.73805,0.19226 -1.46893,2.84072 0.27226,2.67284 1.70007,-0.16391 1.3629,-2.85372 -0.27226,-2.67284 m 36.97368,0.70778 c -1.56089,0.16063 -1.36822,2.53129 0.16336,2.4093 1.56365,-0.12454 1.40681,-2.57087 -0.16336,-2.4093 m 18.62297,0.16153 c -0.76949,0.0939 -1.5643,0.66931 -1.76693,1.44373 -0.32794,1.25334 0.69092,2.6795 2.0392,2.54193 1.01666,-0.10373 1.82111,-0.84077 1.89938,-1.8885 0.0835,-1.11829 -1.03661,-2.23571 -2.17165,-2.09716 m -61.15087,1.63448 c -1.77115,0.15434 -1.50157,2.84089 0.21781,2.6884 1.70506,-0.15121 1.46458,-2.83499 -0.21781,-2.6884 m 48.02767,0.8755 c -1.52819,0.1248 -1.32192,2.47288 0.16336,2.3951 1.52363,-0.0798 1.34435,-2.51824 -0.16336,-2.3951 m -66.759554,0.86467 c -0.9738,0.14995 -1.82285,0.93418 -1.94811,1.93525 -0.16283,1.30132 1.02751,2.84874 2.43819,2.64296 1.05016,-0.15319 1.96907,-0.97083 2.10649,-2.04398 0.18624,-1.45436 -1.14511,-2.75775 -2.59657,-2.53423 m 42.691264,0.003 c -1.34839,0.2402 -0.97846,2.4079 0.38117,2.12637 1.33836,-0.27713 0.92883,-2.35974 -0.38117,-2.12637 m -5.49977,0.32387 c -1.4345,0.22475 -1.02098,2.31008 0.38117,2.08387 1.34755,-0.21741 0.94431,-2.29154 -0.38117,-2.08387 m 10.72727,0.1841 c -1.26853,0.49478 -0.45397,2.51823 0.8168,1.99417 1.28827,-0.53126 0.407,-2.47151 -0.8168,-1.99417 m -16.22704,0.75462 c -1.36038,0.39478 -0.67719,2.53456 0.65344,2.11399 1.37679,-0.43514 0.71883,-2.51222 -0.65344,-2.11399 m -18.2418,0.15529 c -1.76515,0.22908 -1.40068,2.9494 0.32672,2.72965 1.78643,-0.22727 1.44264,-2.95928 -0.32672,-2.72965 m 71.60588,0.10433 c -2.56523,0.3527 -2.1093,4.30863 0.43563,3.93118 2.45576,-0.36422 1.98359,-4.2638 -0.43563,-3.93118 m -31.63727,0.0577 c -1.33183,0.21216 -0.99464,2.27524 0.32672,2.04861 1.33704,-0.22931 0.95059,-2.25209 -0.32672,-2.04861 m 18.45961,0.87847 c -1.46716,0.0859 -1.38871,2.43643 0.0545,2.33977 1.52569,-0.10218 1.47835,-2.42949 -0.0545,-2.33977 m -45.25056,0.32445 c -1.45486,0.3898 -0.73331,2.61368 0.70789,2.15923 1.38231,-0.43588 0.61745,-2.51432 -0.70789,-2.15923 m 31.85509,0.5392 c -1.29701,0.14064 -1.09011,2.14066 0.16336,2.03238 1.33046,-0.11493 1.17386,-2.1774 -0.16336,-2.03238 m -36.59251,1.58253 c -1.48822,0.35918 -0.81051,2.61412 0.65344,2.22133 1.37758,-0.36962 0.72003,-2.55281 -0.65344,-2.22133 m -13.17766,0.21437 c -1.26326,0.18707 -1.675914,1.86746 -0.59841,2.58963 0.30915,0.20721 0.73311,0.19952 1.08849,0.14716 1.66787,-0.24578 1.13115,-2.97689 -0.49008,-2.73679 m 54.45314,0.49051 c -1.34594,0.21403 -0.97266,2.21949 0.38117,1.96525 1.20894,-0.22703 0.78562,-2.15078 -0.38117,-1.96525 m 13.12321,0.81942 c -1.39154,0.32452 -0.85508,2.51747 0.49007,2.18655 1.50288,-0.36972 1.00046,-2.53417 -0.49007,-2.18655 m -80.917374,0.10591 c -1.37225,0.2886 -0.86653,2.39108 0.49008,2.06329 1.36082,-0.3288 0.80361,-2.33535 -0.49008,-2.06329 m 94.367294,0.49601 c -2.56693,0.0924 -2.32418,4.025 0.21781,3.88278 2.44574,-0.13684 2.19225,-3.96952 -0.21781,-3.88278 m -46.99306,2.2526 v 0.10895 l 0.8168,-0.0545 h 0.27226 l 0.0545,-0.16336 0.16336,-0.16336 0.16336,-0.0545 c 0.0728,-0.28428 0.20247,-0.50507 0.17234,-0.8168 -0.0229,-0.23726 -0.13249,-0.45874 -0.30171,-0.62605 -0.56683,-0.56041 -1.63571,-0.44222 -1.92958,0.35383 -0.18052,0.489 0.0172,1.29867 0.58871,1.41574 m -4.24734,0.27227 h 0.81679 l 0.27227,-0.27227 0.10891,-0.10891 c 0.84107,-0.29094 0.28606,-1.50773 -0.27231,-1.7879 -0.73423,-0.36839 -1.65504,0.20468 -1.6467,1.02556 0.006,0.56587 0.33614,0.80511 0.72104,1.14352 m -20.85556,-1.98628 c -1.53814,0.16626 -1.27979,2.48456 0.21782,2.30046 1.47235,-0.18099 1.23511,-2.4575 -0.21782,-2.30046 m 29.18689,0.35268 c -1.19198,0.32743 0.20931,2.61763 1.03461,1.79696 0.27212,0.0105 0.45397,-0.15914 0.60349,-0.38136 0.3991,-0.59316 0.16217,-1.32096 -0.44017,-1.67166 -0.36403,-0.21195 -1.02834,-0.18427 -1.19793,0.25606 m -4.02954,0.76235 -0.1089,0.0545 c -0.0886,-0.28328 -0.16622,-0.59512 0.0501,-0.84617 0.27507,-0.31919 0.88619,-0.25105 1.04888,0.14959 0.28788,0.70898 -0.55096,1.37989 -0.99011,0.64212 m -3.26718,-0.59898 c -0.0182,0.22361 0.12091,0.48227 0.0344,0.68965 -0.31061,0.7447 -1.04174,0.1872 -1.3413,-0.14512 0.10626,-0.40565 0.32757,-0.94093 0.86052,-0.79421 0.16752,0.0461 0.28285,0.19202 0.44636,0.24968 m -3.86618,1.41578 c 0.30016,-0.23789 0.21117,-0.74979 0.0147,-1.03442 -0.31827,-0.46119 -0.95794,-0.67831 -1.48498,-0.46122 -0.1843,0.0759 -0.34568,0.20243 -0.47445,0.35379 -1.18956,1.39819 1.7129,2.76105 1.94468,1.14185 m 11.43516,-0.16336 c -0.12228,-0.28669 -0.28355,-0.53586 -0.20868,-0.86347 0.0955,-0.41781 0.71473,-0.53347 1.02072,-0.2992 0.43372,0.33206 0.4118,0.97542 -0.12417,1.18793 -0.22851,0.0906 -0.45863,0.0153 -0.68787,-0.0253 m 20.36548,-0.89364 c -1.31217,0.30621 -0.79609,2.27389 0.48989,1.95064 1.16332,-0.29242 0.64978,-2.21659 -0.48989,-1.95064 m -32.99861,0.18575 -0.0545,-0.16336 c 0.3393,0.002 0.62179,0.0726 0.8315,0.36707 0.25013,0.35122 -0.0663,0.81375 -0.4509,0.87301 -0.6752,0.10406 -1.14027,-0.96353 -0.32615,-1.07672 m 16.28149,1.47023 h 0.10891 l -0.0545,0.10891 c 0.33268,0.21574 0.89,0.86637 1.30687,0.38117 l 0.49008,-0.21781 c -0.0409,-0.20463 0.16053,-0.15771 0.27227,-0.38117 0.0898,-0.17961 0.0604,-0.5268 0,-0.70789 -0.32204,-0.96611 -1.60563,-1.1059 -2.12368,-0.21782 -0.21664,0.37139 0.0495,0.83676 0,1.03461 m 1.6336,-0.0545 c -0.1944,0.0585 -0.32337,0.23393 -0.5398,0.24407 -0.11609,0.005 -0.23369,-0.0379 -0.33746,-0.0863 -1.21726,-0.56678 0.69422,-2.02539 0.91681,-0.64771 0.0269,0.16658 -0.003,0.32801 -0.0395,0.48991 m -21.7268,1.41578 c 0.31162,-0.11236 0.67847,-0.2434 0.76234,-0.59898 h 0.10891 l -0.0545,-0.10891 c 0.37567,-0.26668 0.2288,-0.93595 -0.0319,-1.24112 -0.5423,-0.63488 -1.68749,-0.59895 -2.05797,0.20708 -0.0981,0.21351 -0.10654,0.47712 -0.0759,0.70732 0.0357,0.26844 0.17811,0.50694 0.37564,0.68919 0.32109,0.29627 0.66814,0.16051 0.9733,0.34542 m 9.20258,-2.39594 -0.0545,0.0545 0.0545,-0.0545 m 4.19289,0 -0.0545,0.0545 0.0545,-0.0545 m -0.43563,0.16336 -0.0545,0.0545 0.0545,-0.0545 m -0.70789,0.0545 -0.0545,0.0545 0.0545,-0.0545 m 0.27227,0 -0.0545,0.0545 0.0545,-0.0545 m -38.716184,0.081 c -1.88106,0.23379 -1.51915,3.06778 0.32671,2.84208 1.79031,-0.2189 1.44446,-3.06222 -0.32671,-2.84208 m 34.468834,0.0824 -0.0545,0.0545 0.0545,-0.0545 m 0.10891,0 -0.0545,0.0545 0.0545,-0.0545 m -8.00461,1.36133 -0.27227,0.10891 c -0.13803,-0.058 -0.28718,1.3e-4 -0.43562,-0.0408 -0.49481,-0.13639 -0.48987,-0.57639 -0.43563,-0.99383 h 0.16336 v -0.21781 c 0.18479,0 0.60066,-0.0808 0.76234,0 0.19859,0.0993 0.57269,0.62455 0.43563,0.87125 -0.0862,0.15508 -0.25645,0.11771 -0.21781,0.27227 m 16.22703,-1.14352 -0.0545,0.0545 0.0545,-0.0545 m 0.27227,0 -0.0545,0.0545 0.0545,-0.0545 m 7.40562,1.7425 0.21782,0.32672 -0.10891,-0.0545 v 0.0545 l 0.16336,0.16336 0.21781,-0.16336 0.32672,0.21781 -0.21781,0.10891 -0.10891,-0.16336 -0.0545,0.16336 c 0.21987,0.016 0.35227,-10e-4 0.43563,-0.21781 0.19458,0.0259 0.44377,0.21022 0.63043,0.11976 0.9298,-0.45058 0.55609,-1.86797 -0.35817,-2.05639 -0.6854,-0.14125 -1.82956,0.88216 -1.14352,1.501 m -20.47438,-1.25242 -0.0545,0.0544 0.0545,-0.0544 m 17.58837,0.16336 -0.0545,0.0545 0.0545,-0.0545 m 4.4107,0.43562 c 0.0538,0.37436 0.16154,0.67167 -0.27226,0.8168 l 0.0545,0.16336 c -0.28249,0.0353 -0.57244,0.0659 -0.78888,-0.16175 -0.4248,-0.44683 -0.14747,-1.20665 0.51281,-1.1225 0.19434,0.0248 0.32853,0.21323 0.49388,0.30409 m -4.84633,-0.21781 v 0.0545 h -0.21781 l 0.21781,-0.0545 m 0.10891,0 -0.0545,0.0545 0.0545,-0.0545 m -24.93954,2.45039 0.38117,-0.21781 c 0.42305,-0.11961 0.5572,-0.82185 0.44353,-1.19797 -0.22198,-0.73444 -1.14478,-1.11823 -1.80467,-0.70454 -0.66938,0.41963 -0.76071,1.2615 -0.25199,1.8446 0.24783,0.28407 0.90374,0.60081 1.23196,0.27572 m -13.44973,-2.20055 c -1.43002,0.35218 -0.8883,2.59761 0.54453,2.28493 1.55946,-0.3403 0.94842,-2.65261 -0.54453,-2.28493 m 67.08626,0.0543 c -1.38103,0.3337 -0.7738,2.46536 0.54453,2.17609 1.45515,-0.31928 0.91253,-2.52816 -0.54453,-2.17609 m -49.82462,0.13148 -0.0545,0.0545 0.0545,-0.0545 m -0.49008,0.21782 -0.0545,0.1089 h -0.0545 l -0.0545,-0.1089 h 0.16336 m 24.77618,0 -0.0545,0.0545 0.0545,-0.0545 m -27.88001,1.14351 -0.32671,0.21781 c -0.77336,-0.21547 -0.76801,-0.42101 -0.70789,-1.14351 0.82285,-0.1963 1.0346,0.12705 1.0346,0.9257 m 3.70282,-1.03461 -0.0545,0.0545 0.0545,-0.0545 m 25.70188,0.0545 0.0545,0.0544 -0.0545,-0.0544 m 0.27227,0.32672 -0.0545,0.0545 0.0545,-0.0545 m 14.81125,0.0835 c -1.23938,0.20013 -0.94666,2.18199 0.27226,1.96489 1.21772,-0.2169 0.92694,-2.15853 -0.27226,-1.96489 m -45.57728,0.0799 v 0.21781 h 0.0545 l -0.0545,-0.21781 m 30.38485,0 -0.0545,0.0545 0.0545,-0.0545 m 2.50485,1.52469 c 0.26236,0.30046 0.8487,0.98776 1.30687,0.54453 l 0.16336,0.0545 0.10891,-0.0545 0.16336,-0.10891 0.0545,-0.0545 -0.0545,-0.1089 c 0.45506,-0.2492 0.48751,-0.91491 0.19092,-1.30627 -0.39717,-0.52406 -1.1501,-0.65716 -1.65325,-0.19779 -0.13771,0.12574 -0.24421,0.28981 -0.29635,0.46945 -0.074,0.25487 -0.0123,0.50726 0.0162,0.76234 m -2.72266,-1.36133 0.10891,0.10891 -0.10891,-0.10891 m -64.635874,0.41268 c -1.38711,0.12019 -1.18542,2.31668 0.16335,2.18919 1.41149,-0.13342 1.24865,-2.31154 -0.16335,-2.18919 m 68.774314,0.0229 0.21781,0.27227 c -0.0261,0.35107 -0.0822,0.95698 -0.58885,0.90006 -0.18976,-0.0213 -0.36359,-0.15329 -0.55466,-0.19217 v -0.0545 l 0.1089,-0.0545 -0.16336,-0.0545 0.0545,-0.16336 c -0.56105,-0.56717 0.65016,-0.66882 0.9257,-0.65344 m -37.95384,0.46712 c -1.53124,0.35723 -0.91868,2.74784 0.59899,2.37095 1.59334,-0.39568 0.92777,-2.72714 -0.59899,-2.37095 m 71.22471,0.1584 c -2.48499,0.30946 -2.0389,4.13477 0.43562,3.82742 2.42444,-0.30113 1.91458,-4.12009 -0.43562,-3.82742 m -34.46884,0.40909 -0.0545,0.0545 0.0545,-0.0545 m -36.10243,0.10891 c 0.0506,0.20424 0.21417,0.39716 0.23315,0.60374 0.0725,0.78871 -1.68144,0.3661 -0.96911,-0.46011 0.0791,-0.0917 0.18518,-0.14569 0.3037,-0.16637 0.14326,-0.025 0.28993,0.005 0.43226,0.0227 m 36.59251,0.21782 h 0.16336 v 0.0544 h -0.21781 l 0.0545,-0.0544 m 0.27226,0 -0.0545,0.0544 0.0545,-0.0544 m -59.136104,0.29928 c -1.76173,0.30817 -1.45439,3.1658 0.32671,2.87856 1.88638,-0.30423 1.49905,-3.19794 -0.32671,-2.87856 m 62.022124,1.71548 c 0.18512,1.29071 2.53347,0.45306 1.89982,-0.87125 -0.28326,-0.59202 -1.07894,-0.87098 -1.62603,-0.45625 -0.3537,0.26813 -0.65911,0.95953 -0.27379,1.3275 m -53.03736,-1.3775 c -1.51752,0.44045 -0.73466,2.71165 0.76235,2.26512 1.4531,-0.43343 0.66839,-2.68038 -0.76235,-2.26512 m 53.60537,0.48938 c 0.67463,-0.29525 1.22353,0.73172 0.52026,1.00526 -0.6056,0.23555 -1.16164,-0.72455 -0.52026,-1.00526 m 11.79288,0.64663 c -1.24186,0.18087 -0.90529,2.06345 0.32672,1.86039 1.18321,-0.195 0.83714,-2.02989 -0.32672,-1.86039 m -56.359,0.0552 c -1.58687,0.37008 -0.90844,2.70771 0.65344,2.35684 1.57125,-0.35298 0.83665,-2.70435 -0.65344,-2.35684 m 65.28932,0.11659 c -1.29123,0.39233 -0.71665,2.47219 0.59898,2.10086 1.45718,-0.41128 0.79982,-2.52588 -0.59898,-2.10086 m -20.8011,0.50535 -0.0545,0.0545 0.0545,-0.0545 m -43.56251,0.8168 c -0.24549,0.13745 -0.45198,0.35115 -0.76155,0.23302 -0.35854,-0.13682 -0.49481,-0.68199 -0.0553,-0.77755 0.0691,-0.55933 0.78683,0.24815 0.8168,0.54453 m 46.61188,1.7425 c 0.0304,0.31386 0.2928,0.49538 0.59899,0.49008 0.2697,0.26583 0.81402,-0.0443 1.01305,-0.27612 0.38542,-0.44896 0.30835,-1.12497 -0.14526,-1.49588 -0.38877,-0.31789 -1.03025,-0.34329 -1.38175,0.0423 -0.27168,0.29801 -0.48819,0.97014 -0.085,1.23963 m -11.54406,-1.08906 0.0545,0.0545 -0.0545,-0.0545 m 12.52422,1.30687 c -0.18048,-0.0962 -0.42553,-0.10962 -0.57706,-0.25062 -0.67621,-0.62919 0.8705,-1.51695 0.93291,-0.45779 0.006,0.10854 -0.0188,0.20712 -0.0672,0.30364 -0.0745,0.14834 -0.18417,0.27744 -0.28862,0.40477 m -60.497454,-0.62017 c -1.62482,0.17047 -1.31959,2.63534 0.27227,2.46366 1.537064,-0.16577 1.243824,-2.62273 -0.27227,-2.46366 m 60.933074,0.18455 -0.0545,0.0545 0.0545,-0.0545 m -79.556044,0.13915 c -1.41488,0.18589 -1.18918,2.40508 0.21781,2.23024 1.47178,-0.18289 1.21984,-2.41912 -0.21781,-2.23024 m 27.281024,0.11016 c -1.59142,0.37114 -0.91814,2.745 0.65344,2.41491 1.58885,-0.33373 0.90017,-2.77723 -0.65344,-2.41491 m 51.07705,0.18631 -0.0545,0.0545 0.0545,-0.0545 m 1.25242,0.0545 -0.0545,0.0544 0.0545,-0.0544 m -70.135644,0.1899 c -1.80298,0.22417 -1.60605,3.14302 0.21781,2.94276 1.95359,-0.21451 1.67276,-3.17782 -0.21781,-2.94276 m 69.373304,-0.008 c 0.0421,0 0.009,0.0271 -0.0182,0.0182 l 0.0182,-0.0182 m 0.16335,-0.0182 -0.0544,0.0545 0.0544,-0.0545 m 29.56806,0.2979 c -2.44896,0.33735 -2.04981,4.13667 0.38117,3.80757 0.62954,-0.0852 1.22177,-0.4199 1.52222,-1.00164 0.66457,-1.28683 -0.40239,-3.01271 -1.90339,-2.80593 m -18.56852,0.22124 c -1.20867,0.23527 -0.82301,2.09716 0.38117,1.85523 1.16395,-0.23384 0.77049,-2.07941 -0.38117,-1.85523 m -8.82141,2.36688 c 0.0372,0.38441 0.75362,0.88668 1.08906,0.54453 1.14122,0.0764 1.01855,-1.70875 0.0544,-1.95351 -0.66156,-0.16795 -1.83683,0.81341 -1.14348,1.40898 m -25.70188,-1.19797 0.0545,0.0545 -0.0545,-0.0545 m 43.56251,0.0276 c -1.34282,0.24425 -0.99288,2.38151 0.38117,2.12994 1.37839,-0.25236 0.93706,-2.36972 -0.38117,-2.12994 m -40.67649,0.13578 0.0545,0.0545 -0.0545,-0.0545 m 24.23164,0.87125 -0.27226,0.32672 c -0.13765,0.0176 -0.29325,0.0584 -0.42925,0.0136 -1.05069,-0.34595 0.22761,-1.62483 0.60255,-0.7743 0.0588,0.13335 0.0722,0.29176 0.099,0.43396 m -21.40008,0 -0.0545,0.1089 h 0.1089 l -0.0545,-0.1089 m 20.69219,0.27226 v 0.0545 h 0.21781 l -0.21781,-0.0545 m -57.44806,0.0863 c -1.56813,0.3792 -0.99277,2.85398 0.59898,2.48859 1.63924,-0.37629 0.97038,-2.86807 -0.59898,-2.48859 m 57.33915,0.18594 v 0.0545 h -0.21781 l 0.21781,-0.0545 m 0.47194,0.0908 -0.0182,0.0363 0.0182,-0.0363 m -66.578054,0.32248 c -1.49997,0.37453 -0.82893,2.76261 0.65344,2.37731 1.55823,-0.40504 0.89851,-2.76483 -0.65344,-2.37731 m 59.680644,1.27481 0.0545,0.0545 -0.0545,-0.0545 m 17.2072,0.14135 c -1.21103,0.27131 -0.74925,2.09711 0.43562,1.79206 1.09186,-0.28109 0.63887,-2.03278 -0.43562,-1.79206 m -8.87587,1.54669 h 0.10891 l -0.0545,0.10891 c 0.38839,0.25893 0.61492,0.49008 0.9257,0.49008 0.17451,0 0.34679,-0.0798 0.49008,-0.16336 0.16031,-0.0935 0.28023,-0.22977 0.38117,-0.38117 0.82624,-1.23936 -1.45088,-2.29065 -1.90586,-0.92571 -0.10885,0.32656 0.0868,0.74197 0.0545,0.87125 m -76.615484,-1.00457 c -1.87644,0.10506 -1.7991,2.99739 0.0545,2.93699 1.90891,-0.0622 1.85973,-3.04417 -0.0545,-2.93699 m 77.486814,0.0998 c 0.58984,-0.0765 0.71059,0.91569 0.1586,0.99362 -0.65165,0.092 -0.85955,-0.90271 -0.1586,-0.99362 m -87.125024,0.49938 c -0.90785,0.11528 -1.3676,1.24731 -0.69334,1.91534 0.28802,0.28536 0.79879,0.32802 1.18342,0.27848 1.29675,-0.16706 0.81163,-2.3591 -0.49008,-2.19382 m 87.778464,0.0787 -0.0545,0.0545 0.0545,-0.0545 m -16.66266,0.38118 0.0545,0.0545 -0.0545,-0.0545 m -46.23071,0.14037 c -1.66899,0.14822 -1.39151,2.75569 0.27226,2.57097 1.64374,-0.18249 1.35569,-2.71555 -0.27226,-2.57097 m 88.64971,0.37801 c -2.37805,0.25128 -2.08605,4.02682 0.27226,3.76567 2.42133,-0.26814 2.15335,-4.022 -0.27226,-3.76567 m -9.58376,0.21761 c -1.37987,0.24574 -0.98772,2.38742 0.38118,2.12248 1.37195,-0.26553 0.93849,-2.35749 -0.38118,-2.12248 m -87.669554,0.92608 c -1.59269,0.23848 -1.29194,2.75272 0.32672,2.51252 1.6194,-0.2403 1.23518,-2.74641 -0.32672,-2.51252 m 24.013844,0.4616 v 0.16336 h 0.0545 l -0.0545,-0.16336 m 48.95337,0.25281 c -1.32521,0.0498 -1.22848,2.06597 0.0545,2.02394 1.32538,-0.0434 1.293,-2.07452 -0.0545,-2.02394 m -48.93523,0.0558 0.0182,0.0363 -0.0182,-0.0363 m -0.0726,0.12706 0.0545,0.0545 -0.0545,-0.0545 m 49.06228,0.43562 0.32672,0.10891 0.10891,0.49008 c -0.17327,0.0508 -0.34548,0.21317 -0.53486,0.1815 -0.55399,-0.0926 -0.15086,-0.64029 0.0992,-0.78049 m -57.99259,0.21781 0.0545,0.0545 -0.0545,-0.0545 m 65.8883,0.0291 c -1.18681,0.19556 -0.82199,2.01153 0.32667,1.80019 1.08968,-0.20049 0.74725,-1.97714 -0.32667,-1.80019 m -65.07151,0.0254 0.10891,0.10891 -0.10891,-0.10891 m 0.27227,0.27227 0.0545,0.0545 -0.0545,-0.0545 m 49.82462,0.21781 v 0.21781 h 0.0545 l -0.0545,-0.21781 m 0,0.32672 0.0545,0.0545 -0.0545,-0.0545 m -59.35392,0.0859 c -1.641204,0.38088 -0.94297,2.91566 0.65344,2.55074 1.64399,-0.3758 0.98276,-2.93045 -0.65344,-2.55074 m 15.62805,0.24079 v 0.16336 h 0.0545 l -0.0545,-0.16336 m 52.22056,2.04325 c -1.31706,0.14282 -1.03091,2.16475 0.21781,2.01184 1.29309,-0.15834 1.08658,-2.15329 -0.21781,-2.01184 m -53.69079,0.29823 -0.0545,0.27227 h 0.0545 v -0.27227 m -0.87125,0.27227 0.0545,0.0544 -0.0545,-0.0544 m 54.39868,0.76234 c -0.12216,-0.29311 -0.12216,-0.41478 0,-0.70789 0.80648,-0.0904 0.85752,0.91189 0,0.70789 m -6.75219,-0.54453 0.0545,0.0545 -0.0545,-0.0545 m -182.363531,14.15781 c -0.53715,0.10166 -1.074267,0.39099 -1.579141,0.59989 -0.152459,0.0631 -0.430348,0.13109 -0.502053,0.29805 -0.170844,0.39779 0.415633,1.37626 0.612052,1.71581 0.937532,1.62071 2.349615,2.82476 4.028439,3.63374 3.253713,1.56788 7.709011,1.68027 10.890628,-0.11192 2.455941,-1.38341 3.992435,-4.79565 2.229302,-7.33354 -0.82047,-1.18101 -2.156915,-1.81025 -3.481724,-2.25073 -2.522599,-0.8387 -5.218791,-0.98116 -7.786799,-1.63597 -1.75979,-0.44872 -3.47805,-1.72249 -2.738476,-3.73674 0.434005,-1.18202 1.529248,-1.90088 2.684023,-2.26794 2.161725,-0.68715 4.783167,-0.40808 6.643283,0.93077 0.568879,0.40946 1.107083,0.96466 1.485669,1.55498 0.151966,0.23696 0.303613,0.83536 0.555798,0.96371 0.163576,0.0832 0.377898,-0.0781 0.51783,-0.14925 0.312321,-0.15881 1.45162,-0.48598 1.37219,-0.92503 -0.07209,-0.39849 -0.390498,-0.863 -0.610411,-1.1963 -0.736081,-1.1156 -1.752468,-1.96869 -2.939904,-2.57241 -4.021942,-2.04485 -11.401528,-1.29488 -12.219562,4.09709 -0.07056,0.46512 -0.07056,1.00513 0,1.47024 0.612742,4.03882 5.900179,4.38513 9.115733,4.92341 0.712467,0.11926 1.422857,0.26427 2.123672,0.43969 1.715949,0.42951 3.935369,1.3667 3.632085,3.51276 -0.04312,0.30509 -0.140214,0.59881 -0.284064,0.87125 -0.921948,1.74606 -3.03551,2.36335 -4.872709,2.45362 -3.79734,0.18657 -7.765722,-1.32018 -8.875861,-5.28518 M 99.463696,145.37574 c -1.08108,0.19526 -1.50582,1.62511 -0.87222,2.47456 0.40343,0.54086 1.1143,0.64285 1.743474,0.52027 0.99123,-0.19311 1.43773,-1.49059 0.91543,-2.31392 -0.38577,-0.60809 -1.10443,-0.80414 -1.786684,-0.68091 m -13.1232,5.85392 h -4.08399 v 1.7425 h 4.08399 v 2.94047 3.485 c 0,2.18689 0.0714,4.44099 2.28703,5.59401 0.36389,0.18938 0.74287,0.33594 1.14351,0.42658 0.66114,0.14957 1.33754,0.20567 2.01477,0.1856 0.89555,-0.0266 1.82861,-0.29837 2.61375,-0.72409 0.93706,-0.50809 1.73738,-1.25586 2.21691,-2.21491 0.11613,-0.23226 0.39125,-0.6979 0.29651,-0.96456 -0.0601,-0.16909 -0.29816,-0.23306 -0.4442,-0.30204 -0.40836,-0.19292 -0.85591,-0.47529 -1.30687,-0.53035 -0.45745,2.76549 -4.75581,4.07747 -6.26753,1.47023 -0.54521,-0.94032 -0.43021,-2.21687 -0.43021,-3.26718 v -6.15321 h 4.95524 l 2.72265,0.0545 c 0.0802,-0.29481 0.22018,-1.47111 -0.0391,-1.6799 -0.13461,-0.10841 -0.39958,-0.0626 -0.55992,-0.0626 h -1.47024 -5.60867 v -4.79187 l -1.52469,0.33355 -0.53638,0.19411 -0.0626,1.16038 v 3.10383 m 26.083054,-2.77711 v 0.0545 l 0.16336,0.0545 -0.16336,-0.1089 m 0.21781,0.0545 0.0545,0.16336 c 0.14423,-0.0288 0.19641,-0.0233 0.16336,0.1089 l 0.21781,0.0545 -0.43563,-0.32672 m 53.41853,0.0235 c -2.20483,0.2665 -4.28897,0.5028 -6.31656,1.51471 -1.62461,0.81078 -3.09797,1.97431 -4.07067,3.52589 -2.53253,4.0397 -1.49683,9.76205 2.0559,12.82683 1.98403,1.71152 4.2782,2.89631 6.64328,3.98156 1.99887,0.91721 4.13824,1.73193 5.71134,3.3425 1.70687,1.74754 2.02533,4.4484 1.25332,6.69451 -1.65387,4.81182 -8.58236,5.08375 -12.19216,2.53424 -0.71299,-0.50358 -1.26708,-1.21288 -1.7421,-1.93526 -0.85814,-1.30501 -1.46878,-2.74608 -2.16496,-4.13844 -0.11601,-0.23201 -0.48583,-1.28161 -0.85705,-1.11623 -0.32449,0.14456 -0.24547,1.30227 -0.24558,1.60631 -4.7e-4,1.39914 -0.16335,2.79255 -0.16335,4.19289 0,0.39075 -0.14853,1.14949 0.17511,1.43216 0.76937,0.67203 2.13888,0.97729 3.09207,1.29037 3.12198,1.02541 6.69164,1.49257 9.96493,1.12703 2.13918,-0.2389 4.30699,-0.69493 6.20766,-1.74317 1.54258,-0.85075 2.99149,-2.14829 3.872,-3.68553 2.07319,-3.6194 1.83368,-9.11022 -1.37039,-12.06505 -1.68468,-1.55363 -3.69162,-2.755 -5.7688,-3.70873 -2.51433,-1.15444 -5.13811,-2.03507 -7.24227,-3.90044 -1.74955,-1.551 -2.4466,-4.08818 -1.93658,-6.35438 0.97922,-4.351 6.85563,-5.60789 10.37682,-3.59978 0.9297,0.5302 1.62407,1.32652 2.16707,2.23845 0.74924,1.2583 1.43248,2.57435 2.1232,3.86618 0.13242,0.24767 0.4899,1.21567 0.86737,1.09593 0.34293,-0.10878 0.28662,-1.13395 0.28763,-1.42265 0.004,-1.20011 0.21378,-2.39371 0.21789,-3.59391 0.001,-0.41054 0.18156,-0.94607 -0.12992,-1.28684 -0.60226,-0.65889 -1.7818,-1.07151 -2.59277,-1.40275 -2.49855,-1.02053 -5.51554,-1.64358 -8.22243,-1.3164 m 25.37516,0 c -2.20099,0.26603 -4.29177,0.50421 -6.31656,1.51471 -1.74636,0.87154 -3.3415,2.18045 -4.29853,3.90706 -2.07388,3.74158 -1.35319,9.16867 1.84814,12.07791 1.93981,1.76283 4.22014,3.0433 6.58883,4.1315 2.04558,0.93976 4.29531,1.72681 5.93539,3.33984 1.80879,1.77894 2.37477,4.45311 1.53107,6.86053 -2.00666,5.72572 -10.90956,5.22346 -13.87375,0.76234 -0.88123,-1.32626 -1.48189,-2.78507 -2.21092,-4.19289 -0.12206,-0.23574 -0.49534,-1.31032 -0.84567,-1.17069 -0.35642,0.14205 -0.28209,1.28418 -0.28319,1.60631 -0.005,1.39909 -0.1634,2.79261 -0.1634,4.19289 0,0.37833 -0.15706,1.19296 0.17956,1.44877 0.84431,0.64162 2.09568,0.9435 3.08763,1.27389 3.11409,1.03722 6.69683,1.4916 9.96492,1.1269 2.15752,-0.24076 4.35599,-0.69835 6.26211,-1.78048 1.51538,-0.8603 2.94696,-2.12227 3.8176,-3.64822 2.18674,-3.83262 1.71014,-9.34306 -1.69393,-12.34407 -1.94045,-1.71069 -4.24298,-2.89432 -6.58883,-3.94436 -1.96318,-0.87874 -4.00345,-1.59392 -5.66312,-3.01191 -1.92562,-1.6452 -2.96265,-4.07123 -2.40131,-6.61935 0.96776,-4.39302 6.80146,-5.77202 10.40592,-3.70865 0.95165,0.54477 1.59831,1.30989 2.15903,2.23841 0.75573,1.25143 1.44397,2.57396 2.12857,3.86618 0.12823,0.24207 0.49999,1.22716 0.86702,1.09201 0.40186,-0.14798 0.21986,-1.14857 0.24249,-1.47319 0.0791,-1.13535 0.10364,-2.30198 0.22818,-3.43054 0.0489,-0.4433 0.23177,-1.09336 -0.13672,-1.43983 -0.63871,-0.60056 -1.6442,-0.96602 -2.4392,-1.30599 -2.50776,-1.07246 -5.59859,-1.69939 -8.33133,-1.36908 m -78.68478,0.0309 -0.0545,0.0545 0.0545,-0.0545 m 41.7111,1.36133 h -7.35117 c 0.0289,0.56988 0.57819,0.60852 1.03461,0.73919 0.78392,0.22443 1.56446,0.49178 1.61055,1.43894 0.0436,0.89603 -0.44315,1.88863 -0.72115,2.72265 -0.58199,1.74595 -1.17936,3.48713 -1.77666,5.2275 -1.23913,3.61053 -2.46556,7.22498 -3.7028,10.83618 -0.72806,2.12504 -1.35549,4.29547 -2.21658,6.37102 h -0.0545 c -1.961,-5.71062 -3.87153,-11.44145 -5.82688,-17.15274 -0.55284,-1.61478 -1.10818,-3.2278 -1.65138,-4.84633 -0.33354,-0.99382 -0.76817,-1.9753 -0.68327,-3.04938 0.0821,-1.03809 1.18106,-1.30411 2.00833,-1.54039 0.45534,-0.13004 1.01274,-0.19449 1.08906,-0.74664 -3.86908,0 -7.72895,-0.0545 -11.59852,-0.0545 -0.9634,0 -1.92601,-0.0187 -2.88601,0.0482 -0.20884,0.0146 -0.77859,-0.0973 -0.91352,0.0997 -0.12587,0.18379 0.12274,0.38109 0.26178,0.45305 0.45547,0.23572 0.99303,0.31864 1.46853,0.50992 2.26538,0.91128 2.86351,4.10206 3.58459,6.18583 2.55854,7.39357 5.2034,14.78955 7.96985,22.10797 0.53186,1.407 1.0227,2.83146 1.5306,4.24735 0.14012,0.39061 0.28777,1.3182 0.62527,1.57099 0.20663,0.15476 0.69162,0.0626 0.93759,0.0626 0.81787,0 2.04095,0.23202 2.81593,-0.0225 0.34892,-0.11457 0.50765,-1.1269 0.61462,-1.44778 0.47746,-1.43239 0.9169,-2.88543 1.43936,-4.3018 2.21142,-5.99499 4.12669,-12.12412 6.14777,-18.18735 0.65446,-1.96337 1.32307,-3.92257 1.99131,-5.88094 0.3719,-1.08987 0.64216,-2.27009 1.23655,-3.26719 0.3914,-0.65657 0.9289,-1.02623 1.65477,-1.25048 0.55735,-0.17219 1.34959,-0.16124 1.36133,-0.87319 m -154.75578003,9.09368 c 2.19372003,0 4.39161003,-0.0545 6.58883003,-0.0545 h 4.192891 c 0.834263,0 1.674401,-0.0326 2.504845,0.0438 0.247096,0.0227 0.846456,0.11202 1.050001,-0.0519 0.128385,-0.10339 0.09327,-0.33747 0.09351,-0.48193 7.58e-4,-0.45732 0.0094,-0.9077 -0.05445,-1.36132 -0.289545,-2.05824 -1.404236,-3.84286 -3.158276,-4.97147 -4.401079,-2.83181 -11.949668,-1.29905 -13.360976,4.20912 -0.191706,0.74821 -0.208803,1.52383 -0.149467,2.28703 0.07061,0.90824 0.298146,1.80705 0.731763,2.61375 2.27936497,4.24056 7.991032,5.14883 12.234149,3.77503 1.289357,-0.41745 2.501876,-1.02111 3.539454,-1.90156 0.236531,-0.20072 0.881543,-0.69763 0.853835,-1.04893 -0.01348,-0.17095 -0.242706,-0.28112 -0.363807,-0.36982 -0.296178,-0.21692 -0.870645,-0.85676 -1.252372,-0.59392 -0.816275,0.56205 -1.410913,1.22107 -2.341485,1.64624 -3.126851,1.42862 -7.691855,1.27883 -10.04876803,-1.50704 -0.57888,-0.68424 -0.762197,-1.41775 -1.059672,-2.23257 M 18.87306,153.68006 c -0.130563,-0.57878 -0.06847,-1.20692 -0.139816,-1.79696 -0.01986,-0.16426 0.02649,-0.46787 -0.117055,-0.58347 -0.32636,-0.26282 -1.400374,-0.07 -1.812349,-0.07 v 4.62852 9.31149 l 2.06922,-0.0545 v -5.44532 c 0,-1.59644 -0.0097,-3.21904 0.850983,-4.62852 1.615461,-2.6454 6.831044,-3.46211 8.57615,-0.49008 0.681581,1.16078 0.592244,2.6184 0.592244,3.92063 v 6.64328 h 2.069219 v -5.55422 c 0,-1.49651 -0.004,-3.08176 0.788255,-4.4107 1.640048,-2.7512 6.963933,-3.62482 8.715839,-0.49008 0.615948,1.10213 0.515284,2.53513 0.515284,3.75727 v 6.69773 l 2.069219,0.0545 c 0.273363,-1.00476 0.05445,-2.33409 0.05445,-3.37609 v -4.3018 c 0,-1.54041 0.0061,-3.01811 -0.876634,-4.35625 -2.025029,-3.06968 -7.091258,-2.91947 -9.850634,-1.03227 -0.740036,0.50612 -1.307899,1.16043 -1.796954,1.90352 -1.474828,-3.47575 -6.319169,-3.98873 -9.365939,-2.40689 -0.995425,0.51681 -1.627001,1.2452 -2.341485,2.08017 m 39.641884,8.82141 c 3.4e-5,1.91536 1.173076,3.23842 3.158282,3.09758 0.7706,-0.0547 1.583482,-0.37893 2.17665,-0.87096 0.171502,-0.14226 0.521008,-0.4001 0.523088,-0.64748 0.0034,-0.40032 -0.741917,-0.9705 -0.957237,-1.30688 -0.334051,0.10718 -0.529629,0.40149 -0.816797,0.59065 -0.587352,0.38689 -1.452401,0.39454 -1.798416,-0.31857 -0.08135,-0.16765 -0.12117,-0.36048 -0.144714,-0.54434 -0.225012,-1.75707 -0.01718,-3.67294 -0.01718,-5.44531 0,-1.80991 -0.127139,-3.33995 -1.633594,-4.57795 -0.381757,-0.31373 -0.803756,-0.58665 -1.252423,-0.79514 -3.10436,-1.44254 -7.034226,-1.12142 -10.019377,0.46092 -0.82153,0.43547 -1.597288,1.01125 -2.164346,1.75388 -0.152133,0.19924 -0.515351,0.58902 -0.450109,0.86349 0.07668,0.32261 0.875544,0.71549 1.144214,0.89277 0.118225,0.078 0.269188,0.18623 0.41129,0.10031 0.223715,-0.13527 0.366322,-0.51283 0.534308,-0.71305 0.329251,-0.39246 0.752938,-0.69908 1.178081,-0.97959 2.011077,-1.32688 4.766756,-1.6362 7.078908,-1.113 0.986039,0.22312 2.058278,0.66977 2.691163,1.4936 0.292738,0.38107 0.529967,1.01486 0.269925,1.467 -0.547309,0.95161 -2.61153,0.74402 -3.560073,0.82571 -2.579259,0.22214 -5.278677,0.3232 -7.677892,1.40322 -1.618153,0.72842 -2.739109,2.21271 -2.416066,4.03642 0.350423,1.97827 2.315548,2.91171 4.104113,3.23627 3.607534,0.6546 7.097201,-0.22829 9.638205,-2.90955 m 9.257034,-8.54914 c -8e-5,-0.66409 -0.05267,-1.35474 -0.125517,-2.01477 -0.01881,-0.17037 0.01408,-0.52818 -0.131354,-0.64529 -0.325802,-0.26235 -1.452155,-0.0626 -1.866801,-0.0626 v 13.94001 l 2.123672,-0.10891 c -0.20267,-0.89841 -0.05445,-1.96619 -0.05445,-2.88602 0,-2.23089 -0.371328,-5.01176 0.910023,-6.97 1.856771,-2.83764 7.225153,-3.63989 9.460163,-0.8168 0.85056,1.07438 0.81823,2.25397 0.90786,3.53946 0.16583,2.37852 0.0482,4.802 0.0482,7.18781 h 2.06922 c 0,-1.7 -0.0781,-3.42073 0.003,-5.11859 0.0908,-1.8945 0.27657,-4.03828 -0.48748,-5.82649 -1.67121,-3.91141 -7.28466,-4.13597 -10.569741,-2.3242 -0.987967,0.54488 -1.490555,1.37186 -2.287032,2.10639 m 52.982899,6.09875 c -0.4093,-0.17729 -1.56756,-0.68021 -1.99574,-0.50219 -0.29278,0.12174 -0.50817,0.93768 -0.67709,1.21008 -0.43703,0.70481 -1.08858,1.33341 -1.79233,1.77055 -2.0334,1.26306 -4.63956,1.50168 -6.91555,0.80336 -3.212,-0.98552 -5.08175,-4.78732 -3.26226,-7.80141 1.08302,-1.79412 3.06738,-2.73029 5.11367,-2.82833 1.67611,-0.0803 3.4431,0.27737 4.73595,1.41273 0.37641,0.33056 0.70006,0.71222 0.95575,1.14333 0.0969,0.16336 0.18923,0.53379 0.37929,0.60756 0.16686,0.0648 0.41236,-0.0634 0.57229,-0.10963 0.47354,-0.13695 0.96259,-0.24717 1.41579,-0.44347 -0.80825,-2.32447 -3.02203,-3.76043 -5.33641,-4.27085 -3.88116,-0.85595 -8.69159,0.44997 -10.2135,4.48866 -0.24894,0.66059 -0.40388,1.36452 -0.45307,2.06922 -0.0578,0.82803 0.007,1.70185 0.22071,2.50484 2.06783,7.75443 14.82654,7.00803 17.2525,-0.0545 m -21.890156,5.1186 2.069216,-0.0545 v -9.91047 -2.72266 c 0,-0.30562 0.10389,-0.84539 -0.0391,-1.12106 -0.0815,-0.15718 -0.3027,-0.13056 -0.45102,-0.13131 -0.39557,-0.002 -1.148336,-0.14451 -1.502226,0.039 -0.2246,0.11647 -0.13136,0.62407 -0.13136,0.83219 0,0.8377 0.0545,1.66758 0.0545,2.50485 v 10.56391 M 11.8486,157.1106 H -0.29445003 c 0.08991,-1.65307 1.47849403,-2.9983 2.88601603,-3.65974 3.182096,-1.49536 8.88002,-0.56246 9.257034,3.65974 m 46.611886,1.03461 c 0.420064,1.54397 -0.654847,3.27305 -1.851406,4.12928 -1.612929,1.15418 -3.570304,1.42494 -5.499767,1.42494 -0.97224,0 -2.047391,-0.0904 -2.94047,-0.50922 -1.19093,-0.55846 -1.80483,-2.00204 -0.758921,-3.0238 0.685444,-0.66961 1.753183,-0.93315 2.664781,-1.11724 1.00283,-0.20251 2.031351,-0.30916 3.049376,-0.40319 1.737807,-0.16052 3.634826,-0.11699 5.336407,-0.50077 m -59.08165503,8.35488 c -1.83941897,0.2245 -3.64143097,0.7254 -5.00911997,2.0489 -1.969503,1.90589 -2.246661,5.48527 0.05388,7.24344 1.257059,0.96069 2.886492,1.32408 4.410705,1.60832 2.265462,0.42247 4.730885,0.65328 6.861095,1.56952 1.492576,0.64198 2.539104,2.05988 1.807207,3.67885 -0.593218,1.31221 -1.8958,2.00379 -3.222988,2.36489 -2.780341,0.75645 -6.252656,0.19318 -8.49469,-1.66593 -0.69342,-0.57499 -1.250289,-1.25013 -1.646732,-2.06028 -0.131547,-0.26883 -0.263734,-1.09216 -0.512586,-1.23637 -0.146372,-0.0848 -0.37484,0.0589 -0.508886,0.11602 -0.452409,0.1927 -0.982323,0.32869 -1.403843,0.58071 -0.34805,0.20808 0.06628,0.9217 0.182759,1.19307 0.497915,1.16007 1.294711,2.14944 2.255694,2.9625 2.761536,2.33645 6.884852,2.93561 10.346096,2.21015 1.689812,-0.35417 3.40259,-1.18087 4.48929,-2.5589 1.559439,-1.9775 1.533628,-5.09124 -0.514211,-6.71446 -2.947412,-2.33624 -7.223891,-1.99273 -10.672815,-3.01804 -1.46849,-0.43655 -2.813277,-1.42617 -2.601537,-3.11844 0.160625,-1.28373 1.265557,-2.1844 2.383724,-2.65233 2.24401897,-0.93907 5.093609,-0.60729 7.078908,0.76596 0.573537,0.39673 1.095381,0.91114 1.465566,1.5052 0.156193,0.25066 0.319815,0.87864 0.580356,1.01855 0.143787,0.0772 0.331993,-0.0445 0.458923,-0.10659 0.411067,-0.20112 0.848337,-0.38176 1.246905,-0.60454 0.367153,-0.20523 0.104855,-0.62425 -0.03622,-0.9064 C 7.989974,169.9512 7.456048,169.3087 6.838907,168.71061 4.998139,166.92666 1.88092,166.1947 -0.62117303,166.50009 m 53.25516903,0.43948 c -1.083944,0.20615 -1.44786,1.64256 -0.833022,2.47593 0.38855,0.52663 1.093802,0.63462 1.704273,0.5256 1.044447,-0.18653 1.477407,-1.5324 0.909544,-2.37401 -0.390445,-0.57865 -1.122465,-0.75273 -1.780795,-0.62752 m -39.532974,10.48205 c 1.384444,-2.88269 5.863297,-3.569 8.658049,-2.93416 1.145809,0.26027 3.514773,1.1284 3.187602,2.71635 -0.10757,0.52211 -0.5824,0.77184 -1.06393,0.84767 -0.902697,0.14217 -1.816562,0.15478 -2.722657,0.25796 -2.221404,0.25295 -4.445003,0.30212 -6.588829,1.01804 -1.178104,0.39342 -2.366395,1.02158 -3.023459,2.12368 -1.49775,2.51217 0.882175,4.88851 3.241271,5.42159 3.685598,0.83285 7.546772,0.0266 10.128284,-2.80784 1.06e-4,0.91262 0.202272,1.85575 0.928947,2.47748 1.076015,0.92063 2.758964,0.75078 3.917382,0.0876 0.346029,-0.19808 0.787962,-0.46321 0.986339,-0.82263 0.157775,-0.28587 -0.672595,-1.39099 -0.992627,-1.39216 -0.240246,-8.8e-4 -0.511036,0.35913 -0.701602,0.48592 -0.661222,0.43992 -1.597827,0.40152 -1.897339,-0.45509 -0.219461,-0.62769 -0.117428,-1.46626 -0.117428,-2.12367 v -3.92063 c 0,-0.97517 0.0519,-1.92596 -0.376572,-2.83156 -0.673891,-1.42432 -2.107234,-2.25061 -3.544054,-2.72253 -3.125518,-1.02658 -6.874286,-0.50756 -9.638205,1.25588 -0.616832,0.39355 -1.180899,0.92747 -1.609475,1.5211 -0.121995,0.16898 -0.359569,0.42527 -0.355993,0.64662 0.0029,0.17794 0.204163,0.2829 0.332106,0.3698 0.388149,0.26366 0.799306,0.64905 1.25219,0.78053 m 21.073365,-1.90586 c -0.01904,-0.66881 -0.09138,-1.34852 -0.152665,-2.01476 -0.01634,-0.17761 0.0533,-0.51108 -0.104206,-0.63792 -0.326354,-0.26283 -1.400381,-0.07 -1.812349,-0.07 v 13.55883 4.19289 l 0.05445,2.06922 2.014767,-0.0545 v -8.54915 c 0.465397,0.37354 0.789311,0.90818 1.252422,1.29885 1.007974,0.8503 2.25357,1.38441 3.539454,1.64162 1.435889,0.28722 2.918401,0.29844 4.356251,0.0109 1.631547,-0.32629 3.305482,-1.06657 4.458902,-2.2981 2.517374,-2.68788 2.513453,-7.02463 0.04997,-9.74693 -2.280896,-2.52053 -6.428136,-3.08684 -9.573017,-2.19364 -1.760361,0.49997 -2.858331,1.4985 -4.083985,2.79262 m 38.335009,6.97001 h -0.0545 c -2.561853,2.56175 -6.605118,3.45106 -10.019381,2.10173 -1.673217,-0.66125 -3.362474,-2.10467 -3.539454,-4.00759 l 14.375625,-0.0545 c 0,-1.57018 -0.10478,-3.01366 -0.902581,-4.41071 -2.463446,-4.31385 -9.243752,-4.91118 -13.037419,-2.07419 -3.476771,2.60001 -3.727068,7.69 -0.598944,10.67454 0.869641,0.82974 1.97271,1.44317 3.103789,1.83552 2.830466,0.98185 6.141373,0.80171 8.875861,-0.4097 0.937011,-0.41511 1.800924,-0.96105 2.559254,-1.65109 0.18712,-0.17026 0.72269,-0.60389 0.62616,-0.90279 -0.12284,-0.38038 -1.06695,-0.85501 -1.38846,-1.10127 m 5.55422,-6.97 c -0.004,-0.6497 -0.0932,-1.31352 -0.15267,-1.96032 -0.0173,-0.18841 0.0529,-0.51209 -0.0733,-0.66883 -0.20269,-0.25166 -1.21134,-0.0973 -1.51649,-0.0933 -0.13731,0.002 -0.32249,-0.0118 -0.39662,0.13114 -0.13697,0.26413 -0.0391,0.77421 -0.0391,1.06661 0,0.92797 0.0545,1.84861 0.0545,2.77711 v 9.96492 l 2.06922,-0.0545 v -5.33636 c 0,-1.50641 -0.009,-3.07301 0.78825,-4.4107 1.80709,-3.03147 7.85678,-3.99686 9.83556,-0.59899 0.72742,1.24911 0.64799,2.69045 0.64799,4.08399 v 6.26211 h 2.12367 v -6.58883 c 0,-1.56464 0.0928,-3.11911 -0.59437,-4.57407 -1.70767,-3.61587 -7.13401,-3.91472 -10.29626,-2.21476 -1.04112,0.55969 -1.67925,1.35699 -2.45039,2.21476 m 32.72634,6.0443 c -0.4581,-0.0971 -0.91045,-0.23909 -1.36133,-0.36562 -0.17813,-0.05 -0.44427,-0.16854 -0.62673,-0.0839 -0.29698,0.13775 -0.5228,0.98185 -0.70479,1.26633 -0.48003,0.75034 -1.12628,1.32871 -1.88122,1.79245 -1.96547,1.20734 -4.45173,1.36707 -6.64328,0.77259 -3.43729,-0.9324 -5.26918,-4.99137 -3.27356,-8.0648 0.89106,-1.37231 2.39283,-2.21626 3.98145,-2.49984 1.59388,-0.28452 3.4255,-0.14787 4.84633,0.68168 0.62374,0.36417 1.17173,0.79329 1.59802,1.38253 0.16317,0.22554 0.38524,0.89748 0.65317,0.98337 0.16965,0.0544 0.41894,-0.0646 0.58037,-0.11387 0.44997,-0.13733 0.94122,-0.22045 1.36133,-0.43387 -0.83896,-2.8012 -3.94507,-4.23847 -6.64328,-4.47084 -3.9758,-0.34239 -8.33672,1.51098 -9.20201,5.77771 -0.16674,0.8222 -0.18742,1.67357 -0.0928,2.50484 0.6915,6.07705 8.17113,7.74856 12.99765,5.56664 1.80622,-0.81653 4.14886,-2.5424 4.41071,-4.69538 m 3.70281,-0.98016 c 2.19372,0 4.39161,-0.0545 6.58883,-0.0545 h 4.19289 c 0.89046,0 1.78125,0.0517 2.6682,0.0544 0.21332,6.5e-4 0.76126,0.065 0.91756,-0.10647 0.26023,-0.28556 0.0588,-1.43921 0.008,-1.79935 -0.29009,-2.06232 -1.4,-3.84013 -3.15828,-4.97147 -4.35216,-2.80032 -11.71548,-1.34266 -13.30118,3.99131 -0.23939,0.80525 -0.24884,1.623 -0.20639,2.45039 0.0474,0.92482 0.28875,1.84936 0.72889,2.66821 2.27601,4.2343 7.99532,5.14743 12.23414,3.77503 1.2904,-0.4178 2.50131,-1.02063 3.53946,-1.90157 0.23739,-0.20145 0.88122,-0.6974 0.85383,-1.04985 -0.0136,-0.17505 -0.23865,-0.28447 -0.36381,-0.37334 -0.30248,-0.21478 -0.86355,-0.85732 -1.25237,-0.58948 -0.81342,0.56034 -1.41423,1.22259 -2.34148,1.64624 -3.12849,1.42937 -7.69067,1.28029 -10.04877,-1.50703 -0.57886,-0.68423 -0.76221,-1.41775 -1.05967,-2.23258 m -62.457564,-7.7868 v 13.88555 h 2.069219 l 0.05445,-10.18274 v -2.61375 l -0.11558,-0.99555 -0.537857,-0.0935 h -1.470232 m -11.598519,1.48684 c 2.101339,-0.23197 4.612159,0.62893 5.962885,2.27043 2.001485,2.43233 1.156225,6.12665 -1.497727,7.67678 -0.924447,0.53996 -1.989095,0.84398 -3.049376,0.96462 -2.129874,0.24235 -4.499317,-0.24464 -6.098712,-1.73214 -2.387775,-2.22074 -1.933146,-6.18113 0.707851,-7.97918 1.203839,-0.81961 2.56316,-1.04465 3.975079,-1.20051 m 30.548211,4.3941 h -12.14305 c 0.084,-1.54415 1.354356,-2.89595 2.668204,-3.55295 3.089126,-1.54475 9.24237,-0.83812 9.474846,3.55295 m 55.651112,0 h -12.14305 c 0.09,-1.65307 1.47848,-2.9983 2.88602,-3.65974 3.18223,-1.49543 8.88007,-0.56301 9.25703,3.65974 m -101.849821,1.09721 c 0.272918,0.10424 0.112802,0.86217 0.08611,1.08091 -0.140474,1.15144 -0.717489,2.12854 -1.642807,2.83597 -1.641225,1.25476 -3.65185,1.57474 -5.663127,1.57474 -0.994089,0 -2.083344,-0.0876 -2.994922,-0.51816 -1.806263,-0.8532 -1.539056,-2.8372 0.163359,-3.60223 2.260237,-1.0157 5.135811,-0.99519 7.568986,-1.1678 0.672708,-0.0477 1.845757,-0.44658 2.482397,-0.20343 m 28.011361,12.40716 v 2.88602 1.41578 l 0.490078,0.0545 v -3.64836 h 0.05445 c 0.336005,0.99705 0.900491,1.98591 1.349949,2.94047 0.134125,0.28485 0.339421,0.84213 0.761373,0.66822 0.321262,-0.13243 0.464029,-0.70489 0.594126,-0.99494 0.370264,-0.82551 0.703071,-1.85221 1.269631,-2.5593 v 3.59391 h 0.490079 v -3.26719 c 0,-0.24938 0.127558,-0.96795 -0.175119,-1.06662 -0.584872,-0.19065 -0.764637,0.37844 -0.951188,0.79435 -0.452017,1.00778 -0.842741,2.08436 -1.378538,3.04938 l -1.174458,-2.5593 -0.60613,-1.21336 -0.724256,-0.0935 m 6.371017,0 v 4.35626 c 0.170266,-10e-4 0.40233,0.0249 0.467631,-0.17512 0.258599,-0.79233 0.02245,-2.03854 0.02245,-2.87426 0,-0.33951 0.08342,-0.8074 -0.02245,-1.13176 -0.0653,-0.20005 -0.297378,-0.17366 -0.467631,-0.17512 m 1.579141,0 v 0.38118 h 1.688047 l 0.05445,3.97508 c 0.621205,-0.005 0.434023,-0.55007 0.435665,-1.03461 0.0033,-0.96262 0.05247,-1.92469 0.05441,-2.88602 0.468701,0 0.947998,-0.007 1.413508,-0.06 0.146675,-0.0168 0.359895,-0.16536 0.18023,-0.3133 -0.207357,-0.17073 -0.7932,-0.0624 -1.049207,-0.0624 h -2.77711 m 8.658049,0 v 3.10383 l 0.0626,1.15891 0.73065,0.0861 2.147217,-0.0471 c -0.0394,-0.36309 -0.295225,-0.31342 -0.598985,-0.35026 -0.608523,-0.0738 -1.238889,-0.0309 -1.851407,-0.0309 v -2.94047 c 0,-0.49621 0.132471,-0.97483 -0.490078,-0.98016 m 31.85509,1.90586 c -0.71303,-0.68812 -2.087331,-0.86486 -2.800111,-0.0431 -0.78344,0.90317 -0.22082,2.20054 0.89425,2.42053 0.31659,0.0625 0.60766,0.0687 0.925701,0.0179 0.44969,-0.0718 0.69941,-0.32018 1.03461,-0.59837 0.002,0.3624 0.0203,0.63195 0.43563,0.65344 0.006,-1.08884 0.004,-2.17925 4e-5,-3.26719 -8.2e-4,-0.23552 0.12669,-0.98482 -0.17436,-1.06434 -0.28105,-0.0742 -0.31292,0.21084 -0.31554,0.41095 -0.006,0.48683 0.046,0.98608 -2.2e-4,1.47018 m 6.26211,-1.88174 c -0.37506,0.0519 -0.7624,0.15911 -1.08906,0.35523 -1.20872,0.72566 -1.26762,2.44931 -0.2717,3.37106 0.55776,0.51622 1.44046,0.6838 2.17756,0.58173 1.61411,-0.22353 2.7978,-2.02331 1.65659,-3.4594 -0.53807,-0.6771 -1.63845,-0.96419 -2.47339,-0.84862 m 22.16243,0.003 c -0.78935,0.14028 -1.72856,1.19465 -0.8633,1.88772 0.64536,0.51694 1.61983,0.34263 2.33348,0.69708 0.29932,0.14866 0.5146,0.42394 0.37634,0.76414 -0.34894,0.8586 -1.76447,0.67551 -2.33603,0.19756 -0.16836,-0.1408 -0.53586,-0.82461 -0.79492,-0.63595 -0.33856,0.24658 0.22956,0.77799 0.41642,0.9248 0.60474,0.47512 1.49971,0.59428 2.22933,0.39674 0.80755,-0.21865 1.51072,-1.29713 0.65002,-1.9196 -0.61988,-0.44831 -1.47156,-0.37856 -2.1747,-0.60782 -0.28122,-0.0917 -0.56359,-0.31564 -0.52753,-0.64257 0.0999,-0.90533 1.40585,-0.80774 1.94004,-0.42175 0.17475,0.12626 0.43229,0.57397 0.68866,0.43539 0.3066,-0.16571 -0.17,-0.58582 -0.30441,-0.69004 -0.42402,-0.32881 -1.10523,-0.47956 -1.6334,-0.3857 m 28.53344,-0.027 v 4.35626 c 0.62257,-0.005 0.49008,-0.48395 0.49008,-0.98016 v -2.77711 c 0.7499,0.83464 1.37537,1.85306 2.01286,2.77711 0.24999,0.36235 0.48456,0.92715 0.98187,0.96696 0.53861,0.0431 0.38136,-0.66622 0.38136,-1.02141 0,-1.09599 0.0875,-2.23445 -0.0545,-3.32165 h -0.49008 v 3.70282 c -0.6733,-0.80118 -1.26578,-1.70191 -1.86619,-2.5593 -0.43852,-0.62622 -0.63544,-1.14342 -1.45545,-1.14352 m 5.2275,0 v 3.10383 c 0,0.28005 -0.12031,0.93178 0.0626,1.15891 0.13788,0.17121 0.56055,0.0935 0.7542,0.0935 0.49957,0 2.08937,0.27051 2.12367,-0.38118 l -2.45039,-0.0545 v -2.94047 c 0,-0.49621 0.13248,-0.97483 -0.49008,-0.98016 m 4.02953,0 v 3.26719 c 0,0.50818 -0.15704,1.08354 0.49008,1.08907 v -1.52469 c 0.8359,0 1.97526,0.15207 2.72205,-0.29484 0.824,-0.49312 0.75329,-1.83145 -0.0539,-2.29582 -0.8368,-0.48141 -2.22898,-0.24091 -3.15825,-0.24091 m 7.07891,0 v 0.38118 l 1.68805,0.0545 0.0545,3.92063 h 0.43563 l 0.0545,-3.92063 c 0.47528,0 1.65409,0.21937 1.68805,-0.43563 h -3.92063 m 14.6479,4.35626 h 0.43562 v -4.35626 c -0.63004,0.005 -0.50348,0.53183 -0.48859,1.03461 0.0328,1.10658 0.053,2.2119 0.053,3.32165 m 1.7425,0 h 0.43562 c 0,-0.1993 -0.006,-0.39989 0.003,-0.59899 0.0127,-0.26382 0.20308,-1.0627 0.63301,-0.82691 0.69925,0.38347 0.82491,1.41065 1.75968,1.4259 -0.22834,-0.61744 -0.99874,-1.40879 -1.52469,-1.79696 v -0.0545 l 1.41578,-1.14352 c -0.82727,-0.22327 -1.65587,0.82968 -2.28703,1.25243 0,-0.70786 0.004,-1.41583 -5e-5,-2.12367 -9.6e-4,-0.18954 -0.0771,-0.67867 -0.38963,-0.42726 -0.23754,0.19111 -0.0545,0.82068 -0.0474,1.08073 0.0294,1.0692 0.001,2.14307 0.001,3.2127 M 73.325529,192.28732 c 0.0106,0.64485 0.53946,0.53864 0.54453,-0.0545 l -0.54453,0.0545 m 122.083931,-0.0545 c -1.06643,0.007 -0.003,1.11753 0,0 m -87.88736,0.3439 c 0.66238,-0.0848 1.39286,0.0163 1.89365,0.49293 1.26066,1.19991 0.16227,2.90149 -1.29467,3.06715 -0.57753,0.0657 -1.25016,-0.0682 -1.67674,-0.4858 -1.10526,-1.08199 -0.39415,-2.88578 1.07776,-3.07428 m 60.58026,0.0219 c 0.16636,-0.0885 0.4428,-0.0391 0.62507,-0.0391 0.50218,0 1.26224,-0.13949 1.68419,0.19116 0.52065,0.408 0.49917,1.39831 -0.10847,1.72057 -0.45012,0.23871 -1.18799,0.10307 -1.68463,0.10303 -0.15335,-10e-6 -0.42258,0.0476 -0.54823,-0.0626 -0.25816,-0.22633 -0.11148,-1.1978 -0.1046,-1.51649 0.003,-0.13696 -0.004,-0.32196 0.13667,-0.39661 m 29.26742,0.88664 c -0.32148,0 -0.73499,-0.0896 -0.92571,0.21781 l 0.87125,0.10891 c 0,0.659 -0.15822,1.93601 0.34145,2.43567 0.41324,0.41323 1.90469,0.34269 1.84354,-0.46961 -0.0117,-0.15544 -0.1532,-0.19386 -0.27458,-0.12472 -0.3641,0.20741 -0.6532,0.71578 -1.13955,0.3864 -0.4879,-0.33043 -0.33946,-1.7263 -0.22633,-2.22774 h 1.57915 v -0.27227 c -0.34568,-0.0628 -1.36567,0.11445 -1.57098,-0.1858 -0.13273,-0.19411 -0.0626,-0.56956 -0.0626,-0.79435 -0.56,0.0125 -0.43562,0.48753 -0.43562,0.9257 m -123.989801,0 v 2.34149 c 0,0.21813 -0.082,0.71997 0.26904,0.69062 0.31362,-0.0262 0.22104,-0.53265 0.22104,-0.74508 0,-0.76481 -0.0545,-1.52207 -0.0545,-2.28703 h -0.43563 m 3.15828,0.027 c -1.16218,0.20544 -1.89078,1.49983 -1.01416,2.47101 0.66012,0.73135 1.88465,0.66123 2.64757,0.15533 0.11692,-0.0775 0.8357,-0.83268 0.32462,-0.83269 -0.24972,0 -0.56938,0.53851 -0.81451,0.66131 -0.8586,0.43013 -2.39072,-0.0364 -2.07994,-1.22951 0.20871,-0.80126 1.22516,-1.09974 1.91658,-0.71815 0.17116,0.0945 0.57064,0.58442 0.77711,0.47306 0.26408,-0.14243 -0.17954,-0.5649 -0.28764,-0.64872 -0.38035,-0.29488 -0.99829,-0.41495 -1.46963,-0.33164 m 6.80664,2.15116 c -0.91857,0.15195 -1.84024,0.87555 -2.71583,0.0884 -0.16457,-0.14794 -0.2797,-0.33372 -0.38799,-0.52407 0.47358,-0.0134 0.94131,0.009 1.41578,-0.001 0.31035,-0.007 0.6168,-0.003 0.92716,3.6e-4 0.16776,0.002 0.48128,0.0477 0.61915,-0.072 0.38454,-0.3339 -0.26285,-1.11849 -0.51189,-1.31131 -1.14184,-0.88409 -3.40058,0.051 -2.77682,1.65656 0.36974,0.95168 1.56564,1.15472 2.45029,0.94205 0.42492,-0.10215 0.92997,-0.29429 0.98015,-0.77869 m 1.30688,-2.17813 v 3.04938 c 0.92019,-0.008 0.26101,-1.57771 0.69262,-2.17661 0.46002,-0.63833 1.6248,-0.71374 2.00777,0.053 0.29072,0.58204 0.13117,1.49147 0.13117,2.12364 0.68218,-0.0153 0.49582,-1.43597 0.41735,-1.96032 -0.21327,-1.42506 -1.92532,-1.17779 -2.75883,-0.54453 -0.0212,-0.34741 -0.12807,-0.52604 -0.49008,-0.54453 m 4.46516,1.90586 c -0.11795,0.49755 0.29111,0.7859 0.70789,0.95423 0.69007,0.2787 1.84062,0.30816 2.28812,-0.41031 0.23283,-0.37383 0.0319,-0.7445 -0.32786,-0.92799 -0.57757,-0.29456 -1.50846,-0.0477 -1.99504,-0.48281 -0.20684,-0.18495 -0.0479,-0.42287 0.14582,-0.53963 0.29342,-0.17687 0.72021,-0.14047 1.03247,-0.0362 0.34919,0.11662 0.60189,0.37506 0.98016,0.40809 -0.28677,-1.00744 -2.54364,-1.3168 -2.65906,-0.0544 -0.10982,1.2011 1.95243,0.54712 2.39833,1.16847 0.15999,0.22293 -0.0868,0.48008 -0.28546,0.56228 -0.34723,0.14368 -1.01705,0.12827 -1.35967,-0.0203 -0.35264,-0.15293 -0.56254,-0.48549 -0.9257,-0.62137 m 7.73234,0.27227 c -0.91747,0.15176 -1.84159,0.87635 -2.71581,0.0884 -0.16426,-0.14806 -0.27339,-0.33784 -0.38802,-0.52407 h 3.04938 c -7e-5,-0.66453 -0.19208,-1.19014 -0.8168,-1.52667 -1.01942,-0.54916 -2.58941,-0.009 -2.65408,1.25441 -0.0641,1.2513 1.37998,1.70155 2.38182,1.51963 0.47279,-0.0858 1.06896,-0.27413 1.14351,-0.81174 m 14.811261,-2.17813 0.001,2.72266 -0.001,1.57914 c 0.7724,0.2041 0.49007,-1.30603 0.49007,-1.79696 0.32087,0.22663 0.6429,0.42267 1.03461,0.49391 0.65146,0.11851 1.38046,-0.0313 1.83081,-0.55179 0.8165,-0.94369 0.0902,-2.17953 -1.01401,-2.36801 -0.29641,-0.0506 -0.5733,-0.0822 -0.87125,-0.0283 -0.40344,0.0729 -0.7252,0.28882 -1.03461,0.54836 -0.0253,-0.3447 -0.0444,-0.57871 -0.43562,-0.59898 m 8.38578,2.17813 c -0.97868,0.16189 -2.56364,1.08478 -3.04938,-0.43563 l 3.04938,-0.0545 c -0.0835,-0.61285 -0.28253,-1.17218 -0.87129,-1.46757 -1.04074,-0.52217 -2.72215,-0.008 -2.65401,1.35866 0.0588,1.17855 1.44876,1.63546 2.43624,1.40201 0.45026,-0.10646 1.03439,-0.27543 1.08906,-0.80302 m 1.25242,-2.17813 0.0545,3.04938 h 0.43562 c 0,-0.60954 -0.16639,-1.5207 0.14808,-2.06774 0.39373,-0.68489 1.6493,-0.89147 2.06352,-0.10978 0.30699,0.57934 0.12989,1.53969 0.12989,2.17752 h 0.43562 c 0.001,-0.73028 0.17887,-1.58659 -0.10726,-2.28703 -0.44699,-1.09424 -1.90233,-0.81595 -2.6154,-0.21782 -0.0583,-0.35965 -0.16994,-0.52154 -0.54453,-0.54453 m 13.34102,0.0251 c -1.11257,0.16996 -2.02287,1.40354 -1.16649,2.41846 0.43347,0.51372 1.23896,0.67125 1.87438,0.57341 1.16426,-0.17926 2.06426,-1.44487 1.12307,-2.4611 -0.41641,-0.44961 -1.23943,-0.62113 -1.83096,-0.53077 m 3.3761,-0.0251 c 0,0.70588 -0.13668,1.62065 0.13795,2.28703 0.49024,1.18958 1.94069,0.72337 2.69361,0.16336 2.8e-4,0.38234 0.007,0.58939 0.43562,0.59899 v -3.04938 c -0.7074,0.006 -0.39885,0.68205 -0.44631,1.19797 -0.0782,0.84987 -0.4338,1.47436 -1.40509,1.45717 -0.99464,-0.0176 -0.92571,-1.07923 -0.92571,-1.78389 0,-0.48071 0.0948,-0.86624 -0.49007,-0.87125 m 4.57406,0 v 3.04938 c 0.50357,-0.0113 0.43562,-0.3465 0.43562,-0.76235 0,-0.52158 -0.0735,-1.20257 0.29684,-1.62564 0.30249,-0.34558 0.81965,-0.37712 1.14213,-0.0418 0.0991,0.10306 0.28931,0.50071 0.4827,0.39508 0.37911,-0.20708 -0.31539,-0.85339 -0.50592,-0.92373 -0.60691,-0.22408 -0.95118,0.1122 -1.4702,0.34466 -0.007,-0.3007 -0.069,-0.41944 -0.38117,-0.43563 m 4.95523,0.027 c -1.16513,0.20597 -1.89235,1.49802 -1.01416,2.47101 0.66364,0.73528 1.87935,0.66476 2.64757,0.15533 0.11693,-0.0775 0.8357,-0.83268 0.32462,-0.83269 -0.24972,0 -0.56938,0.53851 -0.81451,0.66131 -0.8784,0.44006 -2.35797,-0.036 -2.06518,-1.22951 0.19761,-0.8055 1.21155,-1.09911 1.90182,-0.71815 0.17116,0.0945 0.57064,0.58443 0.77712,0.47306 0.26407,-0.14243 -0.17953,-0.5649 -0.28765,-0.64872 -0.38035,-0.29488 -0.99829,-0.41495 -1.46963,-0.33164 m 6.8611,2.20561 c -0.37807,-0.0639 -0.68344,0.19641 -1.03461,0.30151 -0.87085,0.26062 -1.67103,0.004 -2.12367,-0.79159 0.45243,-0.0128 0.90995,0.0252 1.36133,-0.006 0.4068,-0.0284 1.21679,0.15945 1.56886,-0.0451 0.44142,-0.25648 -0.2132,-1.10818 -0.42686,-1.28952 -0.98558,-0.83642 -2.99798,-0.28769 -2.9248,1.17751 0.0787,1.57597 2.97501,2.08709 3.57975,0.65344 m 26.46423,-2.20562 c -0.98917,0.17489 -1.87272,1.20371 -1.24908,2.20562 0.42194,0.67784 1.31548,0.91605 2.06587,0.78247 1.08229,-0.19266 1.93922,-1.35279 1.16432,-2.35995 -0.41347,-0.53741 -1.33492,-0.74238 -1.98111,-0.62814 m 4.90078,-0.003 c -1.18292,0.16246 -2.07026,1.45991 -1.1252,2.47386 0.42962,0.46094 1.17284,0.61117 1.77864,0.52728 1.12522,-0.15581 2.07631,-1.38405 1.21317,-2.41942 -0.41007,-0.49189 -1.25542,-0.66566 -1.86661,-0.58172 m 9.14813,-0.0241 v 2.34149 c 0,0.21811 -0.082,0.71997 0.26902,0.69062 0.31363,-0.0262 0.22105,-0.53264 0.22105,-0.74508 0,-0.76508 -0.0544,-1.52242 -0.0544,-2.28703 h -0.43562 m -114.623861,1.30688 c 0.15352,-0.77007 0.97901,-1.06916 1.68805,-0.88201 0.28179,0.0744 0.87216,0.43076 0.76304,0.80511 -0.0567,0.19436 -0.45102,0.13322 -0.59968,0.13078 -0.61679,-0.0101 -1.23173,-0.0539 -1.85141,-0.0539 m 13.50438,0 c 0.15315,-0.76784 0.98219,-1.06832 1.68804,-0.88201 0.2818,0.0744 0.87217,0.43076 0.76305,0.80511 -0.0567,0.19436 -0.45102,0.13322 -0.59969,0.13078 -0.61678,-0.0101 -1.23172,-0.0539 -1.8514,-0.0539 m 5.71758,-0.90743 c 0.501761,-0.0751 1.134351,-0.0168 1.497101,0.37529 0.69991,0.75646 0.0161,1.73167 -0.84367,1.86826 -0.472131,0.075 -1.007641,0.003 -1.346781,-0.36296 -0.64918,-0.69969 -0.22766,-1.74279 0.69335,-1.88059 m 13.558831,0.002 c 0.49553,-0.0885 1.12497,-0.0364 1.49729,0.33379 0.67599,0.67216 0.25279,1.69556 -0.62604,1.87222 -0.55042,0.11064 -1.16287,0.0767 -1.55457,-0.38192 -0.56231,-0.65844 -0.13906,-1.67726 0.68332,-1.82409 m 3.92062,0.90525 c 0.0676,-0.90633 1.34086,-1.15668 2.01416,-0.74671 0.15696,0.0956 0.62388,0.52997 0.39333,0.73856 -0.13787,0.12474 -0.49392,0.0662 -0.66499,0.0611 -0.23734,-0.007 -0.46984,-0.0509 -0.70789,-0.0528 -0.34482,-0.003 -0.68977,-1.8e-4 -1.03461,-1.8e-4 m 17.58837,-0.90743 c 0.51169,-0.0766 1.13641,-0.0263 1.51014,0.3708 0.70126,0.74507 0.091,1.75139 -0.80225,1.87982 -0.49255,0.0708 -1.04602,0.0128 -1.40124,-0.37003 -0.64675,-0.69711 -0.22463,-1.74324 0.69335,-1.88059 m 19.27641,0.90743 h -2.5593 c 0.27958,-1.40173 2.10517,-1.05955 2.5593,0 m 27.00876,-0.90743 c 0.54524,-0.0816 1.18246,-0.0175 1.5635,0.4208 0.65101,0.74884 -0.0162,1.70541 -0.85561,1.8238 -0.46559,0.0657 -1.00027,0.0377 -1.35342,-0.31091 -0.69693,-0.6879 -0.31022,-1.7907 0.64553,-1.93369 m 4.84632,-1.4e-4 c 0.48963,-0.0704 1.08356,-0.0348 1.4557,0.32904 0.75037,0.73368 0.15955,1.77483 -0.7478,1.91479 -0.46567,0.0718 -1.04605,0.0409 -1.39534,-0.3162 -0.69529,-0.71084 -0.24488,-1.79351 0.68744,-1.92763 m -117.673228,0.96202 c -0.310214,-0.009 -0.614207,-0.0543 -0.925704,-0.0545 h -0.653437 c -0.102406,1.2e-4 -1.101254,0.0445 -0.775459,0.3194 0.121921,0.10289 0.405407,0.0915 0.557646,0.10553 0.462386,0.0426 1.764788,0.24073 1.796954,-0.37048 m 44.107038,1.08906 -0.0545,0.0545 0.0545,-0.0545 m -134.498641,13.77656 c 0.01363,0.15126 0.013,0.37944 0.146489,0.48192 0.16815,0.12911 0.52553,0.0626 0.724761,0.0626 h 1.90586 8.930315 38.335009 129.544017 32.45407 8.11352 2.01477 c 0.21885,0 0.60595,0.0693 0.77768,-0.10045 0.3765,-0.37214 -0.34392,-0.48492 -0.55987,-0.49529 -0.88532,-0.0425 -1.78182,-0.003 -2.6682,-0.003 H 186.75208 144.33309 31.342823 -4.922967 -16.521485 -20.224299 c -0.697061,0 -1.4362,-0.0704 -2.123672,0.0545 m 205.778411,10.15496 c -1.78667,0.31853 -1.06408,2.64848 0.59899,2.33423 1.76278,-0.33309 1.05051,-2.62828 -0.59899,-2.33423 m -78.63033,4.32929 v 5.1186 c 0,0.306 -0.16993,1.49848 0.17511,1.61115 1.02987,0.33626 0.80505,-0.80821 0.80505,-1.44779 v -5.28196 h 1.63359 l 0.59088,-0.10045 0.0626,-0.71635 c -0.52858,-0.0277 -1.0481,-0.0544 -1.57914,-0.0545 -0.18188,-1e-5 -0.47209,0.0488 -0.61438,-0.0935 -0.13278,-0.13278 -0.094,-0.38995 -0.0935,-0.55993 0.002,-0.61775 0.14505,-1.15511 0.7623,-1.42043 0.59786,-0.25698 1.12707,0.0277 1.68805,0.22246 0.0948,-0.18175 0.29272,-0.48191 0.2253,-0.69511 -0.0655,-0.20716 -0.36908,-0.2934 -0.55202,-0.35212 -0.60003,-0.19256 -1.25919,-0.20888 -1.85141,0.0173 -0.75015,0.28656 -1.16319,0.95672 -1.24154,1.73779 -0.0293,0.29212 0.0746,0.69797 -0.0499,0.9684 -0.19247,0.41786 -0.92913,-0.004 -1.22874,0.23771 -0.16966,0.13691 -0.10037,0.65686 0.0857,0.75783 0.28793,0.15624 0.8635,0.0508 1.18212,0.0508 m 64.1458,6.75219 h 2.12367 c 0.20141,-0.74038 0.0545,-1.68383 0.0545,-2.45039 v -5.00969 -2.06922 c 0,-0.29274 0.069,-0.68824 -0.0225,-0.9684 -0.0651,-0.19926 -0.29743,-0.17421 -0.46762,-0.17506 -0.37034,-0.002 -1.35535,-0.1741 -1.64899,0.0625 -0.17982,0.14492 -0.0586,0.50905 -0.0453,0.69974 0.0439,0.62985 0.006,1.27452 0.006,1.90586 v 8.00461 m 4.24734,-10.67281 v 10.67281 l 2.17813,-0.0545 c 0,-0.87876 -0.16995,-1.67896 0.49012,-2.34149 0.12839,-0.12887 0.44243,-0.57069 0.65874,-0.47608 0.23372,0.10225 0.42741,0.49999 0.58327,0.6939 0.4884,0.60762 1.10741,1.75205 1.80789,2.10814 0.23602,0.11998 0.55977,0.07 0.81623,0.07 h 1.79695 c -0.54369,-1.14742 -1.70881,-2.20955 -2.49318,-3.21273 -0.19619,-0.25092 -0.87023,-0.85909 -0.79251,-1.19797 0.0702,-0.30596 0.51413,-0.59535 0.72015,-0.8168 0.68093,-0.73197 1.79157,-1.50565 2.23882,-2.39594 -0.74899,0.0439 -1.9327,-0.2565 -2.61375,0.0769 -0.34087,0.16687 -0.59737,0.53332 -0.87125,0.78809 -0.73525,0.68398 -1.48135,1.61608 -2.34148,2.12992 v -4.46515 c 0,-0.308 0.16086,-1.31168 -0.0935,-1.51654 -0.14421,-0.11613 -0.44222,-0.0626 -0.61438,-0.0626 h -1.47024 m -49.66126,8.00461 c -0.15008,0.38388 -0.78921,1.3277 -0.66091,1.72246 0.0619,0.19042 0.335,0.30254 0.49755,0.38641 0.51122,0.2638 1.07146,0.44111 1.6336,0.55893 1.95342,0.40948 5.11797,0.36666 5.8932,-1.95991 0.10246,-0.30748 0.18109,-0.65504 0.1886,-0.98016 0.0476,-2.06106 -2.08484,-2.62125 -3.68587,-3.02162 -0.71628,-0.17912 -2.42591,-0.4482 -2.07651,-1.55244 0.17072,-0.53955 0.70228,-0.74794 1.20526,-0.8403 1.29434,-0.23768 2.24666,0.37192 3.43055,0.73139 0.12719,-0.37038 0.70478,-1.31267 0.57038,-1.67568 -0.18288,-0.49394 -1.42626,-0.7009 -1.87725,-0.77902 -1.75333,-0.30366 -4.14056,-0.2666 -5.22107,1.42009 -0.24862,0.3881 -0.41608,0.84421 -0.43882,1.30688 -0.0196,0.39842 -0.0188,0.81709 0.113,1.19797 0.52739,1.52374 2.32669,1.84273 3.69548,2.18495 0.63631,0.15908 1.41573,0.28634 1.8186,0.86461 0.51968,0.74594 -0.50066,1.33001 -1.11071,1.42893 -1.52059,0.24657 -2.65325,-0.39499 -3.97508,-0.99349 m 9.03922,0 c -0.15181,0.38875 -0.80616,1.33567 -0.66498,1.73013 0.0703,0.19655 0.33065,0.2941 0.50162,0.37969 0.51825,0.25942 1.06688,0.43969 1.6336,0.558 2.0288,0.42351 5.08498,0.34864 5.89665,-2.01439 0.10157,-0.29569 0.15811,-0.61298 0.16781,-0.9257 0.0645,-2.07827 -2.11478,-2.64047 -3.72298,-3.04254 -0.70748,-0.17687 -2.36723,-0.44069 -2.02206,-1.53152 0.17393,-0.54964 0.74667,-0.76703 1.25972,-0.85731 1.27112,-0.22366 2.21872,0.39697 3.37609,0.7484 0.14757,-0.37996 0.26389,-0.76977 0.42883,-1.14351 0.0671,-0.15209 0.21512,-0.35919 0.14746,-0.53217 -0.18237,-0.46628 -1.34258,-0.66556 -1.77426,-0.75288 -1.78927,-0.36192 -4.19456,-0.29779 -5.32849,1.39395 -0.25279,0.37716 -0.42799,0.85131 -0.44205,1.30688 -0.0127,0.41081 -0.005,0.80524 0.12761,1.19797 0.52169,1.54229 2.35618,1.8528 3.73707,2.19851 0.59173,0.14816 1.34822,0.29181 1.7433,0.80306 0.55614,0.71964 -0.40194,1.35946 -1.03541,1.46784 -1.57403,0.26929 -2.6516,-0.42114 -4.02953,-0.98441 m -70.40791,-7.35118 v 9.96493 h 1.034609 v -2.28703 c 0,-0.22444 -0.0808,-0.65788 0.09351,-0.8322 0.133075,-0.13307 0.389674,-0.0934 0.559926,-0.0935 h 1.470235 c 1.420793,0 2.897522,-0.10611 3.908408,-1.25261 1.371572,-1.55555 0.704887,-4.22777 -1.131298,-5.06761 -1.737788,-0.79482 -4.072965,-0.43197 -5.935392,-0.43197 m 49.497902,0.0545 3.13687,7.29672 0.81684,1.90586 0.41813,0.71634 1.66922,0.0424 0.54654,-0.14304 0.3996,-0.83353 0.89305,-2.06922 1.75088,-4.08398 1.20504,-2.83156 c -0.49048,-0.13345 -1.07264,-0.0545 -1.57914,-0.0545 -0.19266,0 -0.46354,-0.0448 -0.6348,0.0626 -0.42254,0.26512 -0.64636,1.3419 -0.84786,1.7888 -0.52743,1.16979 -1.01439,2.35999 -1.52024,3.53945 -0.24258,0.56562 -0.4295,1.2566 -0.80882,1.7425 -0.42838,-1.78288 -1.44991,-3.60167 -2.18506,-5.28195 -0.19552,-0.44687 -0.40628,-1.52389 -0.8285,-1.7888 -0.18273,-0.11467 -0.48339,-0.0626 -0.68925,-0.0626 -0.55541,0 -1.20499,-0.0918 -1.7425,0.0545 m 28.96907,-0.0545 -0.0545,1.79696 h 3.21274 v 8.16797 h 2.28703 v -8.16797 h 3.15828 c 0,-0.34135 0.18264,-1.51196 -0.0935,-1.73435 -0.14419,-0.11613 -0.44223,-0.0626 -0.61438,-0.0626 h -1.63359 -6.26211 m 46.50298,2.39594 c -0.27219,0 -0.88426,-0.11473 -1.10446,0.0626 -0.27618,0.2224 -0.0935,1.39301 -0.0935,1.73435 h 1.19797 c 0,1.52425 -0.4707,3.99354 0.71118,5.16964 0.73959,0.73595 1.8947,0.83102 2.88272,0.67887 0.26682,-0.0411 0.87806,-0.13159 0.98872,-0.42771 0.12672,-0.3391 -0.33951,-1.2437 -0.49864,-1.55462 -0.29428,0.073 -0.56314,0.20877 -0.87125,0.21611 -1.26611,0.0301 -0.98015,-1.61401 -0.98015,-2.44869 0,-0.34586 -0.16355,-1.28301 0.0935,-1.54008 0.28681,-0.2868 1.41985,-0.0935 1.81234,-0.0935 v -1.7425 l -1.90585,-0.0545 V 221.474 c -0.52513,0 -1.05466,0.0196 -1.57915,-0.008 -0.15543,-0.008 -0.47362,-0.0861 -0.59082,0.0498 -0.25671,0.29763 -0.0626,1.42004 -0.0626,1.80929 M 86.394764,221.6915 v 1.63359 c -0.29557,0 -1.03339,-0.1344 -1.26633,0.0626 -0.1147,0.097 -0.0581,0.29978 -0.0459,0.42725 0.0557,0.58276 0.86653,0.3814 1.31227,0.3814 v 3.70281 c 0,0.73363 -0.0516,1.532 0.35412,2.17809 0.50688,0.80709 1.55682,0.97128 2.42299,0.79134 0.26248,-0.0545 0.78849,-0.17517 0.87872,-0.47249 0.0595,-0.19597 -0.1176,-0.5858 -0.3421,-0.59856 -0.20892,-0.0119 -0.4451,0.16135 -0.64553,0.21554 -0.50891,0.13762 -1.05658,-0.0122 -1.39674,-0.42754 -0.27644,-0.33749 -0.28386,-0.88649 -0.29073,-1.3052 -0.0149,-0.90704 -5.7e-4,-1.81549 -5.7e-4,-2.72266 0,-0.3006 -0.13354,-1.04075 0.0935,-1.26782 0.14229,-0.14229 0.43251,-0.0935 0.61438,-0.0935 0.50572,-4e-5 1.02021,-0.0287 1.52469,0 l 0.1089,-0.8168 -2.28703,-0.0545 -0.0545,-1.63359 h -0.98016 m -23.142584,5.11859 -0.05445,-5.00969 c 1.490083,0 3.345226,-0.30481 4.68297,0.48482 1.444265,0.8525 1.282707,3.31496 -0.108906,4.1167 -1.261861,0.72698 -3.121291,0.40817 -4.519611,0.40817 m 99.921517,-3.55966 c -0.8914,0.0257 -1.75864,0.19422 -2.50485,0.71853 -3.23412,2.27242 -1.16912,7.24112 2.61375,7.07454 1.18053,-0.052 2.2984,-0.38308 3.15501,-1.24173 1.46649,-1.46995 1.33593,-4.09951 -0.16027,-5.49009 -0.84569,-0.78601 -1.97011,-1.09397 -3.10364,-1.06125 m 29.89477,5.35662 -0.70789,1.63359 c 1.60357,0.79192 3.68633,1.14782 5.39086,0.43448 1.15349,-0.48271 1.997,-1.86071 1.24218,-3.04823 -0.68281,-1.07423 -2.19639,-1.0813 -3.3114,-1.30745 -0.34756,-0.0705 -1.09531,-0.20876 -1.02631,-0.70732 0.0459,-0.33173 0.40898,-0.51557 0.69959,-0.58175 0.66705,-0.1519 1.42902,-0.0739 2.06922,0.15934 0.20835,0.0759 0.57351,0.32223 0.79818,0.25994 0.32928,-0.0913 0.66756,-1.26857 0.72651,-1.58003 -1.49935,-0.63377 -3.34193,-0.93519 -4.90078,-0.30085 -1.17325,0.47744 -1.9559,1.79742 -1.33847,3.02351 0.5632,1.11836 2.06662,1.16173 3.13542,1.37226 0.36118,0.0711 0.84139,0.0981 1.12373,0.36141 0.5109,0.47651 -0.34549,0.91072 -0.74256,0.93126 -1.18786,0.0614 -2.08243,-0.18971 -3.15828,-0.65016 m -39.96861,-5.3123 c -2.86065,0.39367 -4.35598,3.77245 -2.64012,6.12909 0.97541,1.33966 2.6954,1.77226 4.27372,1.55503 3.01426,-0.41483 4.5117,-4.05505 2.48671,-6.40117 -1.00047,-1.15914 -2.65982,-1.48393 -4.12031,-1.28295 m -76.343303,3.29753 c -1.31836,0 -3.19775,-0.33349 -4.356206,0.42444 -1.430213,0.93574 -1.002777,3.08465 0.490036,3.68807 1.55622,0.62906 2.77505,-0.0152 3.97508,-0.95423 -0.0722,0.26549 -0.14747,0.81192 -0.0154,1.06662 0.10091,0.1946 0.74869,0.20723 0.877,0.0378 0.0972,-0.12829 0.0198,-0.35942 0.0129,-0.50547 -0.0189,-0.39782 -0.003,-0.79973 -0.003,-1.19797 0,-1.52078 0.47701,-3.96045 -0.76561,-5.10638 -0.99768,-0.92004 -2.71539,-0.85616 -3.91736,-0.44727 -0.30832,0.10488 -1.355311,0.43838 -1.236288,0.87234 0.257316,0.93821 1.515098,-0.0885 2.161988,-0.21889 0.87919,-0.17727 2.10371,-0.002 2.56664,0.87066 0.23819,0.44908 0.21047,0.97809 0.21047,1.47024 m 3.75727,-3.26719 0.0544,7.56899 c 0.26417,0.023 0.8935,0.20941 0.96841,-0.16887 0.3099,-1.56503 -0.3206,-3.28848 0.14586,-4.84082 0.20936,-0.69671 0.75892,-1.28962 1.44503,-1.53104 0.2661,-0.0937 1.02572,-0.0796 1.15891,-0.34225 0.36711,-0.72387 -0.45337,-0.68191 -0.88664,-0.59425 -0.88338,0.17873 -1.36375,0.69449 -1.96032,1.32402 v -1.41578 h -0.9257 m 17.75172,0.0237 c -3.68764,0.4754 -4.6107,5.77615 -1.08906,7.27882 0.7233,0.30864 1.51698,0.36392 2.28703,0.25666 2.620603,-0.36503 3.785413,-3.45227 2.618333,-5.65334 -0.71693,-1.3521 -2.316633,-2.07547 -3.816303,-1.88214 m 84.347923,-0.0237 v 5.66313 1.36133 l 0.0935,0.53638 0.55992,0.0626 1.52469,-0.0545 c 0,-2.4807 0.32225,-5.10191 0,-7.56899 h -2.17812 m -84.293463,0.88843 c 0.39308,-0.0503 0.81652,-0.0283 1.19797,0.0791 2.943553,0.82828 2.509233,5.41203 -0.49008,5.7679 -3.58299,0.42514 -4.21205,-5.39843 -0.70789,-5.84697 m 55.433293,0.8166 c 2.52087,-0.27914 2.94228,3.89567 0.49008,4.16464 -0.41059,0.045 -0.88313,0.0271 -1.25242,-0.17371 -1.71408,-0.93188 -1.16218,-3.77784 0.76234,-3.99093 m 9.36594,3.8e-4 c 2.4859,-0.25429 2.90664,3.89383 0.49008,4.16423 -0.48929,0.0548 -0.993,0.009 -1.41521,-0.26051 -1.60463,-1.02301 -0.93301,-3.71364 0.92513,-3.90372 m -86.362683,2.43303 c 0,0.46572 0.097,1.05 -0.14097,1.47023 -0.64586,1.14042 -2.70418,1.61099 -3.72134,0.69335 -0.74408,-0.67125 -0.36104,-1.8112 0.54067,-2.0673 0.46833,-0.13301 0.93977,-0.0623 1.41578,-0.11982 0.6266,-0.0757 1.27402,0.0235 1.90586,0.0235 m -99.00795,14.92898 c -0.206783,0.18057 0.02038,0.50676 0.232246,0.53088 0.70674,0.0804 1.464332,0.005 2.17585,0.005 h 8.385784 32.835242 129.053941 37.84493 9.25704 c 0.7613,0 1.52607,0.0211 2.28703,-0.001 0.19175,-0.006 0.67994,0.0164 0.80842,-0.14645 0.24193,-0.30671 -0.21518,-0.44588 -0.42725,-0.45045 -0.77971,-0.0168 -1.56157,-6.1e-4 -2.34149,-6.1e-4 h -9.25703 -37.84493 -128.945036 -32.835242 -8.331331 -2.123672 c -0.19786,0 -0.614462,-0.0772 -0.774502,0.0626 m 168.000093,9.4667 v 5.49976 l -0.0545,2.94047 h 1.79695 v -6.1532 -1.57914 c 0,-0.17214 0.0535,-0.47019 -0.0626,-0.61438 -0.2182,-0.27094 -1.34621,-0.0935 -1.6799,-0.0935 m 30.27595,0 c -0.11574,0.89544 -0.10628,1.98953 0,2.88601 -0.50158,-0.33592 -0.91364,-0.59915 -1.52469,-0.68377 -2.73555,-0.37881 -4.36513,2.98629 -2.78829,5.09448 0.54526,0.72899 1.31025,1.06097 2.1893,1.17424 0.89978,0.11594 1.44142,-0.35979 2.23258,-0.62971 -0.1299,0.99602 0.93397,0.60042 1.6336,0.59898 l -0.0545,-8.44023 h -1.68804 m 6.58883,0 v 6.20765 1.57915 c 0,0.1721 -0.0535,0.46973 0.0624,0.61399 0.20899,0.26013 1.3928,0.0631 1.68007,-0.015 l -0.0545,-0.54453 c 0.90218,0.40023 1.57813,0.81652 2.61375,0.57009 3.43018,-0.81621 2.91261,-6.06261 -0.59898,-6.22999 -0.81074,-0.0386 -1.25944,0.36337 -1.96031,0.65021 0.009,-0.68913 0.0545,-1.37707 0.0545,-2.06922 0,-0.18452 0.0703,-0.56785 -0.0935,-0.69974 -0.30351,-0.24444 -1.31904,-0.0626 -1.70344,-0.0626 m -67.08627,8.49469 c 1.61012,-0.1314 3.32284,0.24827 4.90078,-0.17251 2.75944,-0.73585 4.11043,-4.22183 2.11237,-6.47078 -1.10682,-1.2458 -2.66837,-1.41578 -4.23604,-1.41578 h -2.06922 c -0.18452,0 -0.56785,-0.0703 -0.69974,0.0935 -0.10842,0.13462 -0.0626,0.39957 -0.0626,0.55993 v 1.47023 c 6.7e-4,1.97413 0.0545,3.95716 0.0545,5.9354 m 1.79695,-1.52469 -0.0545,-5.00969 c 0.9138,-0.24862 2.54144,-0.18938 3.32164,0.3791 1.28824,0.93866 1.37223,3.15881 0.10887,4.17149 -0.92618,0.74241 -2.28343,0.4591 -3.37606,0.4591 m 8.71251,-1.08906 4.62851,-0.0545 c 0.0923,-1.05782 -0.1498,-2.14128 -0.98034,-2.8738 -1.72506,-1.52143 -4.68871,-0.70904 -5.31207,1.51247 -0.65003,2.3166 1.37477,4.18016 3.62421,4.02329 0.62077,-0.0433 1.22077,-0.2126 1.7425,-0.55848 0.16822,-0.11152 0.4863,-0.27928 0.40142,-0.52583 -0.0511,-0.14833 -0.18841,-0.26849 -0.29257,-0.37968 -0.13392,-0.14295 -0.2927,-0.39028 -0.49325,-0.44091 -0.30673,-0.0774 -0.71243,0.32047 -1.03138,0.36818 -0.94295,0.14109 -1.93248,-0.0898 -2.28703,-1.07078 m 4.95523,-3.70282 c 0.0992,0.49933 0.37689,0.99671 0.56631,1.47024 0.39987,0.99967 0.80892,1.99527 1.20887,2.99492 0.19278,0.48185 0.38663,1.40529 0.77181,1.75789 0.24065,0.2203 1.46555,0.17976 1.73921,0.0166 0.40887,-0.24375 0.64407,-1.28833 0.80886,-1.72005 0.57293,-1.50086 1.26127,-2.95996 1.82049,-4.46515 -0.34488,-0.0938 -1.35153,-0.20593 -1.65585,0.008 -0.27155,0.19103 -0.40214,0.83525 -0.52228,1.13537 -0.40575,1.01366 -0.85819,2.01069 -1.19797,3.04938 -0.56874,-0.88473 -0.86432,-2.01651 -1.24245,-2.99493 -0.1197,-0.30971 -0.25085,-0.98866 -0.53134,-1.18245 -0.36451,-0.25185 -1.33005,-0.07 -1.76566,-0.07 m 8.98477,3.70282 c 0.78323,-0.0107 1.55742,0 2.34148,0 h 1.52469 c 0.19799,-2.4e-4 0.50343,0.0371 0.66189,-0.11081 0.16944,-0.15816 0.10798,-0.55527 0.0837,-0.76044 -0.0865,-0.72999 -0.37388,-1.44115 -0.90952,-1.9569 -1.63149,-1.57093 -4.64093,-0.94299 -5.35326,1.249 -0.192,0.5908 -0.19987,1.24876 -0.0551,1.85141 0.4296,1.78906 2.32977,2.49152 3.99324,2.29001 0.48862,-0.0592 1.58991,-0.3469 1.77704,-0.88066 0.0953,-0.27195 -0.58584,-0.97037 -0.85152,-0.98078 -0.2925,-0.0114 -0.58399,0.29081 -0.87107,0.35677 -0.86509,0.19881 -2.13429,-0.0477 -2.34148,-1.0576 m 11.65297,-3.6787 c -0.53499,0.0736 -1.06924,0.22996 -1.52469,0.52775 -1.41639,0.92613 -1.82704,3.02149 -0.81887,4.40337 0.71938,0.98604 2.00946,1.49334 3.21481,1.3376 0.51752,-0.0669 1.02701,-0.22488 1.47024,-0.50498 0.37537,-0.23724 0.7084,-0.517 0.95939,-0.88708 1.60095,-2.36064 -0.65674,-5.24055 -3.30088,-4.87666 m 4.95524,-0.0241 v 8.49469 l 1.79695,-0.0545 -0.0545,-2.77711 c 1.23644,0.54857 2.19349,0.96226 3.485,0.19189 2.34489,-1.3987 1.65538,-5.23047 -0.98016,-5.78392 -0.59407,-0.12474 -1.2365,-0.0973 -1.79695,0.15052 -0.28574,0.12636 -0.5153,0.3443 -0.8168,0.43182 l 0.10891,-0.59898 -1.7425,-0.0545 m 9.20258,3.70282 c 0.78047,-0.003 1.56041,0 2.34148,0 h 1.57914 c 0.18717,-2.4e-4 0.46577,0.0353 0.61438,-0.10637 0.16345,-0.15585 0.1029,-0.56233 0.0826,-0.76488 -0.0769,-0.76896 -0.40948,-1.47895 -0.96947,-2.01134 -1.58873,-1.51044 -4.50367,-0.85422 -5.26837,1.19454 -0.20478,0.54866 -0.25393,1.22301 -0.12765,1.79695 0.4042,1.83697 2.23235,2.67439 3.98042,2.45961 0.51255,-0.063 1.63226,-0.31857 1.8315,-0.8869 0.0945,-0.26963 -0.5891,-0.96854 -0.85191,-0.98117 -0.2977,-0.0143 -0.58207,0.29017 -0.87068,0.35712 -0.86177,0.19994 -2.13548,-0.0534 -2.34148,-1.05756 m 23.68711,-3.64836 c 0.677,1.42809 1.26101,2.90251 1.8827,4.35625 0.20505,0.47948 0.74631,1.27446 0.7193,1.79695 -0.031,0.59913 -0.80212,0.88675 -1.29512,0.7524 -0.18636,-0.0508 -0.44408,-0.25435 -0.6389,-0.20767 -0.24613,0.059 -0.6742,0.95002 -0.58492,1.18323 0.0937,0.2449 0.56214,0.3706 0.78819,0.43743 0.89643,0.26506 1.93771,0.0957 2.60732,-0.58968 0.68827,-0.70446 0.96465,-1.77686 1.33686,-2.66477 0.49487,-1.18053 1.01483,-2.35101 1.49023,-3.53946 0.20415,-0.51034 0.50763,-1.03897 0.60989,-1.57914 -0.40821,0 -1.26513,-0.16336 -1.6128,0.0626 -0.2649,0.17218 -0.38984,0.79751 -0.51087,1.08092 -0.39279,0.91971 -0.6929,2.15413 -1.30688,2.94047 -0.32621,-0.99724 -0.76224,-1.97571 -1.17481,-2.94047 -0.12805,-0.29941 -0.25256,-0.89771 -0.5378,-1.08092 -0.33948,-0.21803 -1.39528,-0.11074 -1.77239,-0.008 m -60.44298,2.50484 c -0.77397,0.21057 -2.27541,0.21057 -3.04938,0 0.54484,-1.42776 2.53746,-1.46577 3.04938,0 m 13.88555,0.0545 h -1.19797 c -0.3574,0 -1.43022,0.18163 -1.69959,-0.0626 -0.26152,-0.2371 0.38301,-0.78602 0.55626,-0.88553 0.84506,-0.48538 2.21163,-0.11273 2.3413,0.94813 m 8.87586,-1.12523 c 2.13419,-0.31871 2.55873,3.05407 0.49008,3.33366 -2.03274,0.27473 -2.45998,-3.0395 -0.49008,-3.33366 m 7.7868,0 c 2.15724,-0.32275 2.56798,3.05282 0.49008,3.33366 -2.00271,0.27068 -2.41285,-3.046 -0.49008,-3.33366 m 9.14813,1.07078 c -0.89618,0.24382 -2.06598,0.0545 -2.99493,0.0545 0.19253,-1.5563 2.64095,-1.46834 2.99493,-0.0545 m 5.44531,-1.07078 c 2.13124,-0.31825 2.56473,3.0481 0.49008,3.33362 -2.0165,0.27751 -2.43911,-3.04259 -0.49008,-3.33362 m 11.43516,0 c 2.14622,-0.3211 2.57174,3.0523 0.49008,3.33366 -2.00076,0.27041 -2.4053,-3.04713 -0.49008,-3.33366 m -55.50314,8.81127 c -0.13833,0.1114 -0.0934,0.38119 -0.0935,0.53639 v 1.36133 5.2275 c 0,0.34413 -0.089,1.89843 0.72329,1.24427 0.1383,-0.11138 0.0934,-0.3812 0.0935,-0.53638 v -1.36133 -5.2275 c 0,-0.34414 0.0889,-1.89843 -0.72328,-1.24428 m 17.60375,8.43209 c 0.18494,0 0.51537,0.061 0.66884,-0.0626 0.14742,-0.11873 0.0935,-0.42547 0.0935,-0.59084 v -1.68804 c 0,-0.74697 0.089,-1.57127 -0.16984,-2.28703 -0.44542,-1.23157 -1.84563,-1.68772 -3.0429,-1.37323 -0.58845,0.15457 -1.01815,0.49099 -1.47023,0.88315 v -3.3761 c -0.20249,0 -0.66507,-0.0861 -0.77774,0.13136 -0.19338,0.37329 0.0154,1.28898 0.0154,1.72005 v 4.51961 1.52469 c 7e-5,0.15517 -0.0448,0.42501 0.0935,0.53638 0.38226,0.30785 0.66706,-0.0879 0.66878,-0.42748 0.006,-1.16401 -0.34083,-3.03073 0.37235,-4.02953 0.72589,-1.01658 2.43496,-1.29228 3.20041,-0.16279 0.396,0.58432 0.34791,1.44402 0.34791,2.1231 v 2.5593 m 7.67851,-8.44865 c -0.65594,0.25861 -0.23177,1.20321 0.38037,0.98211 0.72111,-0.26045 0.28762,-1.24548 -0.38037,-0.98211 m -57.775394,0.38959 c 0.17002,0.68438 0.57653,1.36513 0.8558,2.01476 0.61778,1.43706 1.2583,2.86423 1.874834,4.3018 0.25444,0.59327 0.48959,1.83814 1.29867,1.73397 0.58666,-0.0755 0.89867,-1.41796 1.10474,-1.89733 0.8583,-1.99656 2.02228,-4.02259 2.65276,-6.09875 -1.03064,-0.2804 -1.14986,0.71716 -1.48744,1.47024 -0.80743,1.80122 -1.66013,3.6074 -2.37874,5.44531 -0.94483,-1.53531 -1.51696,-3.46054 -2.232714,-5.1186 -0.19419,-0.44983 -0.43929,-1.50878 -0.84781,-1.7888 -0.2027,-0.13894 -0.6046,-0.0626 -0.8401,-0.0626 m 38.062744,6.47992 c -0.36963,0.90515 0.69764,1.20068 1.41578,1.3997 1.29887,0.35996 3.23318,0.29319 3.99804,-1.01853 0.1535,-0.26324 0.2394,-0.56746 0.24778,-0.87125 0.0501,-1.81846 -1.91607,-2.06151 -3.26566,-2.44272 -0.51563,-0.14564 -1.08912,-0.30095 -1.4073,-0.77153 -0.55109,-0.81504 0.10803,-1.68706 0.91722,-1.93927 1.20483,-0.37552 2.08362,0.10302 3.15828,0.57946 0.0722,-0.18674 0.22249,-0.44409 0.16654,-0.6496 -0.12771,-0.46896 -1.17969,-0.63731 -1.58232,-0.69511 -1.24801,-0.17918 -2.91972,-0.0237 -3.51382,1.29026 -0.11331,0.25058 -0.18252,0.54083 -0.18252,0.81679 -5e-5,2.57628 3.50489,1.63062 4.65141,3.1044 0.4272,0.54915 0.19371,1.31805 -0.35666,1.68647 -0.65955,0.4415 -1.58685,0.4766 -2.34091,0.31584 -0.70788,-0.1509 -1.24151,-0.62798 -1.90586,-0.80491 m -17.69727,-5.82648 v 1.30687 c -0.69699,0 -1.13128,-0.1551 -1.08906,0.65344 h 1.08906 v 3.10383 c 0,0.54906 -0.0583,1.1465 0.24539,1.63341 0.39059,0.6263 1.25117,0.8039 1.93274,0.65196 0.24699,-0.0551 0.67892,-0.17307 0.6814,-0.48985 10e-4,-0.17375 -0.11893,-0.35084 -0.30409,-0.34361 -0.60644,0.0237 -1.25246,0.49733 -1.64889,-0.30897 -0.20259,-0.41205 -0.14421,-0.97033 -0.14421,-1.41521 v -2.77711 l 1.30688,-0.0545 0.48193,-0.0935 0.0626,-0.50548 c -0.34001,-0.005 -1.58827,0.0967 -1.78144,-0.18581 -0.18343,-0.26825 -0.07,-0.86166 -0.07,-1.17551 h -0.76234 m 58.80939,1.30687 c -0.62384,0 -1.23679,-0.16071 -1.08906,0.65344 0.25603,0 0.79986,-0.10218 0.99555,0.0935 0.22088,0.2209 0.0935,0.92195 0.0935,1.21336 0,0.95955 -0.26123,2.38083 0.14672,3.26719 0.31888,0.69287 1.15425,0.95626 1.86805,0.84619 0.30524,-0.0471 0.95134,-0.19066 0.82922,-0.62627 -0.1249,-0.44555 -0.60431,-0.11941 -0.88368,-0.0556 -0.36136,0.0826 -0.77905,-0.0818 -0.99185,-0.38564 -0.25447,-0.36338 -0.20612,-0.93632 -0.20612,-1.35787 v -2.94047 l 1.30688,-0.0545 0.48193,-0.0935 0.0626,-0.50548 -1.30687,-0.0545 -0.4642,-0.11469 -0.0803,-1.19213 -0.71616,0.0626 -0.0462,1.24427 m -66.48728,2.61375 c -1.07137,0 -2.68187,-0.30429 -3.59239,0.37217 -1.18802,0.88262 -0.51646,2.58589 0.70637,2.9832 0.69682,0.22641 1.53627,0.16561 2.17813,-0.194 0.27713,-0.15528 0.47888,-0.40538 0.76234,-0.54762 -0.0282,0.21587 -0.12171,0.53466 -0.0154,0.73989 0.0931,0.17975 0.5941,0.19963 0.7119,0.0378 0.16332,-0.22429 0.0114,-1.0347 0.0114,-1.32227 0,-1.20906 0.33361,-2.98033 -0.51052,-3.97356 -0.73274,-0.86216 -2.14792,-0.81987 -3.13784,-0.52116 -0.28044,0.0846 -1.16121,0.3395 -1.06258,0.73889 0.16484,0.66745 1.27314,-0.0871 1.71602,-0.18248 1.38418,-0.29807 2.2298,0.517 2.23258,1.86909 m 2.99492,3.485 c 0.18615,0 0.56778,0.0703 0.69974,-0.0935 0.19528,-0.24249 0.0626,-0.96714 0.0626,-1.26782 0,-1.0305 -0.21573,-2.37993 0.42663,-3.267 0.26648,-0.36801 0.66607,-0.59912 1.09806,-0.72073 0.19908,-0.056 0.60789,-0.0405 0.6854,-0.2758 0.18008,-0.54657 -0.41313,-0.45895 -0.73985,-0.39265 -0.6651,0.13494 -1.0958,0.56901 -1.52469,1.06228 3e-5,-0.26929 0.13855,-0.76934 0.0152,-1.00624 -0.0974,-0.18707 -0.63528,-0.21619 -0.72087,-0.006 -0.17093,0.41997 -0.002,1.25922 -0.002,1.72005 v 4.24734 m 13.66774,-1.03461 c 0,0.75127 -0.0647,1.03461 0.76234,1.03461 0.0566,-1.98857 0.25836,-4.12033 0,-6.09875 -0.18495,0 -0.51535,-0.061 -0.66883,0.0626 -0.26495,0.21339 -0.0935,1.30193 -0.0935,1.62545 0,1.26544 0.18128,3.04691 -1.30688,3.58743 -0.25058,0.091 -0.54874,0.16845 -0.81679,0.1498 -2.07119,-0.14411 -1.7425,-2.52703 -1.7425,-4.0095 0,-0.34344 0.11738,-2.03032 -0.72329,-1.35318 -0.16752,0.13494 -0.0753,0.46696 -0.0557,0.64529 0.0591,0.53573 0.0166,1.09494 0.0166,1.6336 0,0.87446 -0.10863,1.88246 0.35463,2.6682 0.96466,1.63624 3.15977,1.2111 4.27389,0.0545 m 23.68711,-5.06414 v 4.79188 c 0,0.40231 -0.17705,1.68671 0.63099,1.26781 0.23758,-0.12317 0.13136,-0.71867 0.13136,-0.94109 0,-0.91931 -0.066,-1.86581 0.0724,-2.77711 0.18483,-1.21744 1.06112,-1.30563 1.98506,-1.71013 0.17905,-0.0784 0.2227,-0.33251 0.13604,-0.50001 -0.11252,-0.21754 -0.4866,-0.11242 -0.66881,-0.0695 -0.70675,0.16663 -1.04726,0.58183 -1.57915,1.02716 8e-5,-0.75789 0.17392,-1.08906 -0.70789,-1.08906 m 5.33641,0 c -0.19336,0 -0.67562,-0.0869 -0.77449,0.13136 -0.13136,0.28999 0.0121,0.95556 0.0121,1.28442 v 3.21274 c 0,0.32117 -0.14492,1.11904 0.0626,1.37672 0.13705,0.17018 0.60584,0.1372 0.67729,-0.0816 0.17759,-0.54391 0.0224,-1.3763 0.0224,-1.94856 v -1.57914 -2.39594 m 1.19797,0 c 0.0958,0.78484 0.68185,1.66619 0.9956,2.39594 0.39822,0.92618 0.80157,1.85024 1.198,2.77711 0.12284,0.28721 0.23632,0.83457 0.58737,0.9095 0.70184,0.1498 0.83712,-0.44648 1.06796,-0.96395 0.51534,-1.15525 0.98722,-2.3304 1.50468,-3.48501 0.16961,-0.37843 0.32451,-0.76314 0.48984,-1.14351 0.05,-0.11505 0.17021,-0.31788 0.049,-0.42748 -0.54408,-0.49215 -0.89886,0.55579 -1.03071,0.8631 -0.60024,1.39897 -1.22909,2.7869 -1.8124,4.1929 -0.71679,-1.03165 -1.1246,-2.43602 -1.61005,-3.59391 -0.15879,-0.37873 -0.34698,-1.23434 -0.70154,-1.46209 -0.19069,-0.12248 -0.52068,-0.0626 -0.73779,-0.0626 m 10.94508,2.61375 c -1.07444,0 -2.67998,-0.30569 -3.59239,0.37217 -1.01742,0.75587 -0.66923,2.42089 0.43411,2.88816 1.22335,0.51809 2.17036,0.0668 3.15828,-0.64658 v 0.87125 c 0.19648,0 0.56079,0.0683 0.72329,-0.0626 0.12837,-0.10339 0.0933,-0.33746 0.0935,-0.48193 v -1.36133 c 0,-1.45696 0.26296,-3.5628 -1.52469,-4.0673 -0.8398,-0.23699 -1.76109,-0.13172 -2.5593,0.20227 -0.33157,0.13874 -0.92102,0.37186 -0.58329,0.80329 0.24602,0.31428 1.06739,-0.24904 1.40009,-0.33431 1.44058,-0.3692 2.45023,0.32467 2.45039,1.81691 m 2.39594,2.17813 c -0.42329,0.79002 0.35162,0.98848 1.03461,1.16347 1.02022,0.26142 2.57102,0.27404 3.2632,-0.67491 0.14258,-0.19549 0.24732,-0.40888 0.26939,-0.65192 0.15479,-1.70504 -1.68382,-1.70363 -2.87915,-2.02393 -0.45479,-0.12187 -1.02386,-0.40939 -0.94934,-0.971 0.14827,-1.11755 1.69841,-1.02595 2.47402,-0.79191 0.2199,0.0664 0.57154,0.30914 0.80227,0.24827 0.20711,-0.0546 0.28757,-0.36874 0.34125,-0.54542 -0.94737,-0.5273 -2.29492,-0.76355 -3.32164,-0.33213 -0.82194,0.34537 -1.42534,1.3099 -0.94634,2.18354 0.71413,1.3025 2.51035,0.59224 3.44266,1.48491 0.53811,0.51524 0.0409,1.21617 -0.53601,1.39764 -1.16642,0.36693 -1.92573,-0.25378 -2.99492,-0.48661 m 14.37563,-2.17813 c -1.05786,0 -2.62382,-0.29548 -3.53797,0.33467 -1.04968,0.72358 -0.77403,2.39006 0.32523,2.90198 1.2185,0.56744 2.22365,0.0913 3.21274,-0.6229 0,0.21369 -0.0617,0.54568 0.0391,0.73989 0.0949,0.1831 0.57455,0.19266 0.70331,0.0441 0.20819,-0.24019 0.0744,-0.97358 0.0744,-1.27407 0,-1.15497 0.28564,-2.87072 -0.42674,-3.86613 -0.70871,-0.99027 -2.15986,-1.00076 -3.22162,-0.69877 -0.28758,0.0818 -1.20603,0.34792 -1.11952,0.75462 0.14146,0.66498 1.29387,-0.0943 1.71851,-0.18209 1.38824,-0.28717 2.23239,0.51431 2.23258,1.8687 m 1.90586,-2.61375 c 0.0954,0.78159 0.68271,1.66816 0.9956,2.39594 0.39819,0.92618 0.80159,1.85024 1.198,2.77711 0.12284,0.28721 0.23629,0.83457 0.58736,0.9095 0.70183,0.14978 0.83714,-0.44646 1.06795,-0.96395 0.51529,-1.15525 0.98729,-2.33038 1.5047,-3.48501 0.16966,-0.37861 0.33632,-0.76045 0.49574,-1.14351 0.048,-0.11526 0.16238,-0.31966 0.0431,-0.42748 -0.54419,-0.49198 -0.8988,0.55565 -1.03071,0.8631 -0.6002,1.39898 -1.22905,2.78691 -1.8124,4.1929 -0.71674,-1.03169 -1.12461,-2.436 -1.61003,-3.59391 -0.15876,-0.37873 -0.34704,-1.23437 -0.70157,-1.46209 -0.19069,-0.12248 -0.52065,-0.0626 -0.73777,-0.0626 m 10.94508,2.61375 c -1.07441,0 -2.67998,-0.30569 -3.59239,0.37217 -1.01744,0.7559 -0.66923,2.42088 0.43411,2.88816 1.22336,0.5181 2.17033,0.0668 3.15828,-0.64658 0,0.70792 0.0225,0.87125 0.76234,0.87125 0.0363,-1.27385 0.16123,-2.59413 0.0166,-3.86617 -0.0684,-0.60125 -0.17333,-1.17767 -0.62241,-1.62674 -0.77835,-0.77832 -2.18682,-0.7121 -3.15142,-0.38266 -0.25339,0.0865 -0.99085,0.30779 -0.96995,0.65183 0.0463,0.76192 1.37542,-0.0634 1.78674,-0.14086 1.36835,-0.25768 2.17794,0.55441 2.17813,1.8796 m -87.45174,0.65344 c 0,0.39498 0.0544,0.83837 -0.14273,1.19797 -0.49674,0.90625 -2.27379,1.37661 -3.04492,0.52999 -0.56357,-0.61874 -0.10183,-1.52126 0.62835,-1.68914 0.29844,-0.0686 0.62159,-0.0388 0.9257,-0.0388 h 1.6336 m 57.82923,0 c 0,0.38326 0.0749,0.85333 -0.12511,1.19797 -0.51757,0.892 -2.15663,1.3379 -2.97169,0.58431 -0.65556,-0.60614 -0.2468,-1.54126 0.5375,-1.73901 0.29712,-0.0749 0.62179,-0.0433 0.92571,-0.0433 h 1.63359 m 16.77157,0 c 0,0.39057 0.0688,0.8455 -0.13204,1.19797 -0.51058,0.8961 -2.15214,1.33564 -2.96476,0.58431 -0.65454,-0.6052 -0.24953,-1.54187 0.5375,-1.73208 0.30143,-0.0728 0.61805,-0.0502 0.9257,-0.0502 h 1.6336 m 12.85094,0 c 0,0.39057 0.0688,0.8455 -0.13204,1.19797 -0.51058,0.89611 -2.15212,1.33563 -2.96474,0.58431 -0.65456,-0.60518 -0.24956,-1.54187 0.53748,-1.73208 0.30141,-0.0728 0.61808,-0.0502 0.9257,-0.0502 h 1.6336 M 79.642696,283.22369 c -0.0209,0.39436 -0.1107,1.09677 -0.59902,1.19021 -0.42045,0.0805 -1.02621,-0.9499 -1.08638,-1.29912 -0.0621,-0.36046 0.32015,-0.93803 0.40449,-1.30688 0.18192,-0.79567 -0.0308,-1.97188 0.41301,-2.66744 0.21377,-0.33503 0.61058,-0.37773 0.8679,-0.6542 -0.84797,0 -1.90424,-0.1682 -2.72266,0.0545 v 0.0544 c 0.32594,0.0906 0.69767,0.0605 0.96781,0.29739 0.96577,0.84704 0.31295,2.9812 -0.0966,3.94995 -0.55615,-0.8388 -0.89277,-1.8423 -1.38487,-2.72265 -0.21454,-0.38382 -0.66603,-0.96181 -0.70149,-1.40453 -0.0209,-0.26139 0.42904,-0.52837 0.57744,-0.71919 0.51504,-0.66221 0.72014,-1.80297 -0.17969,-2.26056 -1.17848,-0.59929 -2.55946,0.84351 -2.49746,1.98834 0.0201,0.37143 0.41789,1.13374 0.25742,1.45613 -0.19337,0.38843 -0.9754,0.7301 -1.29881,1.04928 -1.097475,1.08312 -1.51738,2.79311 -0.320321,4.02569 0.797051,0.82071 2.294951,1.02822 3.369661,0.73003 0.31969,-0.0887 0.78102,-0.5233 1.08906,-0.49908 0.24587,0.0193 0.4415,0.34007 0.65344,0.45231 0.35386,0.18742 0.86874,0.17756 1.25242,0.0994 0.55723,-0.11347 1.69821,-1.24389 1.03461,-1.81402 m -4.13844,-7.43792 c 1.41816,-0.21919 1.29243,2.35541 0.11275,2.55987 -0.29066,0.0504 -0.41539,-0.47897 -0.49388,-0.67618 -0.22548,-0.56652 -0.54563,-1.74046 0.38113,-1.88369 m 27.172124,3.08166 c -0.61744,0 -1.17861,-0.14018 -1.03461,0.65344 0.25603,0 0.79986,-0.10218 0.99555,0.0935 0.19519,0.19519 0.0935,0.7417 0.0935,0.99555 v 2.77711 c 0,0.30801 -0.16084,1.31169 0.0935,1.51654 0.15349,0.12361 0.48387,0.0626 0.66884,0.0626 v -5.39087 c 0.36916,-0.0105 1.47492,0.10902 1.75095,-0.11705 0.13946,-0.11422 0.10011,-0.37752 0.10045,-0.53638 l -1.8514,-0.0545 c -0.0514,-0.59297 -0.0707,-1.28472 0.54457,-1.59976 0.36785,-0.18835 1.66519,0.30739 1.54869,-0.35268 -0.0424,-0.24035 -0.36979,-0.31778 -0.56858,-0.36489 -0.54134,-0.12828 -1.15148,-0.10495 -1.6334,0.2039 -0.73266,0.46955 -0.66803,1.34803 -0.70808,2.11343 m 16.06367,6.09876 c 0.18494,0 0.51537,0.061 0.66884,-0.0626 0.2702,-0.21761 0.0935,-1.34864 0.0935,-1.67989 0,-1.34546 -0.1736,-3.02695 1.41578,-3.5517 0.23661,-0.0781 0.51161,-0.14984 0.76234,-0.137 2.07596,0.10627 1.7425,2.56717 1.7425,4.01541 0,0.31627 -0.12847,1.99531 0.66884,1.35318 0.14742,-0.11871 0.0935,-0.42547 0.0935,-0.59083 v -1.7425 c 0,-0.91689 0.10113,-1.90964 -0.40857,-2.72266 -0.99057,-1.58003 -3.1891,-1.02864 -4.2744,0.0545 v -3.43054 l -0.71487,0.0626 -0.0489,0.53638 10e-4,1.47024 v 6.42547 m 20.09321,-0.0545 -2.77711,-3.5939 c 0.68493,-0.37425 1.2476,-1.13888 1.79696,-1.68805 0.23005,-0.22998 0.54364,-0.45 0.65343,-0.76235 -0.27848,0.0163 -0.60653,-0.0572 -0.87125,0.046 -0.3653,0.14233 -0.64524,0.55812 -0.9257,0.81901 -0.8057,0.7495 -1.68462,1.90862 -2.6682,2.40218 0.16584,-0.7353 0.0545,-1.58936 0.0545,-2.34148 v -1.47024 c 0,-0.49474 0.13128,-1.20548 -0.0225,-1.67629 -0.0775,-0.23724 -0.64299,-0.26033 -0.75529,-0.0437 -0.21369,0.41208 -0.0391,1.31208 -0.0391,1.7745 v 4.51961 1.52468 c 2.7e-4,0.15839 -0.0386,0.41732 0.13136,0.50548 1.00987,0.52364 0.56635,-1.2382 0.7245,-1.64842 0.11437,-0.29667 0.49335,-0.54428 0.72328,-0.75227 0.14514,-0.13126 0.46749,-0.53036 0.6898,-0.43921 0.23795,0.0976 0.44525,0.50354 0.59835,0.70083 0.65847,0.84856 1.43947,2.46305 2.68693,2.12367 m 1.25242,0.0545 c 0.18495,0 0.51537,0.061 0.66884,-0.0626 0.2702,-0.21761 0.0935,-1.34866 0.0935,-1.67989 0,-1.34546 -0.1736,-3.02695 1.41578,-3.5517 0.23661,-0.0781 0.51162,-0.14984 0.76234,-0.137 2.07596,0.10627 1.7425,2.56717 1.7425,4.01541 0,0.31627 -0.12847,1.99529 0.66884,1.35318 0.1474,-0.11871 0.0935,-0.42547 0.0935,-0.59083 v -1.7425 c 0,-0.91689 0.10113,-1.90964 -0.40857,-2.72266 -0.99134,-1.58128 -3.18981,-1.02796 -4.2744,0.0545 v -3.43054 l -0.71487,0.0626 -0.0489,0.53638 0.001,1.47024 v 6.42547 m 28.80572,-8.49469 v 6.69773 c 0,0.47923 -0.12651,1.16565 0.0224,1.62184 0.0704,0.21574 0.54114,0.24906 0.69759,0.11251 0.1988,-0.1735 0.0423,-1.19034 0.0423,-1.46208 0,-1.59309 -0.0947,-3.79391 2.06922,-3.90652 2.25967,-0.11759 1.8514,2.79383 1.8514,4.23324 0,0.3461 -0.0558,1.76278 0.72329,1.13536 0.15585,-0.12552 0.0935,-0.47017 0.0935,-0.64529 v -1.90586 c 0,-0.74316 0.0273,-1.54452 -0.30087,-2.23257 -0.60042,-1.25871 -2.20982,-1.51442 -3.40194,-1.00761 -0.40187,0.17084 -0.68831,0.48395 -1.03461,0.73534 v -3.37609 h -0.76234 m 16.11812,8.44023 c -0.0848,-0.46718 -0.18986,-1.30307 0.0611,-1.73176 0.14355,-0.24516 0.44052,-0.4213 0.64676,-0.61148 0.1586,-0.14622 0.49806,-0.57423 0.74554,-0.44347 0.23345,0.12335 0.42154,0.46061 0.58309,0.66304 l 1.17622,1.47023 c 0.16341,0.20428 0.33251,0.51147 0.56261,0.64529 0.23701,0.13785 0.64201,0.0626 0.90762,0.0626 -0.1131,-0.35485 -0.42437,-0.63669 -0.65306,-0.92571 -0.44057,-0.55679 -0.86673,-1.12615 -1.30095,-1.68805 -0.17601,-0.22775 -0.71961,-0.71767 -0.63299,-1.03312 0.0714,-0.26016 0.441,-0.4938 0.62672,-0.67671 0.54235,-0.53414 1.34402,-1.09039 1.68802,-1.77517 -0.27692,0.0149 -0.60731,-0.0592 -0.87125,0.0389 -0.40795,0.15158 -0.78835,0.64091 -1.08906,0.94128 -0.73496,0.73413 -1.59425,1.78951 -2.50485,2.28703 0.07,-0.80234 0,-1.59062 0,-2.39594 v -1.47023 c 0,-0.43637 0.16288,-1.27613 -0.0391,-1.66559 -0.10239,-0.19746 -0.62812,-0.19604 -0.73168,0 -0.0968,0.18328 -0.0113,0.43751 0.002,0.63098 0.0326,0.46825 0.006,0.94647 0.006,1.41578 v 4.24735 c 0,0.55676 -0.15037,1.36479 0.0224,1.8941 0.0917,0.28091 0.58401,0.17788 0.79435,0.12066 m 6.08336,-8.37763 c -0.13829,0.11138 -0.0934,0.3812 -0.0935,0.53638 v 1.36133 5.2275 c 0,0.34416 -0.0889,1.8984 0.72328,1.24427 0.13829,-0.11136 0.0934,-0.38121 0.0935,-0.53638 v -1.36133 -5.2275 c 0,-0.34416 0.089,-1.8984 -0.72329,-1.24427 M 82.962776,276.9072 v 6.09875 1.36133 l 0.0935,0.53638 0.72329,0.0626 0.0544,-2.61376 c 0.38519,0.0846 0.85353,0 1.25242,0 1.03277,0 2.03405,0.0962 2.94047,-0.49743 1.35659,-0.88846 1.52718,-3.06037 0.32029,-4.16033 -1.3169,-1.20023 -3.74611,-0.78755 -5.38443,-0.78755 m 33.543144,1.36133 c 0.0436,-0.1762 0.17176,-0.41031 0.11653,-0.59213 -0.12939,-0.42601 -0.99885,-0.57614 -1.36896,-0.64935 -1.18002,-0.23345 -2.70537,-0.1783 -3.508,0.86035 -0.17585,0.22757 -0.28354,0.48441 -0.35059,0.7623 -0.54604,2.26296 2.31956,2.42481 3.74969,2.96423 0.51297,0.19348 1.04682,0.57554 1.08068,1.17421 0.0998,1.76523 -2.60021,1.5896 -3.63998,1.19361 -0.30165,-0.11488 -1.05535,-0.76782 -1.27726,-0.37068 -0.35442,0.63426 1.02837,1.05176 1.44062,1.16776 1.29686,0.36494 3.21179,0.31441 4.0193,-0.95608 0.15988,-0.25157 0.25304,-0.57513 0.27606,-0.87125 0.20834,-2.67924 -3.39566,-1.77692 -4.60052,-3.16472 -0.4585,-0.52812 -0.28635,-1.34443 0.25222,-1.74506 0.56326,-0.41901 1.33781,-0.52546 2.01325,-0.41001 0.6451,0.11025 1.17285,0.51278 1.79696,0.63682 m 45.08719,5.11859 c -0.48323,0.84896 0.62135,1.20183 1.30688,1.3813 1.27655,0.33419 3.18373,0.36909 3.99755,-0.89126 0.17832,-0.27618 0.29183,-0.59646 0.30273,-0.92566 0.008,-0.25105 0.0209,-0.52169 -0.0613,-0.76234 -0.69766,-2.04222 -3.7297,-0.95533 -4.65843,-2.61376 -0.41809,-0.74659 0.19706,-1.57159 0.9095,-1.80922 1.20347,-0.40143 2.14384,0.0355 3.21273,0.5568 l 0.27227,-0.70789 c -1.10407,-0.72025 -2.67544,-0.94498 -3.92063,-0.46592 -1.07632,0.41409 -1.8067,1.63051 -1.26033,2.75295 0.82218,1.68909 3.25182,0.96514 4.39108,2.19535 0.76419,0.82519 -0.0337,1.7944 -0.89817,2.04914 -0.82461,0.24301 -1.77673,0.12547 -2.5593,-0.20912 -0.36111,-0.15438 -0.66782,-0.41922 -1.03461,-0.55037 m -77.759084,-1.68804 -0.0544,-4.13844 c 1.15548,0 2.67351,-0.23148 3.70281,0.4087 1.22792,0.76372 1.05618,2.86988 -0.21781,3.48346 -0.98993,0.47677 -2.3587,0.24628 -3.43055,0.24628 m 7.84125,-1.7425 c 1.6e-4,-0.26258 0.13398,-0.7237 0.0152,-0.95771 -0.0915,-0.18024 -0.58735,-0.19852 -0.70435,-0.0378 -0.18536,0.25457 -0.0187,1.16117 -0.0187,1.48563 v 2.88601 c 0,0.44754 -0.0752,0.97104 0.0118,1.41028 0.0496,0.25041 0.47335,0.30868 0.65708,0.16071 0.20989,-0.16903 0.0935,-0.83632 0.0935,-1.08091 0,-0.95337 -0.12255,-2.01711 0.15995,-2.94047 0.16178,-0.52875 0.57813,-0.9658 1.09247,-1.16561 0.23161,-0.09 0.81814,-0.0982 0.94108,-0.33281 0.25222,-0.48129 -0.29913,-0.53658 -0.61436,-0.46724 -0.72444,0.15936 -1.10011,0.56545 -1.6336,1.03996 m 5.82649,-1.06405 c -0.53818,0.0812 -1.02647,0.25705 -1.47019,0.57743 -2.50389,1.80785 -0.62713,5.92833 2.34144,5.47125 3.158734,-0.48637 3.469504,-5.29095 0.27227,-5.98247 -0.37434,-0.081 -0.76239,-0.1237 -1.14352,-0.0662 m 29.077984,3.29663 c 1.1427,-0.25777 2.53168,-0.0545 3.70281,-0.0545 0.26822,0 1.12142,0.13857 1.29724,-0.0935 0.10959,-0.14467 0.0124,-0.45251 -0.0148,-0.61438 -0.106,-0.63046 -0.34271,-1.2004 -0.7722,-1.68161 -1.06146,-1.18926 -3.11649,-1.13533 -4.18796,0.004 -1.89068,2.0112 -0.2627,5.21627 2.37087,5.21627 0.61511,0 1.22795,-0.17688 1.74245,-0.51497 0.25307,-0.1663 0.5416,-0.42496 0.28387,-0.72472 -0.27255,-0.31703 -1.32107,0.47342 -1.75405,0.52088 -1.50296,0.16477 -2.24703,-0.76781 -2.6682,-2.05794 m 24.88508,-0.7079 c -1.07135,0 -2.68187,-0.30429 -3.59239,0.37218 -1.188,0.88261 -0.51644,2.58588 0.70637,2.98319 0.69682,0.22642 1.53627,0.16561 2.17813,-0.194 0.27714,-0.15528 0.47887,-0.40537 0.76234,-0.54761 -0.0282,0.21587 -0.1217,0.53466 -0.0154,0.73989 0.0931,0.17976 0.5941,0.19961 0.7119,0.0378 0.16332,-0.22428 0.0114,-1.0347 0.0114,-1.32227 0,-1.20619 0.33159,-2.98269 -0.51052,-3.97356 -0.735,-0.86482 -2.14506,-0.82073 -3.13784,-0.52116 -0.28045,0.0846 -1.16121,0.33951 -1.06258,0.73889 0.16484,0.66745 1.27314,-0.0871 1.71602,-0.18247 1.38523,-0.2983 2.2298,0.51458 2.23258,1.86908 m 2.94047,-2.61375 v 4.90079 c 0,0.3461 -0.0558,1.76278 0.72329,1.13536 0.1978,-0.1593 0.0935,-0.74389 0.0935,-0.972 0,-0.86596 -0.10702,-1.81201 0.0251,-2.66821 0.17484,-1.1335 0.96686,-1.44924 1.93121,-1.75819 0.20832,-0.0667 0.31887,-0.24805 0.22233,-0.46267 -0.11886,-0.26425 -0.49438,-0.16211 -0.70837,-0.10435 -0.66279,0.17894 -1.06907,0.51948 -1.52469,1.01834 0,-0.7635 0.0903,-1.08907 -0.76234,-1.08907 m 26.68204,5.06415 h 0.0545 v 1.03461 h 0.76235 v -6.09876 c -0.19354,0 -0.6109,-0.0778 -0.74665,0.0935 -0.18057,0.22786 -0.0157,1.02655 -0.0157,1.32227 0,1.18262 0.20921,2.81335 -0.87129,3.61202 -0.91511,0.67644 -2.39031,0.44695 -2.82642,-0.67155 -0.34294,-0.87958 -0.16846,-2.01306 -0.16846,-2.94047 0,-0.50908 0.23182,-1.67847 -0.64169,-1.39333 -0.21465,0.0701 -0.17482,0.34251 -0.17511,0.52208 v 1.52468 c 0,1.06177 -0.12132,2.32494 0.58337,3.21125 0.8986,1.13022 3.31507,1.13082 4.04515,-0.21632 m 16.66266,-2.4504 c -1.0549,0 -2.62556,-0.29429 -3.53797,0.33467 -1.08103,0.7452 -0.74995,2.42849 0.37969,2.91872 1.21703,0.52818 2.17286,0.0719 3.15828,-0.63963 0,0.70791 0.0225,0.87125 0.76234,0.87125 0.0363,-1.27386 0.16123,-2.59413 0.0166,-3.86618 -0.0684,-0.60123 -0.17333,-1.17768 -0.62241,-1.62673 -0.77833,-0.7783 -2.18685,-0.71216 -3.15142,-0.38266 -0.25392,0.0867 -0.97801,0.31153 -0.96405,0.65187 0.0312,0.76077 1.37646,-0.0648 1.78084,-0.14091 1.36835,-0.25768 2.17794,0.55442 2.17813,1.8796 M 74.032646,279.30265 c 0.42824,0.61498 0.70453,1.35032 1.04922,2.01477 0.2541,0.48983 0.50205,0.98861 0.77128,1.47023 0.18849,0.33722 0.68203,0.96984 0.68505,1.35489 0.004,0.52838 -1.22792,0.73157 -1.57985,0.55679 -0.56389,-0.28003 -0.97805,-0.937 -1.2638,-1.47605 -0.72895,-1.37515 -1.11184,-2.90641 0.3381,-3.92063 m 23.74157,0.23517 c 2.881694,-0.34328 3.163304,4.41077 0.32672,4.73368 -1.89027,0.21518 -2.94089,-2.00323 -2.15541,-3.55307 0.35702,-0.70442 1.06484,-1.08962 1.82869,-1.18061 m 33.053054,1.94295 h -4.19289 c 0.0733,-2.52271 4.11553,-2.5364 4.19289,0 m 20.63774,0.65344 c 0,0.39499 0.0544,0.83838 -0.14273,1.19797 -0.50034,0.91284 -2.26864,1.38227 -3.04492,0.52999 -0.56355,-0.61874 -0.10183,-1.52127 0.62835,-1.68914 0.29846,-0.0686 0.62157,-0.0388 0.92571,-0.0388 h 1.63359 m 46.28517,0 c 0,0.39057 0.0688,0.84549 -0.13204,1.19797 -0.52603,0.92322 -2.21532,1.35206 -3.01776,0.53658 -0.60122,-0.611 -0.15164,-1.50498 0.5905,-1.68435 0.30146,-0.0728 0.61802,-0.0502 0.9257,-0.0502 h 1.6336 m -91.42531,1.56505 c -0.6853,0.21161 -0.44005,1.42642 0.27057,1.2251 0.75806,-0.21476 0.47501,-1.4553 -0.27057,-1.2251 z"
       id="path1" /></g></svg>
