<?xml version="1.0" encoding="UTF-8" standalone="no"?>
<!-- Created with Inkscape (http://www.inkscape.org/) -->

<svg
   width="153.20058mm"
   height="38.583538mm"
   viewBox="0 0 153.20058 38.583538"
   version="1.1"
   id="svg1"
   xml:space="preserve"
   inkscape:export-filename="SemanticSapience-VSS-DevLogo.svg"
   inkscape:export-xdpi="96"
   inkscape:export-ydpi="96"
   xmlns:inkscape="http://www.inkscape.org/namespaces/inkscape"
   xmlns:sodipodi="http://sodipodi.sourceforge.net/DTD/sodipodi-0.dtd"
   xmlns="http://www.w3.org/2000/svg"
   xmlns:svg="http://www.w3.org/2000/svg"><sodipodi:namedview
     id="namedview1"
     pagecolor="#ffffff"
     bordercolor="#000000"
     borderopacity="0.25"
     inkscape:showpageshadow="2"
     inkscape:pageopacity="0.0"
     inkscape:pagecheckerboard="0"
     inkscape:deskcolor="#d1d1d1"
     inkscape:document-units="mm" /><defs
     id="defs1" /><g
     inkscape:label="Layer 1"
     inkscape:groupmode="layer"
     id="layer1"
     transform="translate(-7.9651129,-69.158796)"><path
       style="fill:#0b52b7;stroke:none;stroke-width:0.0825236"
       d="m 65.367849,69.163242 c -0.376073,0.04591 -0.705003,0.344855 -0.737781,0.731743 -0.03853,0.454725 0.384304,0.91374 0.846954,0.866417 0.415611,-0.04251 0.7592,-0.394399 0.759162,-0.822744 -3.2e-5,-0.422262 -0.446236,-0.826935 -0.868335,-0.775416 m 2.729305,0.0889 c -0.968477,0.204172 -0.651382,1.724348 0.305682,1.522915 1.015286,-0.213687 0.707749,-1.736558 -0.305682,-1.522915 m -5.502279,0.216421 c -1.024033,0.111348 -0.915793,1.72522 0.109172,1.620359 0.37698,-0.03857 0.723501,-0.349554 0.759462,-0.735408 0.04371,-0.468964 -0.390419,-0.936948 -0.868634,-0.884951 m 8.340756,0.152701 c -0.748389,0.109447 -0.963477,1.16719 -0.240178,1.487995 0.143896,0.06382 0.326082,0.06705 0.480357,0.04487 0.97336,-0.140029 0.682187,-1.667736 -0.240179,-1.53285 m -10.982723,0.481199 c -0.402385,0.03596 -0.748922,0.3402 -0.778006,0.753242 -0.03135,0.44519 0.376772,0.933063 0.843509,0.887734 0.297341,-0.02886 0.581582,-0.195197 0.708352,-0.47288 0.244219,-0.534954 -0.148833,-1.223925 -0.773855,-1.168096 m 13.537352,0.283697 c -0.947783,0.169043 -0.665411,1.660732 0.262014,1.503873 1.010845,-0.170974 0.751801,-1.684694 -0.262014,-1.503873 m -16.070147,0.676312 c -0.389608,0.04201 -0.734226,0.331291 -0.778923,0.732112 -0.05173,0.463892 0.387886,0.963275 0.866261,0.909928 0.404678,-0.04512 0.721261,-0.3283 0.778779,-0.735249 0.0675,-0.477589 -0.374309,-0.959852 -0.866117,-0.906791 m 18.668446,0.327523 c -0.992657,0.107742 -0.859566,1.621954 0.131006,1.513631 0.957683,-0.104729 0.805971,-1.615335 -0.131006,-1.513631 m -21.0484,0.894846 c -0.369735,0.04512 -0.702609,0.332635 -0.756934,0.710638 -0.06944,0.483154 0.356552,1.007854 0.866107,0.956123 0.408809,-0.04152 0.751816,-0.368595 0.783459,-0.781445 0.03578,-0.466832 -0.41197,-0.943972 -0.892632,-0.885316 m 23.406519,0.442978 c -0.954137,0.01473 -0.949302,1.504711 0,1.483591 0.989421,-0.02202 0.985919,-1.49879 0,-1.483591 m -11.768762,0.105615 c -0.577068,0.134586 -0.340939,1.036451 0.218343,0.896231 0.611872,-0.153411 0.387205,-1.037461 -0.218343,-0.896231 m -2.292617,0.06729 c -0.621983,0.033 -0.57576,1.008849 0.04367,0.965481 0.616689,-0.0432 0.570264,-0.998068 -0.04367,-0.965481 m 4.781743,0.11118 c -0.591316,0.01261 -0.567035,0.914218 0,0.91736 0.603757,0.0034 0.619003,-0.930585 0,-0.91736 m -7.2272,0.326444 c -0.590436,0.171363 -0.288405,1.092526 0.283848,0.921916 0.613187,-0.18281 0.330944,-1.100353 -0.283848,-0.921916 m 9.388809,0.172186 c -0.547423,0.136684 -0.307969,0.990054 0.218345,0.869737 0.607046,-0.138777 0.376974,-1.01838 -0.218345,-0.869737 m -18.49377,0.281253 c -0.407481,0.05515 -0.762515,0.418805 -0.761588,0.841279 10e-4,0.468038 0.441902,0.905283 0.914429,0.841859 0.391207,-0.05251 0.715366,-0.350243 0.759685,-0.754523 0.05399,-0.492493 -0.40101,-0.99786 -0.912526,-0.928615 m 7.008855,0.196946 c -0.653871,0.0837 -0.520801,1.064275 0.109172,0.971722 0.620235,-0.09112 0.518168,-1.05202 -0.109172,-0.971722 m 13.668359,0.26666 c -0.566763,0.164483 -0.277307,1.016917 0.262013,0.850459 0.554838,-0.171245 0.2896,-1.010543 -0.262013,-0.850459 m 6.921517,0.06235 c -0.934291,0.197769 -0.591998,1.642114 0.327517,1.443981 0.954339,-0.205639 0.609626,-1.64236 -0.327517,-1.443981 m -22.751486,0.6118 c -0.618694,0.144334 -0.369783,1.089764 0.240179,0.95767 0.649442,-0.140644 0.383282,-1.103116 -0.240179,-0.95767 m 17.882406,0.327745 c -0.561981,0.140284 -0.289978,0.995068 0.262014,0.846962 0.540594,-0.145057 0.28043,-0.982371 -0.262014,-0.846962 m -24.738419,0.302875 c -0.401248,0.06141 -0.716424,0.388676 -0.739621,0.797822 -0.02733,0.481977 0.418075,0.956424 0.914296,0.885104 0.392909,-0.05647 0.720414,-0.325468 0.778769,-0.73226 0.07542,-0.525768 -0.425542,-1.031461 -0.953444,-0.950666 m 15.851803,0.0034 c -0.489367,0.129449 -0.314014,0.902846 0.174675,0.781435 0.493077,-0.122499 0.30621,-0.908637 -0.174675,-0.781435 m -2.096032,0.109156 c -0.480757,0.129887 -0.256784,0.898418 0.21827,0.78144 0.530194,-0.130562 0.297942,-0.920906 -0.21827,-0.78144 m 4.148468,0.06306 c -0.500357,0.09333 -0.355998,0.867447 0.133512,0.777327 0.506676,-0.09328 0.360024,-0.869377 -0.133512,-0.777327 m -6.091808,0.263773 c -0.510673,0.125745 -0.335774,0.925635 0.174676,0.804033 0.530226,-0.126316 0.324777,-0.927019 -0.174676,-0.804033 m -6.812345,0.08587 c -0.666254,0.09807 -0.539336,1.106948 0.131007,1.007475 0.64218,-0.09529 0.495443,-1.099697 -0.131007,-1.007475 m 26.616181,0.04196 c -0.905415,0.122356 -0.778891,1.576666 0.131007,1.464407 0.368206,-0.04541 0.679261,-0.331739 0.695589,-0.709894 0.01861,-0.431049 -0.403372,-0.811711 -0.826596,-0.754513 m -11.834249,0.03059 c -0.4571,0.178609 -0.183045,0.894408 0.283757,0.724961 0.467979,-0.169877 0.162457,-0.899314 -0.283757,-0.724961 m 6.943335,0.32012 c -0.573218,0.09196 -0.45782,0.95532 0.109172,0.854123 0.527487,-0.09414 0.400973,-0.935968 -0.109172,-0.854123 m -16.768849,0.08751 c -0.548244,0.0946 -0.40963,0.929861 0.131007,0.832048 0.531782,-0.09621 0.382987,-0.92074 -0.131007,-0.832048 m 11.746928,0.220055 c -0.489921,0.118244 -0.290159,0.868555 0.196494,0.737718 0.460538,-0.123824 0.258895,-0.847627 -0.196494,-0.737718 m -13.493683,0.588026 c -0.559476,0.08111 -0.462633,0.91868 0.08734,0.832604 0.529928,-0.08294 0.420447,-0.906219 -0.08734,-0.832604 m -4.978252,0.08732 c -0.670823,0.07422 -0.554929,1.105825 0.109172,1.032107 0.652954,-0.07248 0.546197,-1.104624 -0.109172,-1.032107 M 74.319969,77.6367 c -0.489361,0.07168 -0.372625,0.837387 0.131007,0.745563 0.455149,-0.08298 0.308768,-0.809978 -0.131007,-0.745563 m 4.890915,0.284336 c -0.526831,0.130907 -0.330844,0.952715 0.19651,0.825897 0.553734,-0.133173 0.324429,-0.955335 -0.19651,-0.825897 m -30.109692,0.06376 c -0.514529,0.09611 -0.344095,0.896994 0.152842,0.786902 0.503583,-0.111559 0.351739,-0.881159 -0.152842,-0.786902 m 35.000606,0.196207 c -0.913065,0.162774 -0.655279,1.592615 0.262013,1.419281 0.926999,-0.175176 0.629841,-1.578277 -0.262013,-1.419281 m -16.856187,0.666054 c 0.07771,-0.01054 0.0846,-0.10265 0.08693,-0.174674 0.0057,-0.174905 -0.08865,-0.323291 -0.239774,-0.411416 -0.08388,-0.04891 -0.189163,-0.05751 -0.283847,-0.04103 -0.08661,0.01507 -0.156412,0.06129 -0.215311,0.125346 -0.18868,0.205201 -0.144706,0.591892 0.127872,0.712352 0.186957,0.08262 0.487133,0.01113 0.524128,-0.210565 m -1.637583,0.109171 c 0.186531,-0.122977 0.149995,-0.395433 0.016,-0.544317 -0.173705,-0.193016 -0.466785,-0.205581 -0.64523,-0.01118 -0.05278,0.0575 -0.09121,0.128129 -0.104119,0.205546 -0.02979,0.178746 0.07056,0.435373 0.253234,0.498359 0.150171,0.05179 0.436955,0.02773 0.480113,-0.148402 m 2.729304,0.240181 0.0655,-0.02182 c 0.0319,0.05826 0.142053,0.05691 0.174676,0 0.421475,0.0086 0.42663,-0.581638 0.130778,-0.762345 -0.284706,-0.173895 -0.63894,0.06976 -0.628866,0.391159 0.0062,0.196335 0.132425,0.27352 0.257909,0.39302 m -11.07006,-0.81377 c -0.524278,0.167723 -0.248084,1.01172 0.283847,0.8415 0.532983,-0.170556 0.248874,-1.011923 -0.283847,-0.8415 m 9.566214,0.06103 c 0.275644,-0.08421 0.383147,0.349854 0.106197,0.424375 -0.251112,0.06757 -0.351547,-0.349416 -0.106197,-0.424375 m -3.234227,0.06667 c -0.564262,0.131443 -0.310971,0.991433 0.241474,0.846484 0.535003,-0.140378 0.294323,-0.971293 -0.241474,-0.846484 m 1.703086,0.467733 c -0.05652,-0.03344 -0.120648,-0.06205 -0.16338,-0.113589 -0.03019,-0.0364 -0.0468,-0.07966 -0.05086,-0.126597 -0.04129,-0.478682 0.686996,-0.115982 0.40437,0.116968 -0.05698,0.04694 -0.129477,0.08019 -0.19013,0.123218 m 3.209663,0.08734 c -0.101784,-0.03807 -0.158417,-0.09472 -0.19651,-0.196513 l -0.04367,0.02182 0.0655,-0.305679 c 0.188579,-0.02453 0.494234,0.05184 0.376992,0.321681 -0.03369,0.07754 -0.140966,0.106432 -0.202316,0.158676 m 7.401875,-0.358099 c -0.478396,0.110998 -0.296855,0.834141 0.174675,0.716425 0.445858,-0.111304 0.259631,-0.817193 -0.174675,-0.716425 m -12.358293,0.292596 h -0.02183 v 0.04369 c -0.132782,-0.243968 0.247641,-0.44315 0.361979,-0.194601 0.123954,0.269457 -0.254502,0.440294 -0.340145,0.150933 m 3.580848,-0.283849 -0.02183,0.02182 0.02183,-0.02182 m 2.663802,0.655035 c 0.07316,0.212338 0.365268,0.196645 0.521446,0.08677 0.222055,-0.156218 0.217667,-0.441835 0.04057,-0.629807 -0.06163,-0.06541 -0.130974,-0.102999 -0.220812,-0.107171 -0.07864,-0.0034 -0.15918,-0.0025 -0.232087,0.03064 -0.18757,0.08488 -0.410782,0.535294 -0.109119,0.619582 m -4.27955,-0.633201 0.02183,0.02182 -0.02183,-0.02182 m 1.615748,0.02182 -0.02183,0.02182 0.02183,-0.02182 m 3.013153,0.196508 c 0.159211,0.04068 0.188844,0.276431 0.03906,0.356956 -0.117435,0.06314 -0.194693,-0.01906 -0.301077,-0.05127 -0.02966,-0.133059 0.0982,-0.492532 0.262013,-0.305683 m -8.100577,-0.03078 c -0.571597,0.142521 -0.327415,1.021404 0.23995,0.868811 0.541223,-0.145564 0.294382,-1.002042 -0.23995,-0.868811 m 3.602683,-0.01286 -0.02183,0.02182 0.02183,-0.02182 m 3.013152,0 0.02183,0.02182 -0.02183,-0.02182 m -3.078656,0.08734 -0.02183,0.02182 0.02183,-0.02182 m -13.144332,0.05472 c -0.67199,0.121597 -0.500747,1.143873 0.174676,1.028949 0.663876,-0.112953 0.467441,-1.145139 -0.174676,-1.028949 m 12.685809,-0.01103 -0.02183,0.02182 0.02183,-0.02182 m 0.04367,0.0073 0.0073,0.0073 c -0.01078,0.0034 -0.02416,-0.0073 -0.0073,-0.0073 m 3.187828,0.05822 v 0.04369 l -0.04367,-0.04369 h 0.04367 m 0.08734,0.0655 -0.0655,-0.02182 0.0655,0.02182 m 0.08734,-0.04369 -0.02183,0.02182 0.02183,-0.02182 m -6.200981,0.414854 -0.04367,-0.02182 c -0.118128,0.135246 -0.260766,-0.05407 -0.349351,-0.131005 l 0.109172,-0.24018 c 0.233356,4.92e-4 0.402386,0.155755 0.283848,0.39302 m 6.24465,-0.39302 -0.02183,0.02182 0.02183,-0.02182 m 2.729305,0.262015 c -0.397615,0.256237 0.296311,0.975588 0.567695,0.50219 l 0.04367,0.02182 c 0.110985,-0.202251 0.161408,-0.400733 -0.02916,-0.577337 -0.150874,-0.139822 -0.518781,-0.212481 -0.5822,0.05331 m 0.458523,0.0655 c 0.0251,0.08566 0.104583,0.165754 0.07106,0.260947 -0.06138,0.174318 -0.337906,0.153578 -0.426604,0.02128 -0.170736,-0.254681 0.165294,-0.378086 0.35554,-0.282214 m -1.746755,-0.02182 -0.02183,0.02182 0.02183,-0.02182 m 0.04367,0 -0.02183,0.02182 0.02183,-0.02182 m 0.08734,0.04369 -0.02183,0.02182 0.02183,-0.02182 m -9.388808,0.895211 c 0.09476,0.04738 0.140489,-0.04694 0.19651,-0.109171 0.105302,-0.117002 0.206189,-0.278082 0.131006,-0.458523 -0.214709,-0.515312 -1.090059,-0.236186 -0.873378,0.283845 0.07307,0.175372 0.507006,0.478115 0.545862,0.283849 m -5.000087,-0.814361 c -0.554108,0.160784 -0.277659,0.967274 0.262013,0.822635 0.547321,-0.146692 0.272024,-0.977597 -0.262013,-0.822635 m 25.000433,-0.0025 c -0.5373,0.123509 -0.321461,0.931216 0.19651,0.80422 0.522683,-0.128153 0.323598,-0.923778 -0.19651,-0.80422 m -20.327863,0.293035 c 0.04968,-0.02999 0.09465,-0.05539 0.153459,-0.06215 0.04214,-0.0049 0.08888,-0.0049 0.130298,0.0051 0.382215,0.09207 -0.0156,0.614194 -0.218862,0.252711 -0.03344,-0.05947 -0.04661,-0.130468 -0.06489,-0.195616 m 12.904154,0.829708 0.02183,-0.08734 0.04367,0.02182 c 0.205631,-0.370816 -0.165395,-0.927152 -0.566309,-0.601299 -0.227631,0.185012 -0.216644,0.557542 0.05985,0.692162 0.144867,0.07053 0.299819,0.02891 0.440959,-0.02537 m 4.08304,-0.752558 c -0.478294,0.0772 -0.340214,0.795108 0.130932,0.70024 0.439088,-0.08841 0.289887,-0.768166 -0.130932,-0.70024 m -5.85163,0.0393 c 0.01689,0 0.0035,0.01089 -0.0073,0.0073 l 0.0073,-0.0073 m 0.152841,-0.0073 -0.02183,0.02182 0.02183,-0.02182 m -0.04367,0.04369 -0.02183,0.02182 0.02183,-0.02182 m -24.105222,0.14388 c -0.50789,0.12506 -0.326733,0.916479 0.174676,0.801235 0.518248,-0.11911 0.322719,-0.923704 -0.174676,-0.801235 m 25.677301,0.358311 c -0.06306,-0.0025 -0.08528,0.06363 -0.152841,0.06551 -0.212534,0.0059 -0.218345,-0.199709 -0.218345,-0.349352 0.252552,-0.145845 0.482565,-0.02901 0.371186,0.283844 m -13.733863,0.567699 c 0.200647,-0.07211 0.190193,-0.366423 0.09634,-0.522715 -0.148604,-0.247451 -0.493733,-0.288376 -0.706155,-0.102222 -0.06487,0.05685 -0.110095,0.126996 -0.133309,0.210082 -0.0261,0.09338 -0.02504,0.192321 0.01216,0.282544 0.09625,0.233463 0.629595,0.501364 0.730968,0.132311 m 26.070321,-0.666802 c -0.892701,0.134655 -0.726016,1.535952 0.152841,1.411951 0.335204,-0.04728 0.638604,-0.327798 0.648151,-0.679647 0.01122,-0.413475 -0.388323,-0.794551 -0.800992,-0.732304 m -26.223161,0.208279 0.08734,0.218342 v 0.02182 l -0.19651,0.152844 -0.08734,-0.04369 v -0.08734 h -0.08734 l -0.04367,-0.131005 c 0.07207,-0.141792 0.18523,-0.137783 0.327517,-0.131005 m -8.275252,0.185656 c -0.698884,0.06416 -0.579701,1.116139 0.109171,1.056138 0.664778,-0.05791 0.549993,-1.116646 -0.109171,-1.056138 m 23.362849,0.84056 0.109173,-0.0655 v 0.02182 l -0.0655,0.02182 v 0.02182 l 0.0655,0.02182 v -0.0655 c 0.176999,0.02556 0.318624,-0.185652 0.318443,-0.349352 -2.15e-4,-0.195433 -0.191227,-0.390724 -0.383947,-0.404934 -0.51152,-0.03768 -0.550083,0.745785 -0.04367,0.797954 M 54.406964,80.934379 c -0.557604,0.134778 -0.311173,0.973598 0.240179,0.85074 0.566838,-0.126306 0.314739,-0.984868 -0.240179,-0.85074 m 19.86934,0.467575 c -0.0028,-0.153415 0.145688,-0.500954 0.332496,-0.262064 0.07362,0.09414 0.08482,0.353745 -0.0726,0.375865 -0.0917,0.01291 -0.187826,-0.0672 -0.259892,-0.113801 m 4.454226,-0.05228 c -0.472074,0.09539 -0.305293,0.806811 0.152841,0.697231 0.42398,-0.101408 0.267525,-0.782178 -0.152841,-0.697231 m -20.982897,0.02394 c -0.584822,0.169699 -0.302478,1.049257 0.286279,0.883612 0.554247,-0.155933 0.25583,-1.040914 -0.286279,-0.883612 m 24.367235,0.01921 c -0.521452,0.117293 -0.336419,0.93159 0.174675,0.804146 0.505716,-0.126105 0.326408,-0.916863 -0.174675,-0.804146 m -7.816729,0.161971 -0.02184,0.02182 0.02184,-0.02182 m 0.298405,0.0364 -0.0073,0.01458 0.0073,-0.01458 m -0.211068,0.02911 -0.02183,0.02182 0.02183,-0.02182 m -16.33216,0.305683 c -0.18264,0.105453 -0.20256,0.04265 -0.327517,-0.10917 l 0.04367,-0.174679 c 0.195918,0.0015 0.273159,0.08999 0.283847,0.283849 m 17.664062,0.05603 c -0.463731,0.06597 -0.43428,0.841938 0.04116,0.786389 0.527278,-0.06161 0.465805,-0.858507 -0.04116,-0.786389 m 0.0655,0.184149 h 0.02183 l 0.0655,0.02182 c 0.02176,0.0886 0.07539,0.163847 0.05604,0.260473 -0.05372,0.268187 -0.531964,0.03211 -0.306263,-0.187563 0.045,-0.04379 0.108714,-0.06468 0.162889,-0.09474 M 53.227902,82.4408 c -0.570009,0.132778 -0.330986,1.021522 0.218345,0.8841 0.5739,-0.143565 0.360694,-1.018981 -0.218345,-0.8841 m -6.877848,0.08582 c -0.523643,0.09767 -0.38057,0.922 0.131007,0.818813 0.542569,-0.109436 0.386322,-0.915306 -0.131007,-0.818813 m 10.153014,0.04792 c -0.596833,0.17322 -0.275868,1.06885 0.305682,0.882809 0.56922,-0.182096 0.254614,-1.04542 -0.305682,-0.882809 m 19.323479,0.115662 -0.02183,0.02182 0.02183,-0.02182 m -25.917479,0.05502 c -0.709736,0.07459 -0.582635,1.15263 0.109172,1.075834 0.678152,-0.07527 0.572371,-1.147464 -0.109172,-1.075834 m 36.856532,0.08604 c -0.921657,0.141053 -0.692811,1.563604 0.218346,1.400983 0.890568,-0.158947 0.654851,-1.534623 -0.218346,-1.400983 m -25.524459,0.01177 0.02183,0.02182 -0.02183,-0.02182 m 18.646612,0.07717 c -0.451338,0.07436 -0.339415,0.748923 0.109172,0.681834 0.435164,-0.06508 0.30961,-0.750828 -0.109172,-0.681834 m -23.210009,0.119342 v 0.08734 h -0.04367 v -0.08734 h 0.04367 m 20.349697,1.004382 v -0.04369 c 0.447393,-0.0034 0.297846,-0.733378 -0.109172,-0.754715 -0.343631,-0.01803 -0.478641,0.403058 -0.301631,0.649007 0.109913,0.152721 0.24786,0.121991 0.410803,0.149376 m -10.174848,-0.78604 0.02183,0.02182 -0.02183,-0.02182 m 0.174675,0.0655 -0.02183,0.0655 0.02183,-0.0655 m -7.030689,0.02182 0.02183,0.02182 -0.02183,-0.02182 m 5.917132,0 v 0.06551 h 0.02183 l -0.02183,-0.06551 m 17.336545,0.03325 c -0.531825,0.08024 -0.369805,0.864467 0.152841,0.766334 0.478983,-0.08993 0.32386,-0.838259 -0.152841,-0.766334 m -16.244822,0.05408 0.02183,0.02182 -0.02183,-0.02182 m 9.869166,0.393015 c -0.289461,-0.03113 -0.121827,-0.498901 0.1288,-0.333093 0.178657,0.118194 0.01625,0.476126 -0.1288,0.333093 m -8.777444,-0.349347 0.02183,0.02182 -0.02183,-0.02182 m -3.231497,0.04369 0.02183,0.02182 -0.02183,-0.02182 m 11.863376,0.101891 0.0073,0.01458 -0.0073,-0.01458 m -3.304276,0.0073 0.02183,0.02182 -0.02183,-0.02182 m -4.323219,0.04369 0.02183,0.08734 h 0.02183 l -0.04367,-0.08734 m 4.301384,0 0.02183,0.02182 -0.02183,-0.02182 m -4.27955,0.109171 0.02183,0.02182 -0.02183,-0.02182 m -13.668359,0.102684 c -0.618305,0.179441 -0.302467,1.09925 0.305682,0.904643 0.564945,-0.180776 0.247946,-1.065309 -0.305682,-0.904643 m 14.585405,0.137497 0.02183,0.02182 -0.02183,-0.02182 m 0.04367,0.02182 0.02183,0.02182 -0.02183,-0.02182 m -17.860571,0.0563 c -0.565046,0.131621 -0.349116,1.005549 0.19651,0.889197 0.589534,-0.125715 0.399849,-1.028112 -0.19651,-0.889197 m 17.889682,0.002 0.0073,0.01458 -0.0073,-0.01458 m -7.474655,0.02911 0.02183,0.02182 -0.02183,-0.02182 m 11.746928,0.305684 0.02183,0.02182 -0.02183,-0.02182 m -3.347945,0.160119 0.01456,0.0073 -0.01456,-0.0073 m 6.797787,0.0299 c -0.481552,0.0428 -0.423996,0.803086 0.0655,0.767707 0.516265,-0.03729 0.424961,-0.811322 -0.0655,-0.767707 m 2.904588,0.02364 c -0.407898,0.144205 -0.121966,0.752065 0.283224,0.621952 0.43816,-0.140698 0.145868,-0.773648 -0.283224,-0.621952 m -18.756391,0.113865 0.02183,0.02182 -0.02183,-0.02182 m -13.03516,0.05455 c -0.74989,0.127695 -0.517281,1.213917 0.218345,1.072647 0.646543,-0.124159 0.432714,-1.183513 -0.218345,-1.072647 m 28.996135,0.141954 c 0.06224,0.06293 0.03803,0.182962 -0.06582,0.188134 -0.06179,0.003 -0.121779,-0.05239 -0.174361,-0.07896 0.0065,-0.126784 0.188093,-0.291838 0.240179,-0.109175 m -32.576983,0.07838 c -0.520266,0.128109 -0.338138,0.962423 0.174676,0.838904 0.553036,-0.133211 0.359348,-0.970401 -0.174676,-0.838904 m 26.485175,0.205472 0.02183,0.02182 -0.02183,-0.02182 m -17.271042,0.03719 c -0.588725,0.170876 -0.292627,1.106406 0.283848,0.926547 0.601172,-0.187559 0.301934,-1.09657 -0.283848,-0.926547 m 33.057341,0.126415 c -0.898437,0.153972 -0.672939,1.54408 0.218344,1.375666 0.863191,-0.163103 0.63113,-1.521245 -0.218344,-1.375666 m -12.380127,0.0329 0.02183,0.02182 -0.02183,-0.02182 m 0.02183,0.04369 0.02183,0.02182 -0.02183,-0.02182 m 8.821114,0.01128 c -0.525247,0.09353 -0.344703,0.863979 0.174675,0.766491 0.499713,-0.0938 0.30589,-0.852065 -0.174675,-0.766491 m -8.799279,0.03241 v 0.0655 h 0.02183 l -0.02183,-0.0655 m -0.0655,0.174673 -0.02183,0.04369 0.02183,-0.04369 m -0.0655,0.0655 0.02183,0.02182 -0.02183,-0.02182 m -0.109172,0.04369 0.02183,0.02182 -0.02183,-0.02182 m -23.668532,0.05902 c -0.584535,0.16964 -0.292094,1.04249 0.283848,0.888139 0.583831,-0.15646 0.294488,-1.055976 -0.283848,-0.888139 M 60.4187,86.08922 60.426,86.1038 60.4187,86.08922 m 18.202646,-9.85e-4 c -0.487154,0.04881 -0.429545,0.815307 0.0655,0.769786 0.494734,-0.04551 0.399539,-0.81641 -0.0655,-0.769786 m 0.04367,0.248584 -0.02183,0.02182 0.02183,-0.02182 m 0.109172,0.131009 -0.02183,0.08734 c -0.185113,0.08564 -0.261922,-0.02133 -0.240178,-0.196507 l 0.262013,0.10917 m -0.0655,-0.10917 -0.02183,0.02182 0.02183,-0.02182 m 2.897322,0.07928 c -0.463316,0.04817 -0.349399,0.720439 0.115814,0.658109 0.406043,-0.0544 0.292126,-0.700536 -0.115814,-0.658109 m -5.575682,0.197281 0.0073,0.01458 -0.0073,-0.01458 m 0,0.08734 0.0073,0.01458 -0.0073,-0.01458 m -21.972723,0.02384 c -0.632974,0.0051 -0.613966,0.98663 0,0.986596 0.619233,-3.9e-5 0.623321,-0.991586 0,-0.986596 m 5.633286,-0.01655 0.02183,0.02182 -0.02183,-0.02182 m -11.572253,0.28385 v 0.02182 l 0.524027,0.0655 c -0.153879,-0.108161 -0.344923,-0.08734 -0.524027,-0.08734 m 31.048573,0.601905 c -0.474894,0.06959 -0.363281,0.818769 0.109172,0.74148 0.485357,-0.07941 0.363429,-0.810741 -0.109172,-0.74148 m -19.971236,0.111353 0.0073,0.01458 -0.0073,-0.01458 m 17.351103,0.0073 0.04367,0.109171 h 0.02183 l -0.0655,-0.109171 m -19.585493,0.08734 0.02183,0.02182 -0.02183,-0.02182 m 22.217801,0.126951 c 0.05448,-0.02221 0.154163,0.06006 0.08351,0.09674 -0.06479,0.03364 -0.16395,-0.06397 -0.08351,-0.09674 m -2.654142,0.06956 0.02183,0.02182 -0.02183,-0.02182 M 8.7511502,93.170949 7.965113,93.476632 c 0.4740277,1.976806 2.924987,2.652655 4.694402,2.322818 0.98056,-0.182791 1.992584,-0.757774 2.173622,-1.820627 0.03063,-0.179845 0.04602,-0.364527 0.01867,-0.545859 -0.218143,-1.446055 -2.027115,-1.655551 -3.196676,-1.850492 -0.255187,-0.04251 -0.510306,-0.08678 -0.764205,-0.136389 -0.573443,-0.112032 -1.4121679,-0.252021 -1.5569369,-0.938933 -0.1646108,-0.781061 0.6567615,-1.252261 1.2949229,-1.394821 1.106742,-0.247234 2.562448,0.179037 2.94765,1.351153 0.185437,-0.04684 0.373065,-0.162533 0.545858,-0.246047 0.05927,-0.02867 0.155328,-0.06157 0.177677,-0.130971 0.04392,-0.136388 -0.163364,-0.412298 -0.237394,-0.518198 -0.31987,-0.457558 -0.774313,-0.806235 -1.294016,-1.008372 -1.054942,-0.410313 -2.374851,-0.417952 -3.3625032,0.183303 -0.8222737,0.50058 -1.3099446,1.71626 -0.7104283,2.571827 0.3182194,0.454129 0.8684628,0.674269 1.3872965,0.805116 0.855735,0.215815 1.747953,0.279116 2.598297,0.514391 0.616491,0.170571 1.467362,0.528227 1.276636,1.322458 -0.174521,0.726746 -0.988237,1.023455 -1.647821,1.11654 C 11.202569,95.229845 9.9025012,94.913784 9.1738106,94.022491 8.9618517,93.763235 8.8768437,93.472445 8.7511526,93.170949 M 53.315242,88.378414 c -0.393542,0.07669 -0.534351,0.598442 -0.312169,0.905776 0.14904,0.206161 0.40028,0.25312 0.639686,0.210372 0.383557,-0.06848 0.552839,-0.548987 0.348733,-0.865161 -0.14952,-0.231616 -0.415324,-0.301837 -0.67625,-0.250987 m -4.825411,0.469319 v 1.615749 h -1.113559 l -0.389752,0.03748 -0.0251,0.617538 h 1.091721 c 0.101793,0 0.320928,-0.04078 0.399193,0.03748 0.06691,0.06691 0.0375,0.225946 0.0375,0.311855 v 0.851542 c 0,1.117976 -0.320715,2.748252 0.895212,3.356215 0.681569,0.340787 1.593935,0.255987 2.227113,-0.147987 0.307959,-0.196483 0.554614,-0.450022 0.707705,-0.784607 0.03849,-0.08412 0.143902,-0.245407 0.09417,-0.339516 -0.07823,-0.148037 -0.476301,-0.252918 -0.627197,-0.315512 -0.130244,0.334017 -0.289237,0.639217 -0.58953,0.855151 C 50.6245,95.355 49.70051,95.255217 49.392405,94.568324 49.228276,94.202414 49.275877,93.737037 49.275877,93.345598 v -2.227115 h 1.92143 l 0.960716,-0.02182 c -0.03024,-0.134084 0.04722,-0.522277 -0.05933,-0.608097 -0.130292,-0.104935 -0.583127,-0.02512 -0.748543,-0.02512 h -2.074272 v -1.768593 l -0.78604,0.152844 m 10.240351,-0.152844 0.02183,0.02182 -0.02183,-0.02182 m 57.730261,3.952035 c 0.12487,-0.458956 0.0218,-1.073997 0.0218,-1.550246 v -1.069889 -0.960714 c 0,-0.0812 0.034,-0.266684 -0.0375,-0.324247 -0.0752,-0.06056 -0.26429,-0.02512 -0.35553,-0.02512 -0.0948,0 -0.34572,-0.04428 -0.41158,0.03748 -0.0465,0.05781 -0.0251,0.177328 -0.0251,0.246352 v 0.611362 2.205281 c 0,0.173082 0.0226,0.352568 0.006,0.524025 -0.007,0.07261 -0.0311,0.206383 0.0187,0.268187 0.0446,0.0554 0.15288,0.03753 0.21507,0.03748 0.19147,-1.63e-4 0.37786,-0.0428 0.5677,5e-6 m 13.319,-3.930201 v 1.353734 c -0.24204,-0.153539 -0.45015,-0.273496 -0.74236,-0.301374 -0.54833,-0.05231 -1.10669,0.22475 -1.3679,0.716233 -0.3933,0.740037 -0.078,1.780827 0.7347,2.066533 0.1834,0.06448 0.39457,0.102458 0.58953,0.09376 0.34496,-0.01537 0.56054,-0.171364 0.85154,-0.326203 v 0.327518 l 0.76421,-0.02182 v -2.860311 -0.720538 l -0.0251,-0.29002 -0.21507,-0.03748 h -0.58954 m 3.88654,3.886532 -0.0218,-0.283849 c 0.22616,0.154085 0.42204,0.275382 0.6987,0.309377 0.51528,0.06331 1.04416,-0.121568 1.35845,-0.549573 0.5283,-0.719459 0.2523,-1.848625 -0.57241,-2.198671 -0.21029,-0.08925 -0.44966,-0.121972 -0.67687,-0.11517 -0.29948,0.009 -0.51452,0.163557 -0.7642,0.305087 v -0.917045 c 0,-0.106639 0.0344,-0.287386 -0.0157,-0.384017 -0.0606,-0.116849 -0.49983,-0.05325 -0.61753,-0.05265 -0.0595,3.3e-4 -0.14818,-0.01034 -0.18085,0.05265 -0.0998,0.192405 -0.0157,0.625828 -0.0157,0.84254 v 2.09611 0.65503 c 0,0.0686 -0.0216,0.188952 0.0251,0.2462 0.0404,0.0495 0.13685,0.03561 0.19323,0.03526 0.18278,-9.85e-4 0.41387,0.0065 0.58953,-0.04127 M 101.5257,88.978708 v 2.685633 0.67687 c 0,0.07362 -0.0244,0.206678 0.0251,0.268186 0.0567,0.0704 0.24415,0.03925 0.32424,0.03689 0.31507,-0.0094 0.62361,4.93e-4 0.93888,4.93e-4 0.71522,0 1.49133,-0.05758 2.00188,-0.633428 0.60478,-0.682115 0.5792,-1.815127 -0.0599,-2.466468 -0.30069,-0.306462 -0.7364,-0.478678 -1.15592,-0.536792 -0.67604,-0.09365 -1.39251,-0.03152 -2.07427,-0.03152 m -29.389155,0.08734 0.02183,0.02182 -0.02183,-0.02182 m 4.890915,0 0.02183,0.02182 -0.02183,-0.02182 m 1.353735,0.402462 c -0.246336,0.02975 -0.494943,0.01069 -0.742371,0.04083 -0.601785,0.07328 -1.192701,0.222942 -1.746755,0.470973 -0.709486,0.317613 -1.351784,0.84352 -1.727474,1.53119 -0.768896,1.407396 -0.470549,3.410833 0.72309,4.493602 0.692838,0.628477 1.512509,1.093718 2.358119,1.481966 0.814889,0.374151 1.708268,0.691729 2.356824,1.340262 0.628828,0.628813 0.773998,1.640153 0.49539,2.465993 -0.732573,2.17148 -4.076377,1.94729 -5.181206,0.28385 -0.323418,-0.48694 -0.549289,-1.02936 -0.80973,-1.55025 -0.04408,-0.08816 -0.187154,-0.485773 -0.324787,-0.425743 -0.145138,0.0633 -0.0955,0.495443 -0.0955,0.622263 0,0.51727 -0.0655,1.03299 -0.0655,1.55024 0,0.15614 -0.05317,0.43229 0.09183,0.53725 0.360135,0.26069 0.904498,0.39912 1.327413,0.52009 1.182802,0.33831 2.465569,0.49302 3.69002,0.33362 0.784046,-0.10208 1.593471,-0.27989 2.270782,-0.70775 0.546553,-0.34525 1.061928,-0.82231 1.359001,-1.40375 0.690946,-1.352337 0.566971,-3.171435 -0.508759,-4.301379 -0.761535,-0.79991 -1.841204,-1.29194 -2.837176,-1.727703 -1.289501,-0.564191 -2.816643,-1.24623 -2.816643,-2.879365 0,-0.201856 -0.01801,-0.412598 0.02207,-0.611362 0.34684,-1.720269 2.72891,-2.171409 4.039142,-1.2764 0.280276,0.191459 0.490747,0.483534 0.658178,0.77421 0.26455,0.459286 0.518642,0.928974 0.766753,1.397401 0.04469,0.08437 0.189836,0.456326 0.316221,0.403915 0.153865,-0.06381 0.08545,-0.406835 0.09723,-0.53492 0.03949,-0.42928 0.06373,-0.85794 0.08435,-1.288231 0.0075,-0.155548 0.076,-0.384031 -0.03451,-0.516755 C 81.958774,90.266085 81.569315,90.137351 81.30704,90.019728 80.448599,89.634751 79.327905,89.354 78.381226,89.468382 m 4.781741,10.121741 c -0.05631,0.645177 -0.07694,1.295727 -0.08757,1.943267 -0.0033,0.20368 -0.09295,0.54823 0.02533,0.73253 0.08239,0.12837 0.363189,0.20102 0.498924,0.25928 0.488402,0.20963 1.008265,0.36021 1.528411,0.46679 2.092039,0.42864 4.676248,0.39503 6.218523,-1.30577 0.408293,-0.45025 0.702893,-1.03432 0.79925,-1.63758 0.184188,-1.153152 -0.01658,-2.359361 -0.821153,-3.253326 -0.582883,-0.647637 -1.438935,-1.117582 -2.222752,-1.477676 -1.262181,-0.579864 -3.167614,-1.115641 -3.440017,-2.714537 -0.05154,-0.302497 -0.0611,-0.655405 -0.02493,-0.960714 0.207443,-1.750714 2.54143,-2.229056 3.879797,-1.494629 0.509117,0.279377 0.763806,0.768112 1.035659,1.254453 0.214661,0.384022 0.436402,0.767102 0.639745,1.157221 0.0414,0.07944 0.167943,0.394281 0.285996,0.233364 0.129594,-0.176643 0.05257,-0.607204 0.07864,-0.822891 0.03951,-0.326789 0.03574,-0.655173 0.05857,-0.982553 0.0096,-0.137088 0.06079,-0.327764 -0.0087,-0.455942 -0.0804,-0.148244 -0.308663,-0.240146 -0.452303,-0.313529 -0.40915,-0.209033 -0.826708,-0.371092 -1.266397,-0.502851 -0.55132,-0.165212 -1.109948,-0.217889 -1.681252,-0.234842 -1.531178,-0.04546 -3.264654,0.294976 -4.287466,1.550837 -0.357832,0.439363 -0.61314,1.00982 -0.69376,1.572076 -0.149473,1.042425 0.07374,2.179809 0.738468,3.013153 0.605725,0.759369 1.538907,1.31997 2.408665,1.729485 0.994576,0.46828 2.353471,0.854921 2.95926,1.851364 0.672054,1.105447 0.309008,2.660487 -0.819485,3.309157 -0.730643,0.41999 -1.735912,0.45423 -2.532795,0.22801 -1.074802,-0.30514 -1.622065,-1.0498 -2.101543,-2.00876 -0.144861,-0.28972 -0.280335,-0.58386 -0.42583,-0.873372 -0.06614,-0.131616 -0.121657,-0.275255 -0.28927,-0.262015 m 12.707614,-9.9888 c -0.337654,0.05563 -0.262011,0.459448 -0.262011,0.708869 v 2.248945 9.628993 2.57646 c 0,0.25768 -0.07264,0.7957 0.349352,0.73629 0.362493,-0.051 0.283844,-0.44752 0.283844,-0.71446 v -2.24895 -9.628982 -2.598296 c 0,-0.2551 0.04206,-0.776958 -0.371185,-0.708869 m 6.506674,2.346452 v -2.292618 c 0.50249,0 1.11303,-0.09927 1.55024,0.202059 0.6643,0.457833 0.59245,1.623225 -0.13101,1.984959 -0.42708,0.213544 -0.96178,0.108181 -1.41923,0.1056 m 4.08304,-0.524025 h 1.06988 0.76421 c 0.0802,0 0.22301,0.02591 0.29002,-0.02808 0.0675,-0.05438 0.0392,-0.22303 0.0369,-0.299457 -0.0101,-0.342087 -0.14776,-0.675648 -0.39302,-0.915736 -0.75486,-0.738899 -2.20466,-0.463137 -2.5392,0.566384 -0.0862,0.265438 -0.0903,0.559488 -0.0218,0.829708 0.21184,0.835122 1.16515,1.19561 1.95018,1.033151 0.21353,-0.04418 0.6767,-0.162601 0.75622,-0.400561 0.0376,-0.112648 -0.29357,-0.459443 -0.40694,-0.459616 -0.12569,-1.62e-4 -0.26625,0.144156 -0.39295,0.177363 -0.4173,0.109363 -1.00854,-0.02147 -1.11355,-0.503176 m 2.31445,-1.659422 c 0.0349,0.227006 0.17641,0.463005 0.26201,0.676869 0.20201,0.504693 0.42257,1.001806 0.62447,1.506578 0.063,0.157612 0.16737,0.629719 0.34029,0.687326 0.15463,0.05151 0.66048,0.06562 0.79383,-0.03305 0.16816,-0.12443 0.26057,-0.549519 0.33752,-0.741609 0.19651,-0.490596 0.415,-0.972327 0.61136,-1.462909 0.0798,-0.199241 0.21421,-0.420504 0.24018,-0.633201 -0.19013,0 -0.59407,-0.07696 -0.75673,0.02512 -0.12743,0.07995 -0.19343,0.385278 -0.24766,0.52076 -0.18432,0.460508 -0.38722,0.913524 -0.56769,1.375568 h -0.0437 c -0.11804,-0.475525 -0.36398,-0.942672 -0.54586,-1.397402 -0.0522,-0.130582 -0.10845,-0.418607 -0.22905,-0.498926 -0.16581,-0.110431 -0.6211,-0.02512 -0.819,-0.02512 m 4.17037,1.659422 h 1.06989 0.76421 c 0.0802,0 0.22301,0.02591 0.29002,-0.02808 0.0679,-0.05466 0.0385,-0.222636 0.0372,-0.299457 -0.006,-0.345367 -0.14731,-0.674614 -0.39302,-0.91644 -0.77477,-0.762506 -2.28975,-0.438737 -2.55623,0.654425 -0.0683,0.280076 -0.057,0.578529 0.0353,0.851542 0.26244,0.776047 1.18509,1.074973 1.93161,0.923926 0.19369,-0.03921 0.69102,-0.179012 0.74382,-0.406786 0.0251,-0.108408 -0.30805,-0.455981 -0.41638,-0.450179 -0.11992,0.0065 -0.24953,0.136408 -0.37111,0.169304 -0.44702,0.120928 -0.98484,-0.01827 -1.13539,-0.498275 m 5.4586,-1.649753 c -0.26066,0.03586 -0.52295,0.111811 -0.74236,0.260675 -0.65035,0.441245 -0.82108,1.394383 -0.33386,2.022274 0.33546,0.432315 0.92863,0.649716 1.46924,0.580017 0.26744,-0.03448 0.5133,-0.113431 0.74237,-0.257858 0.6656,-0.419627 0.85341,-1.39883 0.35901,-2.025244 -0.34619,-0.438614 -0.94201,-0.655882 -1.4944,-0.579864 m 2.31445,-0.0097 v 2.882151 0.720532 l 0.0251,0.290021 0.21508,0.03748 h 0.56769 c 0.10964,-0.402955 0.0218,-0.935806 0.0218,-1.353734 0.25574,0.149126 0.4614,0.273171 0.7642,0.301389 1.60034,0.14914 2.12047,-2.303144 0.58954,-2.795607 -0.20734,-0.0667 -0.43762,-0.09868 -0.65504,-0.07794 -0.29795,0.02842 -0.50104,0.160695 -0.74237,0.323213 l 0.0218,-0.305684 -0.80787,-0.02182 m 4.27955,1.659422 h 1.06988 0.76421 c 0.0802,0 0.22301,0.02591 0.29002,-0.02808 0.0682,-0.05489 0.038,-0.222346 0.0374,-0.299457 -0.002,-0.328995 -0.13876,-0.678219 -0.37547,-0.910317 -0.77841,-0.763216 -2.30472,-0.45609 -2.57394,0.648302 -0.0683,0.280071 -0.057,0.578534 0.0353,0.851542 0.26258,0.776441 1.18486,1.075022 1.9316,0.923926 0.19371,-0.03921 0.69103,-0.179012 0.74383,-0.406786 0.0232,-0.09994 -0.29589,-0.45114 -0.39699,-0.456779 -0.12034,-0.0067 -0.26901,0.143033 -0.39051,0.175904 -0.44702,0.120933 -0.98483,-0.01827 -1.13539,-0.498275 M 136.11132,89.7643 c 0.0317,0.204187 0.16718,0.417948 0.24455,0.611367 0.19636,0.490872 0.40644,0.980957 0.62385,1.462905 0.0918,0.203541 0.34239,0.586114 0.326,0.807879 -0.006,0.0748 -0.0595,0.142363 -0.10764,0.195897 -0.26756,0.297733 -0.51781,0.09999 -0.82474,0.02246 -0.0645,0.134931 -0.28882,0.411431 -0.24319,0.564945 0.0389,0.130794 0.26074,0.17984 0.37419,0.211427 0.39301,0.109402 0.84939,0.04861 1.15721,-0.233246 0.34249,-0.313638 0.48219,-0.801383 0.65541,-1.219995 0.2327,-0.56231 0.48105,-1.11805 0.71159,-1.681251 0.0978,-0.239004 0.24431,-0.488149 0.29243,-0.742372 -0.18916,0 -0.59524,-0.07721 -0.75657,0.02512 -0.12655,0.08026 -0.1924,0.385982 -0.24817,0.52076 -0.17586,0.424976 -0.31457,0.985597 -0.58917,1.353734 -0.17835,-0.461183 -0.36707,-0.919498 -0.55825,-1.375568 -0.0547,-0.130527 -0.11783,-0.418568 -0.23849,-0.498926 -0.16582,-0.110431 -0.6211,-0.02512 -0.81901,-0.02512 m -65.044792,0.218347 c 0.02286,0.207402 0.198226,0.22603 0.371186,0.277919 0.272856,0.08186 0.591017,0.169364 0.609988,0.508121 0.01635,0.291858 -0.104475,0.579573 -0.195134,0.851543 -0.148241,0.444721 -0.303007,0.887256 -0.451248,1.331899 -0.542113,1.62604 -1.110102,3.242981 -1.652135,4.869082 -0.180064,0.540196 -0.373088,1.075588 -0.553142,1.615749 -0.07591,0.22772 -0.130612,0.554006 -0.312959,0.720534 -0.04334,-0.299296 -0.186088,-0.588539 -0.283688,-0.873378 -0.179334,-0.523375 -0.347101,-1.050153 -0.530759,-1.57208 -0.466418,-1.325467 -0.867487,-2.675546 -1.348527,-3.995701 -0.20014,-0.549268 -0.381457,-1.1048 -0.566331,-1.659417 -0.111363,-0.334083 -0.26535,-0.669294 -0.282553,-1.026216 -0.02059,-0.427306 0.229929,-0.603673 0.61007,-0.719833 0.201052,-0.06144 0.518301,-0.07214 0.524026,-0.328222 H 62.660359 61.63414 c -0.07872,0 -0.292665,-0.03758 -0.332772,0.05258 -0.04186,0.09409 0.06728,0.147584 0.136353,0.172738 0.203493,0.0741 0.416586,0.132246 0.611273,0.227956 0.71607,0.352006 0.927314,1.383089 1.16446,2.079517 0.864502,2.5388 1.801436,5.062009 2.734464,7.576556 0.266348,0.71781 0.508952,1.44466 0.777794,2.16161 0.08331,0.22218 0.142484,0.64226 0.305021,0.81404 0.07395,0.0781 0.278676,0.0367 0.374357,0.0257 0.282324,-0.0325 0.580943,0.0167 0.866719,0.0116 0.37084,-0.007 0.475822,-0.79404 0.574972,-1.09149 0.395941,-1.18782 0.799676,-2.373039 1.200841,-3.559019 0.771285,-2.280172 1.466682,-4.602763 2.311375,-6.856012 0.135069,-0.360296 0.224667,-0.829664 0.541943,-1.081888 0.154648,-0.122942 0.360183,-0.183573 0.545632,-0.242353 0.08815,-0.02793 0.45138,-0.07504 0.34281,-0.239082 -0.08187,-0.123701 -0.534602,-0.05243 -0.670327,-0.05243 H 71.066618 M 16.262177,93.43253 h 2.467291 1.57208 0.917046 c 0.09123,0 0.280325,0.03546 0.355523,-0.02512 0.117053,-0.09427 0.03467,-0.58215 0.01566,-0.717267 -0.106566,-0.757528 -0.508427,-1.458841 -1.157223,-1.880315 -1.073521,-0.697389 -2.609206,-0.696808 -3.711854,-0.06529 -1.203709,0.689389 -1.718902,2.304118 -1.03802,3.539518 0.854708,1.550792 2.965163,1.889835 4.531529,1.382689 0.477472,-0.154592 0.923725,-0.381509 1.310068,-0.704062 0.09416,-0.07861 0.337621,-0.250751 0.322386,-0.393256 -0.01242,-0.11617 -0.473622,-0.437819 -0.577739,-0.376747 -0.108949,0.06391 -0.190251,0.19337 -0.290509,0.272757 -0.215091,0.1703 -0.465646,0.306058 -0.720536,0.406506 -1.394138,0.549391 -3.629869,0.297261 -3.995702,-1.439428 m 7.118027,-2.074276 c -0.04761,-0.211082 -0.02697,-0.439634 -0.05311,-0.65503 -0.0074,-0.06105 0.003,-0.172521 -0.04989,-0.215076 -0.121769,-0.09801 -0.528848,-0.02512 -0.683039,-0.02512 l 0.02183,5.240264 0.764206,-0.02182 v -2.074268 c 0,-0.592621 -0.0034,-1.201116 0.316437,-1.72492 0.62285,-1.020089 2.557536,-1.29819 3.212668,-0.152844 0.216766,0.378963 0.164102,0.806618 0.184046,1.222729 0.04348,0.907051 0.02054,1.820365 0.02054,2.729303 h 0.764205 v -2.074268 c 0,-0.554272 -0.0066,-1.13753 0.269255,-1.637583 0.571643,-1.036087 2.393651,-1.406258 3.159751,-0.371186 0.212891,0.287637 0.233969,0.598236 0.265303,0.938879 0.06283,0.683051 0.01754,1.388044 0.01754,2.074269 v 0.764206 c 0,0.07566 -0.02803,0.227075 0.0251,0.288794 0.0386,0.04482 0.139883,0.03197 0.193243,0.03497 0.186129,0.01044 0.379813,-0.01808 0.567695,-0.01808 V 92.93027 c 0,-0.556128 0.04727,-1.134973 -0.240789,-1.637582 -0.65455,-1.142061 -2.32295,-1.243066 -3.405562,-0.704122 -0.39423,0.196252 -0.785114,0.496296 -0.982549,0.900634 -0.159758,-0.277446 -0.30973,-0.540998 -0.567696,-0.741707 -0.814504,-0.633733 -2.138243,-0.600127 -3.013153,-0.112559 -0.333796,0.186016 -0.536817,0.446071 -0.786039,0.723256 m 14.716411,3.362505 c 0.09317,0.413017 0.07218,0.786528 0.502193,1.027452 0.407539,0.228335 0.96914,0.148766 1.353734,-0.09045 0.10805,-0.0672 0.307759,-0.187756 0.330345,-0.325715 0.02601,-0.158853 -0.26971,-0.394833 -0.352179,-0.523951 -0.219514,0.110274 -0.371169,0.377712 -0.655033,0.336994 -0.439024,-0.06297 -0.371186,-0.607043 -0.371186,-0.926527 v -1.615746 c 0,-0.398167 0.01902,-0.79332 -0.17283,-1.157221 -0.270661,-0.513377 -0.7785,-0.807328 -1.311911,-0.982494 -1.091613,-0.358478 -2.474918,-0.207407 -3.449842,0.408451 -0.286352,0.18089 -0.730992,0.486465 -0.826174,0.835826 -0.03804,0.139615 0.423639,0.484401 0.557138,0.457292 0.08759,-0.01778 0.157948,-0.196213 0.211564,-0.260553 0.138917,-0.166714 0.308916,-0.312987 0.494162,-0.425936 0.716857,-0.437092 1.607568,-0.564196 2.423622,-0.416164 0.406523,0.07374 0.879876,0.23429 1.136219,0.580317 0.119379,0.161138 0.20988,0.400871 0.09907,0.588685 -0.08756,0.148402 -0.266483,0.199808 -0.427411,0.220095 -0.331714,0.04182 -0.670721,0.06269 -1.004384,0.08863 -0.897512,0.06978 -1.886259,0.107644 -2.70747,0.516175 -0.39874,0.198359 -0.779321,0.493192 -0.899928,0.944302 -0.2496,0.933597 0.541359,1.611978 1.380286,1.781667 1.342414,0.271536 2.768413,0.0059 3.690019,-1.061132 m 3.49351,-3.275163 c -0.0013,-0.232591 -0.03374,-0.466246 -0.04497,-0.698704 -0.0033,-0.06855 7.39e-4,-0.211697 -0.05802,-0.258744 -0.122318,-0.09798 -0.528456,-0.02512 -0.683056,-0.02512 v 5.240264 l 0.786039,-0.04369 c -0.06732,-0.370802 -0.02183,-0.780884 -0.02183,-1.157226 0,-0.84333 -0.120708,-1.861404 0.364901,-2.598294 0.693603,-1.052513 2.704445,-1.325068 3.495882,-0.240181 0.300256,0.411584 0.287787,0.871904 0.310893,1.353734 0.04245,0.88533 0.02054,1.776613 0.02054,2.663801 h 0.786039 c 0,-0.691424 -0.04179,-1.38205 -0.02124,-2.074269 0.02029,-0.683405 0.09461,-1.403874 -0.175705,-2.052437 -0.592467,-1.421472 -2.629498,-1.559062 -3.842424,-0.918897 -0.391607,0.206688 -0.588567,0.546086 -0.917046,0.809726 m 19.672829,2.314447 -0.74237,-0.196507 c -0.20529,0.46925 -0.458327,0.868606 -0.895213,1.156997 -1.110107,0.732772 -2.947281,0.629975 -3.725591,-0.545638 -0.558069,-0.84294 -0.358957,-2.014199 0.406756,-2.655822 0.386427,-0.323804 0.882739,-0.469255 1.37557,-0.525325 0.614313,-0.06989 1.35284,0.118071 1.812259,0.541761 0.133208,0.122849 0.250632,0.257139 0.344697,0.412278 0.04263,0.07031 0.0817,0.212727 0.163748,0.244983 0.165256,0.06497 0.559822,-0.142343 0.736118,-0.17948 -0.207401,-1.043539 -1.498714,-1.623787 -2.445457,-1.705361 -1.447668,-0.124745 -3.065809,0.501649 -3.435305,2.054712 -0.07233,0.304024 -0.09931,0.626981 -0.07754,0.93888 0.01865,0.267152 0.07883,0.535939 0.173914,0.78604 0.664265,1.747199 2.91575,2.134186 4.496151,1.524405 0.752137,-0.290203 1.722665,-0.969535 1.812258,-1.851923 m 46.572852,-2.88214 c -0.41542,0.113013 -0.96648,0.02182 -1.3974,0.02182 0.10194,-0.638096 1.23966,-0.604116 1.3974,-0.02182 m 6.48484,0.02182 c -0.43093,0 -0.98198,0.09118 -1.39741,-0.02182 0.20361,-0.526473 1.32379,-0.663655 1.39741,0.02182 m 4.14854,-0.451252 c 0.99027,-0.142472 1.20741,1.380798 0.24018,1.511453 -0.94011,0.126991 -1.15322,-1.380094 -0.24018,-1.511453 m 3.64635,0 c 0.26622,-0.03832 0.55886,0.02886 0.72414,0.254971 0.29175,0.399083 0.15053,1.156231 -0.39663,1.24409 -0.29266,0.04699 -0.58726,-0.0071 -0.77076,-0.261783 -0.30209,-0.419214 -0.10683,-1.158138 0.44325,-1.237278 m 4.25771,0.451252 c -0.43091,0 -0.98198,0.09118 -1.3974,-0.02182 0.20504,-0.530177 1.31395,-0.661162 1.3974,0.02182 m 2.5328,-0.450489 c 0.2945,-0.04945 0.6103,0.03344 0.775,0.297665 0.23736,0.380766 0.12621,1.090807 -0.38198,1.192846 -0.31568,0.06338 -0.63874,0.0061 -0.83051,-0.275816 -0.27923,-0.41052 -0.0911,-1.12594 0.43749,-1.214695 m 5.34943,-9.85e-4 c 0.26622,-0.03832 0.55886,0.02886 0.72415,0.254972 0.29174,0.399083 0.15053,1.156231 -0.39663,1.24409 -0.29455,0.04728 -0.58632,-0.0059 -0.77076,-0.261784 -0.30362,-0.421297 -0.11093,-1.157546 0.44324,-1.237278 m -81.136766,5.254828 0.764205,-0.02182 v -3.908364 -0.960713 c 0,-0.08099 0.03384,-0.263838 -0.0375,-0.321297 -0.109604,-0.08827 -0.459067,-0.03182 -0.595613,-0.02773 -0.05929,0.002 -0.122573,0.0044 -0.143927,0.0699 -0.04439,0.135935 -0.009,0.33328 -0.009,0.475643 v 1.026216 2.467289 c 0,0.372363 -0.0759,0.841628 0.02183,1.200894 M 20.760064,92.733492 H 16.26217 c 0.08604,-1.581818 2.193257,-2.002972 3.384338,-1.490822 0.591981,0.254549 1.104274,0.817455 1.113556,1.490822 m 17.336544,0.349352 c 0,0.291843 -0.0014,0.578145 -0.1189,0.851542 -0.40249,0.93641 -1.595839,1.244561 -2.523067,1.244561 -0.450711,0 -1.004803,-0.03463 -1.375553,-0.321248 -0.366045,-0.283007 -0.383137,-0.792874 -0.02183,-1.087007 0.30457,-0.247954 0.735604,-0.337861 1.11354,-0.402147 0.381722,-0.06493 0.771255,-0.10695 1.157225,-0.131788 0.58864,-0.03788 1.178418,-0.153913 1.76859,-0.153913 m 78.182977,1.422538 c -0.0591,0.04758 -0.0375,0.170605 -0.0375,0.236911 v 0.65503 2.423623 c 0,0.21681 -0.0984,0.591798 0.19649,0.589419 0.0435,-3.3e-4 0.10092,0.0044 0.1372,-0.02497 0.0591,-0.04763 0.0375,-0.170605 0.0375,-0.23691 V 97.49345 95.069827 c 0,-0.21681 0.0984,-0.591798 -0.19649,-0.589419 -0.0435,3.3e-4 -0.10093,-0.0044 -0.1372,0.02497 m 6.03248,-0.02512 v 3.078663 c 0,0.219071 -0.13147,1.0692 0.31852,0.83588 0.0682,-0.03536 0.0526,-0.139181 0.0527,-0.202684 v -0.567694 c 0,-0.688517 -0.044,-1.634622 0.89521,-1.67996 0.12433,-0.006 0.25073,-0.002 0.37119,0.03187 0.70941,0.198645 0.54586,1.158694 0.54586,1.713596 0,0.135911 -0.0729,0.60649 0.0375,0.695433 0.0721,0.05805 0.24595,0.02512 0.33369,0.02512 v -1.266397 c 0,-0.298861 0.014,-0.611568 -0.0982,-0.895216 -0.35389,-0.895329 -1.52403,-0.719917 -2.08529,-0.174673 V 94.9388 l -0.0251,-0.421026 -0.34608,-0.03748 m 5.8298,0.01423 c -0.34017,0.09809 -0.18545,0.586552 0.13098,0.490675 0.33026,-0.100064 0.18562,-0.581972 -0.13098,-0.490675 m -27.03104,0.247785 c 0.10493,0.350357 0.30175,0.692069 0.45163,1.026216 0.27723,0.618071 0.54265,1.242893 0.83092,1.85593 0.13773,0.292926 0.22187,0.864289 0.63864,0.779543 0.12014,-0.02443 0.15573,-0.134664 0.20245,-0.233679 0.0986,-0.209018 0.18526,-0.423612 0.28277,-0.633201 0.42618,-0.916016 0.8454,-1.843094 1.23995,-2.772975 -0.48155,-0.131 -0.54568,0.320327 -0.7056,0.67687 -0.36407,0.811676 -0.76116,1.616763 -1.08483,2.445457 h -0.0437 c -0.21858,-0.719627 -0.63385,-1.430274 -0.94167,-2.117945 -0.12648,-0.282534 -0.23254,-0.751483 -0.44924,-0.973544 -0.0914,-0.09372 -0.30139,-0.05267 -0.42137,-0.05267 m 17.81692,2.925814 c -0.0412,0.06777 -0.11116,0.15508 -0.10507,0.238881 0.0156,0.214347 0.46315,0.342441 0.62909,0.393537 0.56407,0.173688 1.33861,0.18906 1.80428,-0.228823 0.11772,-0.105639 0.19351,-0.231552 0.24033,-0.381761 0.0308,-0.0989 0.0522,-0.201679 0.0507,-0.305678 -0.0132,-0.916193 -1.27431,-0.869392 -1.87694,-1.142691 -0.22183,-0.100601 -0.41083,-0.277102 -0.40083,-0.538565 0.0259,-0.675687 0.97401,-0.712598 1.44888,-0.566915 0.12639,0.03876 0.48777,0.278209 0.5769,0.147106 0.22977,-0.338019 -0.38883,-0.450475 -0.62057,-0.49701 -0.56996,-0.114451 -1.38001,-0.04664 -1.69089,0.523799 -0.0662,0.121464 -0.0985,0.255528 -0.0995,0.39302 -0.006,0.848435 0.91955,0.933821 1.55017,1.113572 0.24194,0.06896 0.53168,0.160164 0.66401,0.39302 0.20408,0.359129 -0.13211,0.72532 -0.4675,0.81838 -0.6421,0.178171 -1.15432,-0.0768 -1.70308,-0.359872 m -8.31893,-2.663804 v 0.611367 h -0.50219 l 0.0218,0.327518 c 0.11033,0 0.35912,-0.04625 0.44286,0.03748 0.10543,0.105427 0.0375,0.497103 0.0375,0.639367 0,0.641294 -0.18126,1.679281 0.69871,1.783694 0.11699,0.01389 0.23452,0.003 0.34935,-0.02182 0.1598,-0.03443 0.41833,-0.134394 0.27457,-0.337654 -0.077,-0.108846 -0.21848,-0.0071 -0.31824,0.01251 -0.18634,0.03669 -0.38306,0.02596 -0.51539,-0.128187 -0.11368,-0.132419 -0.11721,-0.334024 -0.11779,-0.50065 -9.8e-4,-0.327503 -2e-5,-0.655045 -2e-5,-0.982552 0,-0.113126 -0.0486,-0.378638 0.0375,-0.464694 0.0534,-0.05336 0.15624,-0.03748 0.22452,-0.03748 h 0.58953 v -0.305683 l -0.61136,-0.02182 -0.21508,-0.05267 -0.0251,-0.558695 h -0.37119 m 26.9437,0.938884 0.50219,0.02182 v 1.353738 c 0,0.257947 -0.0221,0.535881 0.12022,0.764191 0.18702,0.300015 0.58151,0.368063 0.906,0.303246 0.10148,-0.02029 0.3183,-0.07191 0.3363,-0.196808 0.01,-0.06918 -0.0479,-0.190755 -0.12378,-0.200778 -0.29116,-0.03847 -0.57782,0.254139 -0.79841,-0.124066 -0.097,-0.166251 -0.0691,-0.383528 -0.0691,-0.567619 0,-0.429291 -0.0727,-0.934722 0.0218,-1.353739 h 0.58952 l 0.21213,-0.03748 0.0281,-0.268186 c -0.21142,-0.006 -0.42084,-0.02079 -0.6332,-0.02187 -0.072,-3.3e-4 -0.16687,0.0076 -0.20269,-0.0702 -0.0649,-0.140817 0.0581,-0.380845 -0.0408,-0.503649 -0.0503,-0.06242 -0.29262,-0.06273 -0.34279,0 -0.10669,0.133389 0.0936,0.40196 -0.0408,0.536373 -0.10857,0.10856 -0.37091,-0.04753 -0.46013,0.07499 -0.0444,0.06101 -0.005,0.216056 -0.004,0.29002 m -30.52454,0.807875 c -0.50097,0.01399 -1.19926,-0.09412 -1.63756,0.199699 -0.47087,0.315657 -0.38202,1.049853 0.0873,1.316315 0.53763,0.30524 1.16337,0.115165 1.57208,-0.293281 v 0.436688 h 0.34934 V 96.96944 c 0,-0.417356 0.009,-0.808032 -0.32758,-1.11039 -0.37062,-0.333118 -1.00432,-0.28251 -1.441,-0.133951 -0.10931,0.03719 -0.47045,0.155913 -0.45077,0.306821 0.0455,0.349165 0.55344,-0.01916 0.73462,-0.05665 0.36311,-0.0751 0.88367,-0.05754 1.05705,0.339131 0.059,0.135029 0.0565,0.29236 0.0565,0.436689 m 1.39741,-1.135392 v 2.292618 c 0,0.122528 -0.0416,0.338998 0.0157,0.449524 0.0404,0.07795 0.27791,0.08038 0.33041,0.01517 0.0978,-0.121371 0.0251,-0.529783 0.0251,-0.683041 0,-0.602742 -0.11578,-1.489231 0.6332,-1.704149 0.12989,-0.03729 0.25897,-0.04261 0.39302,-0.04261 v -0.327517 c -0.45757,9.85e-4 -0.73676,0.186632 -1.04805,0.502191 6e-5,-0.107831 0.0771,-0.399409 -0.0157,-0.474136 -0.0743,-0.05984 -0.24375,-0.02808 -0.33368,-0.02808 m 6.37565,2.314452 c 0.0436,0.117367 -0.0386,0.372728 0.0621,0.455257 0.0356,0.02911 0.0916,0.02463 0.13447,0.02497 0.27886,0.0025 0.19644,-0.294001 0.19644,-0.502083 v -1.484743 c 0,-0.227291 0.0394,-0.495404 -0.005,-0.718326 -0.0225,-0.113821 -0.27234,-0.127967 -0.35079,-0.06445 -0.0546,0.04418 -0.0287,0.134635 -0.0223,0.193242 0.0172,0.158164 0.007,0.32142 0.007,0.480362 0,0.618124 0.10529,1.600012 -0.72053,1.743158 -0.10866,0.01882 -0.21746,0.03123 -0.32752,0.01877 -1.15459,-0.130961 -0.59755,-1.61567 -0.74709,-2.37107 -0.0221,-0.111697 -0.27552,-0.133807 -0.34136,-0.05205 -0.0929,0.115382 -0.0251,0.494241 -0.0251,0.639372 0,0.592749 -0.14517,1.433284 0.37178,1.859841 0.45941,0.379066 1.46847,0.373643 1.768,-0.222253 m 11.07006,-2.314457 v 1.965105 c 0,0.19836 -0.0776,0.599266 0.0157,0.774663 0.0501,0.09422 0.26679,0.05505 0.35553,0.05505 0.0122,-0.893408 -0.2695,-2.466518 1.02621,-2.467296 v -0.327518 c -0.44226,2.46e-4 -0.74052,0.173615 -1.02621,0.502191 l -0.0375,-0.477091 -0.33368,-0.02512 m 2.13977,0 0.0218,2.772979 c 0.088,0.0077 0.28019,0.06614 0.34607,-0.01566 0.1066,-0.132354 0.003,-0.541722 0.003,-0.704875 v -2.052441 h -0.37118 m 0.91704,0 c 0.0355,0.228355 0.19391,0.462965 0.28342,0.676869 0.22086,0.527798 0.45819,1.049951 0.69223,1.57208 0.11542,0.257503 0.18148,0.646445 0.55192,0.534487 0.19279,-0.05827 0.29461,-0.496813 0.36919,-0.665492 0.30201,-0.683056 0.70301,-1.382099 0.91988,-2.09611 -0.10078,-0.02744 -0.29223,-0.05919 -0.36991,0.03083 -0.14965,0.173427 -0.22037,0.481164 -0.31385,0.689699 -0.23208,0.51776 -0.52902,1.05037 -0.69181,1.593915 h -0.0437 l -0.70814,-1.615749 -0.31316,-0.683041 -0.3761,-0.03748 m 5.08742,1.135392 c -0.5014,0.01399 -1.19873,-0.09448 -1.63755,0.199699 -0.46843,0.314013 -0.37987,1.051075 0.0873,1.316316 0.5381,0.305506 1.16324,0.115298 1.57208,-0.293286 v 0.436693 h 0.34935 V 96.90391 c 0,-0.347435 0.007,-0.698043 -0.246,-0.970593 -0.36578,-0.393838 -1.02969,-0.37491 -1.50076,-0.215687 -0.11465,0.03876 -0.46319,0.146219 -0.47224,0.293798 -0.005,0.07634 0.0888,0.193533 0.16793,0.190912 0.16775,-0.0056 0.36927,-0.183036 0.5445,-0.222415 0.36143,-0.08121 0.87765,-0.06837 1.06865,0.312619 0.0697,0.13892 0.0667,0.307077 0.0667,0.458522 m 1.98694,-1.125876 c -0.24115,0.03108 -0.49405,0.103596 -0.67233,0.279229 -0.27101,0.26699 -0.27542,0.74252 0.0175,0.99366 0.34635,0.296886 0.88211,0.231699 1.28799,0.389996 0.18264,0.07123 0.33039,0.23953 0.27377,0.445539 -0.12594,0.458227 -0.96403,0.374313 -1.29999,0.259863 -0.0993,-0.03384 -0.33173,-0.210644 -0.42727,-0.165853 -0.3062,0.14355 0.015,0.360789 0.16526,0.423656 0.35557,0.148791 0.77794,0.195538 1.15723,0.13071 0.54501,-0.09316 1.15504,-0.736284 0.58815,-1.229698 -0.31984,-0.278382 -0.83728,-0.239102 -1.22135,-0.365812 -0.18227,-0.06012 -0.37427,-0.192445 -0.36707,-0.4066 0.0172,-0.511766 0.81894,-0.481539 1.15311,-0.382972 0.0981,0.02891 0.3061,0.176254 0.40236,0.116854 0.20242,-0.124917 0.0498,-0.297329 -0.0967,-0.35669 -0.28961,-0.117367 -0.65025,-0.17191 -0.96072,-0.131882 m 5.85164,1.104042 c -0.5323,0.123134 -1.25354,-0.130434 -1.70286,0.266985 -0.46359,0.410047 -0.25685,1.150453 0.30544,1.340666 0.56353,0.190632 0.97265,-0.01872 1.41925,-0.341249 -0.0134,0.102714 -0.0566,0.264965 -0.006,0.362177 0.0404,0.07795 0.2779,0.08038 0.33042,0.01517 0.0929,-0.115372 0.0251,-0.494251 0.0251,-0.639367 0,-0.573742 0.16282,-1.464594 -0.33183,-1.879468 -0.37607,-0.315436 -0.99993,-0.286996 -1.43676,-0.131916 -0.1216,0.04315 -0.5223,0.171378 -0.44338,0.351942 0.0228,0.05208 0.0794,0.133059 0.14258,0.135468 0.086,0.0034 0.18191,-0.09243 0.25713,-0.127769 0.14951,-0.07023 0.31672,-0.11257 0.48036,-0.131951 0.33154,-0.03926 0.74377,0.02433 0.89637,0.364453 0.0594,0.132281 0.0349,0.276939 0.0643,0.414854 m 0.89521,-1.113558 c 0.0549,0.276334 0.23768,0.571674 0.35434,0.829709 0.21625,0.478372 0.42039,0.962083 0.6351,1.441075 0.10846,0.241969 0.21484,0.670555 0.57681,0.502629 0.18215,-0.0845 0.28754,-0.545105 0.36464,-0.720971 0.29747,-0.678612 0.61834,-1.348901 0.90758,-2.030607 -0.0952,-0.02591 -0.29383,-0.05977 -0.37373,0.01566 -0.14882,0.140487 -0.22397,0.475033 -0.30812,0.661207 -0.246,0.544278 -0.52143,1.094294 -0.71555,1.659417 -0.33224,-0.477082 -0.52634,-1.12497 -0.75492,-1.659417 -0.0788,-0.184209 -0.1558,-0.528384 -0.30847,-0.661207 -0.0847,-0.07366 -0.2727,-0.03748 -0.37768,-0.03748 m 5.08742,1.135392 c -0.4918,9.85e-4 -1.24207,-0.09777 -1.65939,0.211077 -0.49782,0.368408 -0.33606,1.146154 0.21832,1.359127 0.57153,0.219568 1.00652,0.0039 1.4629,-0.325641 -0.0185,0.101586 -0.0547,0.265827 -0.003,0.362182 0.0413,0.07753 0.27482,0.08076 0.32764,0.01517 0.0905,-0.112377 0.0251,-0.476485 0.0251,-0.617533 0,-0.554434 0.15563,-1.394752 -0.26476,-1.832785 -0.36323,-0.378481 -1.01832,-0.364714 -1.48199,-0.207994 -0.11802,0.0399 -0.51868,0.168783 -0.4739,0.3379 0.0833,0.314367 0.5172,-0.02842 0.71408,-0.07265 0.61474,-0.138087 1.1353,0.09382 1.13539,0.771141 m -133.845114,4.36689 -0.78604,0.30568 c 0.473945,1.97647 2.925303,2.65261 4.694405,2.32282 0.979925,-0.18267 1.992721,-0.75859 2.173622,-1.82063 0.03077,-0.18068 0.04412,-0.36361 0.01904,-0.54586 -0.198914,-1.44545 -2.040371,-1.657699 -3.197041,-1.850488 -0.255186,-0.04255 -0.510305,-0.08679 -0.764205,-0.136388 -0.573444,-0.112033 -1.412166,-0.252022 -1.556937,-0.938939 -0.164611,-0.781055 0.65676,-1.25227 1.294924,-1.394816 1.106737,-0.247214 2.562476,0.179126 2.947649,1.351148 0.185438,-0.04684 0.373067,-0.162527 0.545858,-0.246042 0.05927,-0.02867 0.155326,-0.06157 0.177677,-0.130971 0.04392,-0.136393 -0.163362,-0.412302 -0.237394,-0.518198 -0.319309,-0.456749 -0.775255,-0.806599 -1.294015,-1.008376 -1.045284,-0.40657 -2.356015,-0.419839 -3.340669,0.167216 -0.835824,0.49833 -1.339952,1.720684 -0.732264,2.587914 0.318219,0.454134 0.868464,0.674273 1.387297,0.80512 0.863791,0.21785 1.760402,0.29006 2.620132,0.52333 0.61268,0.16623 1.442723,0.531 1.2548,1.31352 -0.174525,0.72674 -0.988232,1.02346 -1.64782,1.11654 -1.107968,0.15636 -2.407432,-0.15946 -3.136355,-1.05104 -0.211958,-0.25926 -0.296968,-0.55004 -0.422658,-0.85154 m 21.943611,-4.792595 c -0.392647,0.0747 -0.533443,0.599753 -0.31217,0.905835 0.152199,0.21053 0.417962,0.257848 0.66152,0.207166 0.39744,-0.08271 0.52464,-0.596078 0.302493,-0.903067 -0.148449,-0.205136 -0.414754,-0.25504 -0.651843,-0.209934 m 98.080297,0.775057 c 0,0.173324 0.0327,0.386006 -0.0473,0.545859 -0.21732,0.434649 -1.0525,0.629167 -1.40973,0.257055 -0.26633,-0.277426 -0.0843,-0.690847 0.25613,-0.775381 0.15114,-0.03753 0.30452,-0.02374 0.45852,-0.02862 0.24687,-0.0078 0.49513,9.85e-4 0.74237,9.85e-4 m 7.2272,-0.01458 c 0.11496,-0.0093 0.4846,-0.03221 0.57387,0.0397 0.0727,0.05852 0.0412,0.264743 0.0306,0.346086 -0.0563,0.431049 -0.48967,0.585518 -0.86648,0.608786 -0.40229,0.02482 -1.02974,-0.394025 -0.60273,-0.817666 0.21628,-0.214569 0.58988,-0.154706 0.86474,-0.17689 m -34.21456,0.01458 c 0,0.18185 0.0334,0.402231 -0.0572,0.567694 -0.2285,0.416918 -1.0467,0.602087 -1.39979,0.235211 -0.27822,-0.289085 -0.0722,-0.702348 0.27796,-0.780401 0.14304,-0.03192 0.29112,-0.02251 0.43669,-0.02251 h 0.74237 m 40.80856,0 c 0,0.177176 0.0254,0.381465 -0.0546,0.545859 -0.21336,0.438235 -1.04847,0.625833 -1.40494,0.259203 -0.28891,-0.297148 -0.0738,-0.699427 0.2805,-0.784932 0.14095,-0.03403 0.29278,-0.02014 0.43669,-0.02014 h 0.74237 M 21.262222,100.1353 c 0.530795,-1.078849 2.110457,-1.320084 3.165993,-1.113494 0.459133,0.08986 1.37388,0.446539 1.213357,1.069834 -0.04361,0.16933 -0.202655,0.25578 -0.361813,0.29061 -0.355435,0.0778 -0.750443,0.0766 -1.113557,0.10484 -0.792921,0.0616 -1.599194,0.12137 -2.358119,0.37605 -0.436388,0.14644 -0.862318,0.37658 -1.111667,0.77874 -0.593809,0.95773 0.292769,1.86239 1.199005,2.07664 1.380149,0.3263 2.779571,-0.0206 3.755523,-1.05042 1.4e-5,0.85488 0.682904,1.35826 1.506577,1.08442 0.209885,-0.0698 0.585498,-0.22239 0.666523,-0.45124 0.04912,-0.13873 -0.289562,-0.48161 -0.40451,-0.54584 -0.233168,0.26174 -0.749377,0.55825 -0.934833,0.0655 -0.02813,-0.0747 -0.03958,-0.16083 -0.04521,-0.24018 -0.0465,-0.65541 -0.0025,-1.32974 -0.0025,-1.98693 0,-0.34959 0.03613,-0.716561 -0.09773,-1.048054 -0.241058,-0.596984 -0.793465,-0.951975 -1.387017,-1.136041 -1.063012,-0.329651 -2.319576,-0.21419 -3.297,0.325389 -0.306666,0.16929 -0.59058,0.379362 -0.807209,0.657813 -0.05867,0.07541 -0.188455,0.221002 -0.17151,0.324784 0.01872,0.114658 0.236387,0.212806 0.323686,0.272398 0.08543,0.05832 0.161146,0.118321 0.262013,0.145181 m 7.794895,-0.720529 c 0,-0.240269 -0.01066,-0.481814 -0.03701,-0.720537 -0.0078,-0.07083 0.0182,-0.205565 -0.04416,-0.255794 -0.121857,-0.09814 -0.508186,-0.02808 -0.661206,-0.02808 v 7.40188 l 0.78604,-0.0218 c -0.05912,-0.26207 -0.02183,-0.56181 -0.02183,-0.82972 0,-0.76134 0.09775,-1.55777 0,-2.31444 0.150246,0.12059 0.247675,0.29612 0.393612,0.4237 0.409071,0.35763 0.888477,0.57508 1.418647,0.68111 1.159489,0.23191 2.566479,-0.045 3.34874,-0.99565 0.861514,-1.04697 0.76062,-2.68926 -0.183338,-3.646115 -0.436166,-0.442131 -1.035628,-0.691818 -1.636992,-0.808032 -0.546476,-0.105605 -1.116959,-0.09097 -1.659417,0.0265 -0.432211,0.09361 -0.863635,0.280604 -1.200894,0.570201 -0.182109,0.15637 -0.314418,0.37222 -0.502192,0.51677 m 9.192299,1.965106 h 2.467291 1.550246 0.93888 c 0.09124,0 0.280327,0.0355 0.355525,-0.0251 0.117472,-0.0946 0.02432,-0.53975 0.01139,-0.6736 -0.07435,-0.769766 -0.506822,-1.493269 -1.15295,-1.919279 -1.421291,-0.937096 -3.773805,-0.655488 -4.684015,0.87122 -0.275307,0.461789 -0.359924,0.955799 -0.35974,1.484749 1.65e-4,0.37689 0.103551,0.75861 0.279303,1.09172 0.843022,1.59779 2.925905,1.85265 4.502439,1.41572 0.479966,-0.13302 0.982803,-0.38767 1.353735,-0.72138 0.08962,-0.0806 0.318241,-0.24779 0.31081,-0.38377 -0.0064,-0.11697 -0.465762,-0.43858 -0.568535,-0.38006 -0.106275,0.0605 -0.190171,0.18849 -0.288137,0.2654 -0.223916,0.17581 -0.476836,0.31674 -0.74237,0.41943 -0.958566,0.37068 -2.159328,0.38075 -3.056822,-0.1614 -0.458888,-0.2772 -0.865327,-0.72827 -0.917046,-1.28365 m 7.139861,-1.986935 c 0,-0.241575 -0.01726,-0.480253 -0.03938,-0.720538 -0.0062,-0.06724 0.01793,-0.188814 -0.04179,-0.23691 -0.124684,-0.100414 -0.546687,-0.02512 -0.704875,-0.02512 l 0.02183,5.240273 0.764205,-0.0218 v -1.94327 c 0,-0.58919 -0.0061,-1.16922 0.279347,-1.703087 0.606964,-1.135003 2.713443,-1.507076 3.543389,-0.414855 0.339868,0.447272 0.347643,0.992232 0.347643,1.528412 v 1.41924 0.80787 c 0,0.0752 -0.02817,0.22768 0.0251,0.28872 0.04137,0.0474 0.138976,0.0191 0.193243,0.0175 0.188953,-0.005 0.378666,-4.9e-4 0.567695,-4.9e-4 0,-0.79281 0.02183,-1.58596 0.02183,-2.37996 0,-0.98886 -0.0124,-2.052877 -0.960716,-2.640105 -0.182719,-0.11315 -0.383347,-0.195315 -0.58953,-0.254277 -0.315375,-0.09019 -0.634347,-0.11877 -0.960715,-0.11877 -0.396035,0 -0.805928,0.05278 -1.17906,0.19268 -0.339892,0.127444 -0.650499,0.304501 -0.914539,0.556365 -0.134314,0.128124 -0.224516,0.29633 -0.373693,0.408181 m 11.419412,2.117946 c -0.203957,0.4662 -0.44767,0.84452 -0.873378,1.14119 -1.099169,0.76599 -3.006185,0.64693 -3.76482,-0.55166 -0.537801,-0.8497 -0.336301,-2.0258 0.445986,-2.651785 0.3957,-0.316642 0.880035,-0.452258 1.375569,-0.50755 0.619125,-0.06909 1.348421,0.130202 1.809753,0.554981 0.133821,0.123218 0.248681,0.264473 0.341477,0.420903 0.03846,0.06483 0.07219,0.193071 0.148849,0.221941 0.169153,0.0637 0.556624,-0.140717 0.734908,-0.178273 -0.319014,-1.065299 -1.438274,-1.604415 -2.467291,-1.707301 -1.348688,-0.134852 -2.871996,0.438732 -3.34044,1.816474 -0.106219,0.3124 -0.153092,0.63164 -0.153071,0.96072 2.2e-5,0.31206 0.0455,0.62101 0.145624,0.91704 0.138938,0.41078 0.378569,0.79053 0.70592,1.07632 0.365993,0.31954 0.794595,0.5488 1.266397,0.66769 0.61371,0.15464 1.255006,0.1798 1.877761,0.0623 0.815125,-0.15379 1.638922,-0.57686 2.130122,-1.26044 0.122728,-0.17079 0.217065,-0.35137 0.296262,-0.54587 0.02367,-0.0581 0.07812,-0.16184 0.03627,-0.22233 -0.03652,-0.0528 -0.135053,-0.0611 -0.191872,-0.0771 -0.173871,-0.0491 -0.347118,-0.1 -0.524027,-0.13724 m 7.751227,0.98255 c -0.122782,-0.0837 -0.418293,-0.39079 -0.5664,-0.36895 -0.11154,0.0164 -0.240206,0.21145 -0.328813,0.28102 -0.229895,0.1805 -0.490673,0.32468 -0.764205,0.42778 -0.967065,0.36449 -2.21393,0.37783 -3.10049,-0.20906 -0.428294,-0.28353 -0.798008,-0.71472 -0.851544,-1.24435 h 2.467292 2.096107 c 0.165415,0 0.618251,0.0798 0.748543,-0.0251 0.110942,-0.0893 0.02384,-0.46189 0.01689,-0.58626 -0.03932,-0.70302 -0.382561,-1.369636 -0.918273,-1.824061 -1.564126,-1.326796 -4.523748,-0.790813 -5.179858,1.256361 -0.10881,0.33951 -0.126369,0.71606 -0.101571,1.06989 0.01683,0.24012 0.07958,0.47496 0.165443,0.6987 0.67665,1.76318 2.956024,2.13049 4.570125,1.66871 0.606231,-0.17344 1.4523,-0.54872 1.746756,-1.14468 M 35.716614,98.410409 v 5.218431 h 0.78604 v -3.821044 -0.982547 l -0.0251,-0.37458 -0.215077,-0.04029 h -0.54586 m -4.301385,0.530689 c 0.768408,-0.08487 1.70614,0.272609 2.194464,0.866713 0.602666,0.733219 0.523227,1.899639 -0.122714,2.575879 -0.441679,0.46238 -1.062278,0.64567 -1.67873,0.71446 -0.739701,0.0825 -1.592203,-0.13507 -2.139549,-0.65089 -0.850464,-0.80148 -0.759397,-2.19414 0.108946,-2.937858 0.457982,-0.392257 1.057687,-0.504255 1.637583,-0.568304 m 11.332073,1.740092 h -4.497831 c 0.01925,-0.66215 0.555555,-1.19576 1.113556,-1.468172 1.238836,-0.604787 3.247049,-0.09471 3.384339,1.468172 m 20.699048,0 h -4.497895 c 0.02108,-0.725357 0.66464,-1.327671 1.310067,-1.550076 1.239456,-0.427099 3.054263,0.02985 3.187828,1.550076 m 42.162303,2.88215 -0.0655,0.0218 c 0.0481,0.2186 -0.099,0.69089 -0.3903,0.44844 -0.12716,-0.10584 -0.301,-0.3705 -0.32955,-0.53578 -0.0269,-0.15575 0.1302,-0.37115 0.17026,-0.52403 0.10518,-0.40137 0.002,-0.91851 0.19491,-1.28798 0.0906,-0.17363 0.30603,-0.15152 0.39834,-0.30593 -0.37898,0 -0.85713,-0.0776 -1.22273,0.0218 v 0.0218 c 0.14512,0.0678 0.33045,0.0442 0.45028,0.16148 0.11779,0.11534 0.14885,0.294 0.1703,0.44988 0.0613,0.44529 -0.0584,0.92365 -0.22756,1.3319 -0.26711,-0.38366 -0.45078,-0.86886 -0.66046,-1.28823 -0.0853,-0.17056 -0.25868,-0.39925 -0.28264,-0.58894 -0.0167,-0.13219 0.22568,-0.2765 0.30007,-0.37178 0.21767,-0.27881 0.2343,-0.80854 -0.12119,-0.99282 -0.55414,-0.287263 -1.16227,0.40432 -1.13262,0.92732 0.009,0.16167 0.20696,0.50697 0.14187,0.64526 -0.0331,0.0703 -0.14842,0.11417 -0.21013,0.15555 -0.14019,0.094 -0.2685,0.20316 -0.39294,0.31704 -0.47182,0.43176 -0.64168,1.11461 -0.28134,1.67696 0.32303,0.50412 1.05583,0.68211 1.61317,0.52272 0.17249,-0.0493 0.35639,-0.23406 0.52152,-0.25332 0.12106,-0.0141 0.28048,0.23909 0.41736,0.27722 0.33068,0.0921 0.76721,-0.0366 0.90539,-0.37194 0.0574,-0.13934 0.0335,-0.31095 0.0335,-0.45853 m -1.9214,-3.39609 c 0.6704,-0.16076 0.62758,1.07757 0.0889,1.15804 -0.11362,0.017 -0.17852,-0.19425 -0.21472,-0.27291 -0.11346,-0.24646 -0.27223,-0.78968 0.12586,-0.88513 m 12.75128,1.27815 -0.50219,0.0218 c -0.008,0.0798 -0.0338,0.26701 0.0527,0.31185 0.11005,0.0571 0.38115,-0.0613 0.42826,0.0928 0.0575,0.18802 0.0213,0.42713 0.0213,0.62155 v 1.22273 c 0,0.23655 -0.0808,0.66152 0.30097,0.53685 0.13399,-0.0437 0.0702,-0.46442 0.0702,-0.58052 v -1.87776 h 0.82971 l 0.0218,-0.30569 c -0.19016,-0.01 -0.37658,-0.0218 -0.56769,-0.0218 -0.0746,0 -0.18786,0.0195 -0.25302,-0.0251 -0.20034,-0.13699 0.035,-0.6442 0.18759,-0.72861 0.24017,-0.13284 0.46346,0.008 0.69863,0.055 0.0282,-0.0681 0.088,-0.16074 0.0667,-0.23701 -0.0675,-0.24237 -0.63141,-0.21583 -0.80909,-0.16653 -0.46561,0.12919 -0.6266,0.64359 -0.54586,1.08041 m 7.8604,0.48035 v -0.72054 c 0,-0.23568 0.0641,-0.57919 -0.009,-0.80316 -0.0324,-0.0992 -0.30009,-0.10708 -0.34652,-0.0175 -0.0998,0.1924 -0.0157,0.62583 -0.0157,0.84254 v 2.11794 0.6332 c 0,0.069 -0.0214,0.18854 0.0251,0.24635 0.0453,0.0562 0.17263,0.0425 0.23599,0.0353 0.12096,-0.0137 0.10992,-0.11848 0.11009,-0.21614 v -0.61136 c 0,-0.33255 -0.0452,-0.70559 0.0606,-1.02622 0.16789,-0.50886 0.76319,-0.72737 1.24947,-0.5622 0.31729,0.10776 0.4531,0.40796 0.49268,0.71504 0.0675,0.52394 -0.0905,1.09618 0.0142,1.61233 0.0225,0.11063 0.25191,0.12771 0.32897,0.0656 0.0657,-0.0529 0.0375,-0.2066 0.0375,-0.28057 v -0.78605 c 0,-0.4059 0.0472,-0.86027 -0.17378,-1.22272 -0.44883,-0.73629 -1.49011,-0.53426 -2.00966,-0.0218 m 6.39749,-1.59392 v 3.05683 c 0,0.25967 -0.14947,1.01144 0.30097,0.86437 0.0799,-0.0261 0.0699,-0.11927 0.0702,-0.18751 9.8e-4,-0.17151 -0.0322,-0.3801 0.0171,-0.54586 0.069,-0.23176 0.46846,-0.51578 0.65976,-0.65503 l 0.78599,1.00438 0.33209,0.37458 0.41034,0.0184 -0.29624,-0.41486 -0.61613,-0.78604 -0.30633,-0.43668 0.29914,-0.34247 0.81039,-0.79293 c -0.44021,-0.0993 -0.66742,0.16862 -0.96072,0.45859 -0.34595,0.342 -0.72801,0.76162 -1.1354,1.02616 v -1.92143 c 0,-0.15326 0.0726,-0.56168 -0.0251,-0.68305 -0.0599,-0.0743 -0.26046,-0.0375 -0.34609,-0.0375 m 3.55902,1.59392 v -0.72054 c 0,-0.23568 0.0641,-0.57919 -0.009,-0.80316 -0.0324,-0.0992 -0.3001,-0.10709 -0.34653,-0.0175 -0.0998,0.1924 -0.0157,0.62582 -0.0157,0.84254 v 2.11794 0.6332 c 0,0.069 -0.0214,0.18854 0.0251,0.24635 0.0453,0.0562 0.17264,0.0425 0.23599,0.0353 0.12096,-0.0137 0.10993,-0.11848 0.11008,-0.21614 v -0.61136 c 0,-0.33255 -0.0452,-0.70559 0.0606,-1.02622 0.16756,-0.50791 0.76422,-0.72702 1.24946,-0.56221 0.31728,0.10776 0.4531,0.40797 0.49268,0.71505 0.0675,0.52394 -0.0905,1.09618 0.0142,1.61233 0.0225,0.11063 0.25193,0.12771 0.32898,0.0656 0.0657,-0.0529 0.0375,-0.2066 0.0375,-0.28058 v -0.78604 c 0,-0.4059 0.0472,-0.86027 -0.17378,-1.22273 -0.44884,-0.73628 -1.49012,-0.53425 -2.00967,-0.0218 m 13.07884,-1.59391 v 3.10049 c 0,0.22325 -0.0603,0.54725 0.009,0.75949 0.0306,0.0939 0.25709,0.0996 0.32469,0.0451 0.10835,-0.0873 0.0375,-0.54078 0.0375,-0.67361 0,-0.70517 -0.0802,-1.72019 0.89521,-1.76728 0.11013,-0.005 0.22008,-0.002 0.32752,0.0236 0.79253,0.19147 0.58953,1.29058 0.58953,1.89655 0,0.21096 -0.0906,0.54668 0.19649,0.5457 0.0434,-1.7e-4 0.10099,0.004 0.1372,-0.0249 0.0657,-0.0529 0.0375,-0.2066 0.0375,-0.28058 v -0.78604 c 0,-0.4036 0.0459,-0.86237 -0.17378,-1.22272 -0.44881,-0.73626 -1.49051,-0.53387 -2.00966,-0.0218 v -1.1354 l -0.0251,-0.42102 -0.34608,-0.0375 m 7.1617,3.9302 c 0.0889,-0.004 0.26097,0.0334 0.33368,-0.0251 0.0621,-0.05 0.0358,-0.17826 0.0281,-0.24635 -0.0178,-0.15714 -0.043,-0.3899 0.0345,-0.53513 0.12749,-0.23896 0.44309,-0.37595 0.60816,-0.59082 h 0.0218 c 0.21684,0.33952 0.50178,0.6483 0.75584,0.96071 0.10287,0.12649 0.21418,0.33004 0.36022,0.40863 0.11186,0.0602 0.31628,0.0383 0.43419,0.006 -0.28318,-0.41915 -0.63728,-0.79982 -0.94635,-1.2009 -0.07,-0.0908 -0.31915,-0.31618 -0.28918,-0.43608 0.0284,-0.1134 0.21681,-0.22709 0.29664,-0.30636 0.26113,-0.25927 0.59034,-0.51309 0.80788,-0.8078 -0.42705,-0.0558 -0.56577,0.1127 -0.87338,0.38636 -0.24314,0.21631 -0.48662,0.43545 -0.72054,0.66169 -0.14365,0.13894 -0.3017,0.32511 -0.48035,0.41486 l -0.0218,-2.62014 -0.33369,0.0281 -0.0375,0.23396 v 0.65503 l 0.0193,2.48913 0.002,0.52402 m 3.51534,0 v -1.52841 -1.02622 -0.58953 c 0,-0.21081 0.0565,-0.51531 -0.009,-0.71582 -0.031,-0.0951 -0.27907,-0.10474 -0.33708,-0.0327 -0.0495,0.0615 -0.0251,0.19456 -0.0251,0.26819 v 0.65503 2.0961 c 0,0.21151 -0.0818,0.63283 0.0157,0.82071 0.0482,0.0928 0.26825,0.0527 0.35553,0.0527 m -50.76507,-0.0218 0.33369,-0.003 0.0375,-0.30242 0.0218,-0.82971 c 0.44516,0 0.91374,0.042 1.35373,-0.0316 0.30663,-0.0513 0.60175,-0.15948 0.82282,-0.38757 0.42371,-0.43718 0.42648,-1.23519 0.002,-1.67432 -0.41874,-0.43356 -1.05559,-0.41743 -1.61124,-0.41743 h -0.69869 c -0.0702,0 -0.20841,-0.025 -0.25874,0.0375 -0.0495,0.0615 -0.0251,0.19456 -0.0251,0.26819 v 0.67687 c 0,0.88863 0.0218,1.77633 0.0218,2.6638 m 13.29717,-0.72054 c -0.0407,0.0696 -0.12576,0.17396 -0.10631,0.25949 0.0505,0.22188 0.5301,0.35027 0.71767,0.39753 0.58803,0.14817 1.48191,0.15916 1.8585,-0.41692 0.073,-0.11159 0.11409,-0.2406 0.13656,-0.37111 0.15733,-0.91362 -1.03054,-1.03865 -1.64571,-1.21645 -0.20305,-0.0587 -0.42536,-0.14908 -0.54524,-0.33386 -0.22454,-0.34615 0.0584,-0.7218 0.3924,-0.8461 0.54656,-0.20339 1.03587,0.0237 1.52841,0.23481 0.0317,-0.0811 0.1149,-0.21106 0.0886,-0.29986 -0.0553,-0.18651 -0.55875,-0.26847 -0.72175,-0.29503 -0.57228,-0.0932 -1.3937,-0.0359 -1.67099,0.57305 -0.0549,0.12067 -0.0757,0.23947 -0.0757,0.37119 0,0.81421 0.91803,0.92261 1.52838,1.08826 0.24912,0.0676 0.54373,0.15516 0.67803,0.39655 0.21185,0.38077 -0.12999,0.72135 -0.48152,0.81995 -0.61809,0.17337 -1.15805,-0.0649 -1.68125,-0.3615 m 23.40652,0 c -0.0407,0.0696 -0.12576,0.17396 -0.10632,0.25949 0.0505,0.22188 0.53012,0.35027 0.71768,0.39753 0.58803,0.14817 1.48191,0.15916 1.8585,-0.41692 0.073,-0.11159 0.11408,-0.2406 0.13656,-0.37111 0.15733,-0.91362 -1.03054,-1.03865 -1.64571,-1.21645 -0.20304,-0.0587 -0.42537,-0.14907 -0.54524,-0.33386 -0.22454,-0.34615 0.0584,-0.7218 0.3924,-0.8461 0.54655,-0.20339 1.03587,0.0237 1.52841,0.23481 0.0317,-0.081 0.1149,-0.21106 0.0886,-0.29986 -0.0553,-0.18651 -0.55876,-0.26847 -0.72175,-0.29503 -0.57229,-0.0932 -1.3937,-0.0359 -1.67099,0.57305 -0.0549,0.12067 -0.0757,0.23947 -0.0757,0.37119 0,0.81421 0.91803,0.92261 1.52838,1.08826 0.25024,0.0679 0.54372,0.15397 0.67803,0.3965 0.21106,0.38111 -0.12934,0.72122 -0.48152,0.82 -0.61809,0.17337 -1.15804,-0.0649 -1.68125,-0.3615 m -36.31067,-0.74237 c -0.002,-0.44291 -0.0218,-0.88753 -0.0218,-1.3319 0,-0.11643 -0.0507,-0.39237 0.0251,-0.48653 0.0414,-0.0515 0.13529,-0.0374 0.19323,-0.0375 l 0.52403,-10e-6 c 0.40581,0 0.87629,-0.0249 1.1741,0.30629 0.29699,0.33032 0.27888,0.97166 -0.0433,1.2803 -0.17497,0.16764 -0.43632,0.24252 -0.67233,0.26504 -0.38646,0.0368 -0.79081,0.004 -1.17906,0.004 m -82.01013,-1.76828 c 0.154703,0.56866 -0.22047,1.21326 -0.655033,1.54472 -0.788325,0.60128 -2.231801,0.80823 -3.144159,0.37855 -0.434512,-0.20464 -0.698055,-0.73633 -0.322561,-1.13465 0.243596,-0.25841 0.640654,-0.36877 0.977594,-0.43911 0.355225,-0.0742 0.728884,-0.13309 1.091722,-0.15172 0.660265,-0.0339 1.408073,-0.0524 2.052437,-0.19779 m 85.32898,0.45853 v 2.29261 c 0,0.12253 -0.0417,0.33901 0.0157,0.44952 0.0404,0.078 0.2779,0.0804 0.33041,0.0152 0.0977,-0.12136 0.0251,-0.52978 0.0251,-0.68304 0,-0.60639 -0.11467,-1.48449 0.6332,-1.70692 0.12797,-0.0381 0.26084,-0.0398 0.39302,-0.0399 0,-0.0788 0.0273,-0.22488 -0.0251,-0.29002 -0.0612,-0.076 -0.22524,-0.0264 -0.30241,-0.007 -0.31679,0.0782 -0.49865,0.24368 -0.72053,0.47206 4.9e-4,-0.1101 0.0819,-0.39557 -0.0157,-0.47414 -0.0743,-0.0598 -0.24373,-0.0281 -0.33369,-0.0281 m 3.07866,0.01 c -0.23711,0.0326 -0.45555,0.10349 -0.65503,0.23883 -1.19014,0.80749 -0.3898,2.71692 1.00438,2.5368 0.21459,-0.0277 0.42685,-0.0959 0.61137,-0.21071 1.25377,-0.77984 0.47723,-2.7624 -0.96072,-2.56492 m 13.55919,1.56241 0.80787,-0.0218 h 1.52841 c 0,-0.49748 -0.12624,-0.9817 -0.54586,-1.29567 -0.76253,-0.57054 -1.92787,-0.13641 -2.12465,0.79348 -0.20565,0.97174 0.54826,1.81334 1.53512,1.74425 0.26029,-0.0182 0.52762,-0.097 0.74237,-0.24778 0.0796,-0.0559 0.20743,-0.13826 0.15653,-0.2513 -0.0296,-0.0657 -0.10104,-0.13697 -0.1786,-0.119 -0.1027,0.0238 -0.18976,0.12743 -0.28361,0.17479 -0.1657,0.0836 -0.36241,0.10783 -0.54586,0.11518 -0.60596,0.0243 -0.9207,-0.36821 -1.09172,-0.89212 m 11.59409,-0.43668 c -0.49181,0.003 -1.24145,-0.0982 -1.6594,0.21107 -0.51756,0.38302 -0.31848,1.15087 0.24016,1.36476 0.56214,0.21524 0.99435,-0.009 1.44107,-0.33127 -0.0185,0.10159 -0.0547,0.26582 -0.003,0.36218 0.0413,0.0775 0.27482,0.0808 0.32764,0.0152 0.0905,-0.11238 0.0251,-0.47648 0.0251,-0.61754 0,-0.55359 0.15477,-1.39564 -0.26477,-1.83278 -0.36324,-0.37848 -1.01833,-0.36471 -1.48199,-0.20799 -0.11959,0.0404 -0.5162,0.16706 -0.47094,0.3379 0.0831,0.31355 0.51306,-0.0282 0.71113,-0.0726 0.61473,-0.13809 1.13529,0.0938 1.13538,0.77114 m 1.39741,-1.13539 0.0175,2.20528 0.0261,0.58953 c 0.0834,-0.004 0.26565,0.0353 0.32424,-0.0375 0.0922,-0.11442 0.004,-0.41567 0.003,-0.55204 -0.001,-0.45739 -0.10221,-1.08997 0.17625,-1.48474 0.11383,-0.16137 0.26676,-0.2898 0.45692,-0.34803 0.0897,-0.0275 0.309,-0.0109 0.36813,-0.0825 0.0572,-0.0693 0.0281,-0.20776 0.0249,-0.29002 -0.45545,2.5e-4 -0.73493,0.18909 -1.04805,0.5022 0.0226,-0.1003 0.076,-0.40327 -0.0157,-0.4771 -0.0721,-0.058 -0.24595,-0.0251 -0.33369,-0.0251 m 12.44563,2.31446 h 0.0218 c 0,0.11801 -0.0394,0.32144 0.0157,0.42768 0.0426,0.0822 0.29725,0.0822 0.33986,0 0.0904,-0.17431 0.0157,-0.55934 0.0157,-0.7552 0,-0.65181 0.0626,-1.34066 -0.0218,-1.98694 -0.0856,0 -0.28621,-0.0368 -0.34608,0.0375 -0.0881,0.10937 -0.0251,0.45873 -0.0251,0.5957 0,0.56903 0.13584,1.29794 -0.39304,1.68203 -0.42364,0.30765 -1.13831,0.15919 -1.31913,-0.35013 -0.14043,-0.39556 -0.0564,-0.91713 -0.0564,-1.3319 0,-0.25971 0.10326,-0.7633 -0.3228,-0.62419 -0.0903,0.0294 -0.0725,0.15622 -0.0689,0.23117 0.0111,0.23357 0.0205,0.46415 0.0205,0.6987 0,0.48261 -0.0826,1.0554 0.23391,1.46284 0.40782,0.52501 1.57809,0.56146 1.90586,-0.0873 m 7.75123,-1.17906 c -0.50612,9.9e-4 -1.2887,-0.10326 -1.70248,0.24838 -0.47986,0.40781 -0.21446,1.15593 0.32691,1.34332 0.55222,0.19114 0.96462,-0.0324 1.3974,-0.34714 v 0.41486 c 0.0833,0 0.2432,0.0302 0.31186,-0.0251 0.0591,-0.0476 0.0375,-0.1706 0.0375,-0.23691 v -0.61136 c 0,-0.67848 0.15422,-1.64617 -0.6987,-1.86688 -0.38613,-0.0999 -0.81307,-0.0605 -1.17906,0.0959 -0.15097,0.0645 -0.43173,0.17345 -0.28162,0.37123 0.11971,0.15774 0.45037,-0.1054 0.60914,-0.1468 0.36819,-0.096 0.91463,-0.0905 1.11236,0.30194 0.0713,0.14147 0.0667,0.30456 0.0667,0.45853 m -57.73436,-0.79898 c 0.0716,0.002 0.10407,0.11372 0.12976,0.16578 0.0828,0.16779 0.16723,0.33482 0.25091,0.50219 0.18639,0.37277 0.38102,0.74088 0.56769,1.11355 0.0528,0.10536 0.20823,0.29161 0.18741,0.41333 -0.0286,0.16688 -0.40214,0.25912 -0.54219,0.2615 -0.21323,0.003 -0.3813,-0.19368 -0.50159,-0.34731 -0.29548,-0.37738 -0.55995,-0.92971 -0.54587,-1.41924 0.006,-0.21036 0.1764,-0.69935 0.45388,-0.6898 m 10.98677,-0.002 c 0.402,-0.0515 0.81863,0.0757 1.04546,0.42981 0.38127,0.59526 0.10458,1.57737 -0.65244,1.67979 -0.36716,0.0497 -0.74239,-0.009 -0.99635,-0.30483 -0.5146,-0.59915 -0.2276,-1.69835 0.60333,-1.80477 m 15.52428,0.88832 h -1.9651 c 0.10815,-1.16199 1.94848,-1.20072 1.9651,0 m 9.62899,0.26201 c 0,0.17718 0.0254,0.38147 -0.0546,0.54586 -0.21067,0.4327 -1.0187,0.61766 -1.38484,0.27872 -0.29272,-0.27097 -0.13238,-0.68806 0.21674,-0.79264 0.16483,-0.0494 0.33364,-0.0209 0.50219,-0.0362 0.23646,-0.0215 0.48163,0.004 0.72054,0.004 m 21.59426,0 c 0,0.17253 0.0345,0.38707 -0.0449,0.54587 -0.21466,0.42931 -1.06039,0.63261 -1.41219,0.25883 -0.2747,-0.29184 -0.0779,-0.70285 0.27802,-0.78219 0.14304,-0.0319 0.29111,-0.0225 0.43668,-0.0225 h 0.74237 m -42.64258,0.71721 c -0.33716,0.12973 -0.15675,0.70375 0.17436,0.56901 0.32822,-0.13357 0.16674,-0.70025 -0.17436,-0.56901 m -64.105985,1.99026 -0.02183,0.74237 c -0.124024,-0.11557 -0.247812,-0.17583 -0.414854,-0.20464 -0.126726,-0.0219 -0.250073,-0.0113 -0.371186,0.0326 -0.100584,0.0364 -0.19224,0.0912 -0.260414,0.17482 -0.353637,0.43374 0.08262,0.93797 0.566096,0.91157 0.176387,-0.01 0.415937,-0.0773 0.480358,-0.25928 h 0.02183 l 0.02183,0.26202 h 0.131007 V 105.66 h -0.152841 m 32.664321,0 v 1.65942 c 0.06827,-5e-4 0.161322,0.01 0.187506,-0.0702 0.04053,-0.12415 0.009,-0.30207 0.009,-0.43197 0,-0.31613 0.08751,-0.78665 -0.0094,-1.0876 -0.02568,-0.0798 -0.1196,-0.0691 -0.187145,-0.0696 m 0.655033,0 0.02183,1.65942 h 0.152841 c 0,-0.24909 2.47e-4,-0.436 0.218344,-0.58954 0.117233,0.23364 0.399966,0.57985 0.676868,0.58954 l -0.37189,-0.48036 -0.134503,-0.21583 0.462724,-0.43921 c -0.369799,9.9e-4 -0.530599,0.31754 -0.829709,0.48036 l -0.02183,-1.00438 h -0.174676 m -51.179924,1.65942 -0.02183,-1.31007 c 0.237709,0.2212 0.351396,0.69183 0.496755,0.98255 0.05302,0.10605 0.120607,0.31808 0.266917,0.31808 0.133044,0 0.197789,-0.19959 0.246149,-0.29625 0.142758,-0.28534 0.260748,-0.7463 0.496755,-0.96071 v 1.2664 h 0.174676 v -1.57208 l -0.271358,0.0375 -0.208999,0.39919 -0.414855,0.93888 c -0.254977,-0.26655 -0.392476,-0.75912 -0.551709,-1.09172 -0.06488,-0.13553 -0.154922,-0.37251 -0.356337,-0.26819 -0.09766,0.0506 -0.05267,0.30726 -0.05267,0.39919 v 0.80788 c 0,0.0827 -0.03003,0.24317 0.0251,0.31185 0.03801,0.0473 0.117925,0.037 0.171413,0.0375 m 2.183444,-1.57208 2e-6,1.17906 c 2.48e-4,0.1958 -0.04153,0.39098 0.196508,0.39302 v -1.17906 c 0,-0.19897 0.05312,-0.39089 -0.19651,-0.39302 m 0.611364,0 v 0.15284 h 0.58953 c 0.09717,0.43075 0.04367,0.97652 0.04367,1.41924 h 0.174676 v -1.39741 c 0.167385,0 0.335627,0.008 0.501506,-0.0185 0.05473,-0.009 0.176219,-0.0615 0.09351,-0.1312 -0.07547,-0.0636 -0.283429,-0.025 -0.376673,-0.025 h -1.026219 m 3.187828,0 0.02183,1.57208 h 0.807875 c 0.143166,-1e-5 0.274671,0.0215 0.283848,-0.15284 l -0.917047,-0.0218 v -0.96071 l -0.01566,-0.38402 -0.180849,-0.0527 m 14.192386,0.01 c -0.571565,0.088 -0.992033,0.71317 -0.591656,1.22963 0.215598,0.27812 0.603938,0.37351 0.941007,0.32236 0.53754,-0.0816 0.999347,-0.64123 0.65169,-1.16902 -0.206478,-0.31346 -0.64098,-0.43841 -1.001041,-0.38297 m 8.209749,9.8e-4 c -0.270366,0.0511 -0.621119,0.45317 -0.302334,0.68362 0.248158,0.1794 0.605021,0.11036 0.869939,0.24548 0.11888,0.0606 0.1878,0.17472 0.122094,0.3038 -0.143272,0.28147 -0.668669,0.18726 -0.863767,0.0292 -0.06072,-0.0492 -0.195305,-0.29021 -0.290628,-0.21784 -0.120196,0.0913 0.117803,0.3032 0.180865,0.35127 0.223706,0.17055 0.564731,0.2037 0.829692,0.12558 0.272558,-0.0804 0.545435,-0.46358 0.238633,-0.68008 -0.230381,-0.16258 -0.546618,-0.13842 -0.806328,-0.22015 -0.105628,-0.0332 -0.240978,-0.10762 -0.222118,-0.23877 0.04677,-0.32522 0.554874,-0.27479 0.743639,-0.13141 0.05318,0.0404 0.16782,0.20218 0.248191,0.14775 0.09605,-0.065 -0.06705,-0.22383 -0.115345,-0.26085 -0.168833,-0.12941 -0.424461,-0.17686 -0.632533,-0.13754 m 10.633372,-0.011 v 1.57208 l 0.180848,-0.0527 0.01566,-0.36218 v -0.89522 c 0.279301,0.25023 0.48829,0.61872 0.715142,0.91705 0.16153,0.21243 0.239667,0.39132 0.529421,0.39302 v -1.57208 h -0.19651 v 1.3319 c -0.253244,-0.29612 -0.468252,-0.62863 -0.704097,-0.93888 -0.164675,-0.21662 -0.247023,-0.39132 -0.540466,-0.39302 m 1.943265,0 0.02183,1.57208 h 0.78604 c 0.145655,0 0.274652,0.0246 0.283848,-0.15284 l -0.895212,-0.0218 v -0.96072 l -0.01566,-0.38401 -0.180848,-0.0527 m 1.506576,0 v 1.57208 h 0.174676 l 0.02183,-0.61136 c 0.286641,0 0.700706,0.067 0.960699,-0.076 0.317378,-0.17456 0.315981,-0.63498 0,-0.80874 -0.305245,-0.16784 -0.819911,-0.076 -1.157209,-0.076 m 2.641967,0.0218 c 0.03258,0.29275 0.482111,-4.9e-4 0.608096,0.18369 0.05852,0.0856 0.0251,0.26306 0.0251,0.36218 0,0.32291 0.03028,0.66177 0,0.98255 0.228211,0.0603 0.196509,-0.13933 0.196509,-0.30569 v -1.06988 c 0.168391,0 0.334719,8e-5 0.501873,-0.0235 0.04943,-0.007 0.150271,-0.0444 0.104012,-0.11404 -0.04937,-0.0743 -0.266848,-0.0372 -0.343871,-0.0372 -0.355599,0 -0.741284,-0.0418 -1.091722,0.0218 m -37.424229,0 c -0.03596,8e-5 -0.07339,-0.002 -0.109209,0.002 -0.261851,0.031 0.0522,0.36474 0.112624,0.10593 0.0084,-0.036 9.35e-4,-0.0723 -0.0034,-0.10814 m 45.197289,0 c -0.04293,3e-5 -0.08764,-0.003 -0.130388,0.002 -0.266135,0.0311 0.06406,0.36773 0.12389,0.10593 0.008,-0.035 0.0059,-0.0726 0.0065,-0.10814 m 0.698703,0.0655 c 0,0.0895 0.03307,0.26561 -0.05267,0.32424 -0.06554,0.0448 -0.246506,-0.0143 -0.276305,0.0744 -0.0361,0.10746 0.254034,0.0632 0.294851,0.13443 0.123453,0.21528 -0.02825,0.52572 0.07844,0.75495 0.157238,0.33788 0.737285,0.19984 0.763565,-0.1526 -0.161743,0.0223 -0.252439,0.19194 -0.414855,0.20018 -0.352395,0.0179 -0.218343,-0.63287 -0.218343,-0.83337 0.156375,0 0.325805,0.0182 0.480037,-0.0103 0.04184,-0.008 0.149807,-0.0388 0.104012,-0.10312 -0.103447,-0.14543 -0.441609,0.0499 -0.568388,-0.0769 -0.06699,-0.067 -0.0375,-0.22533 -0.0375,-0.31185 h -0.152841 m -33.384858,0.0724 c 0.25703,-0.0329 0.54834,-0.003 0.737403,0.19273 0.400905,0.41491 0.04737,1.00056 -0.453554,1.06004 -0.244844,0.0291 -0.517268,-0.005 -0.69553,-0.19132 -0.38222,-0.39958 -0.101689,-0.9957 0.411681,-1.06145 m 22.467639,0.6263 v -0.61136 c 0.257663,-0.007 0.63226,-0.10168 0.871831,0.0213 0.188829,0.0969 0.212902,0.44807 0.02019,0.55648 -0.21102,0.11872 -0.653178,0.0336 -0.892024,0.0336 m -3.449841,-0.54586 -0.02183,0.0218 0.02183,-0.0218 m -31.725445,0.19644 v 0.7642 l 0.01566,0.31852 0.159019,0.0527 v -1.13539 h -0.174675 m 1.986933,0.72054 c -0.165424,-0.0667 -0.224112,0.0899 -0.349577,0.17055 -0.122081,0.0785 -0.293773,0.10446 -0.436463,0.0866 -0.402193,-0.0505 -0.539565,-0.59666 -0.152838,-0.78171 0.283723,-0.13576 0.464331,0.0386 0.697786,0.15639 0.07558,0.0381 0.113255,-0.022 0.08112,-0.0909 -0.282819,-0.60705 -1.446273,-0.13187 -1.118361,0.54646 0.236441,0.48911 1.098541,0.40354 1.278337,-0.0873 m 1.724921,0.10917 c -0.350167,0.0427 -0.944712,0.35889 -1.135391,-0.15284 h 1.135391 c -0.0014,-0.24075 -0.08747,-0.46322 -0.305754,-0.58949 -0.39415,-0.228 -0.968495,-9.8e-4 -0.994898,0.48032 -0.02483,0.45266 0.523885,0.62137 0.885798,0.54978 0.166138,-0.0328 0.394315,-0.0945 0.414854,-0.28777 m 0.480358,-0.82971 0.02183,1.13539 c 0.331125,-0.007 0.09247,-0.57292 0.235488,-0.78579 0.152704,-0.22729 0.590462,-0.29564 0.738653,-0.0214 0.116642,0.21585 0.05208,0.56925 0.05208,0.80721 0.288147,-0.006 0.206132,-0.67205 0.119583,-0.87337 -0.175522,-0.40827 -0.669297,-0.2459 -0.949291,-0.0874 -0.04698,-0.12213 -0.08311,-0.16963 -0.218345,-0.17468 m 2.685636,0.34936 c 0.02317,-0.40184 -0.735467,-0.45204 -0.92103,-0.174 -0.269762,0.40421 0.442893,0.42536 0.659017,0.47292 0.07264,0.016 0.202476,0.0459 0.208579,0.13912 0.0069,0.10509 -0.124285,0.16064 -0.208582,0.17013 -0.227396,0.0256 -0.413204,-0.002 -0.589524,-0.15124 -0.03682,-0.0312 -0.124133,-0.11962 -0.169809,-0.0527 -0.0895,0.13111 0.168873,0.27976 0.257144,0.31426 0.253857,0.0992 0.623662,0.10438 0.82321,-0.11208 0.120394,-0.1306 0.0606,-0.29582 -0.08109,-0.37881 -0.21139,-0.12381 -0.553727,-0.029 -0.737088,-0.19524 -0.09733,-0.0882 -0.01217,-0.18216 0.0824,-0.22238 0.117918,-0.0501 0.255907,-0.0188 0.371093,0.0244 0.10999,0.0413 0.197368,0.1213 0.305681,0.16563 m 1.855928,0.50219 c -0.134994,-0.0307 -0.223233,0.0584 -0.349351,0.0917 -0.299744,0.079 -0.61459,0.0212 -0.78604,-0.24449 l 1.113556,-0.0218 c -1.65e-4,-0.23946 -0.06306,-0.4509 -0.283847,-0.58048 -0.349415,-0.20507 -0.940059,-0.0688 -0.999432,0.38397 -0.06453,0.49204 0.425004,0.70876 0.846591,0.63849 0.174377,-0.0291 0.389795,-0.0889 0.458523,-0.2673 m 5.502278,-0.85155 0.0013,0.89521 -0.0013,0.65504 c 0.299509,0.0791 0.19651,-0.42268 0.19651,-0.61137 0.140517,0.0943 0.267072,0.1634 0.436688,0.18684 0.244375,0.0338 0.512342,-0.0471 0.661537,-0.25257 0.245366,-0.33798 0.0038,-0.76642 -0.377689,-0.84073 -0.106831,-0.0208 -0.219133,-0.0388 -0.327516,-0.0224 -0.156136,0.0237 -0.282419,0.10572 -0.414855,0.18644 -0.0091,-0.12124 -0.05004,-0.18345 -0.174707,-0.19652 m 3.144159,0.85155 c -0.14493,-0.0341 -0.235664,0.0651 -0.371186,0.0965 -0.294983,0.0684 -0.596091,0.0112 -0.764204,-0.24938 l 1.113556,-0.0218 c -1.65e-4,-0.2223 -0.04893,-0.41464 -0.240254,-0.55237 -0.375439,-0.27026 -0.993903,-0.0873 -1.051965,0.39953 -0.05907,0.49532 0.509772,0.66313 0.8992,0.58713 0.162425,-0.0317 0.351493,-0.0952 0.414853,-0.25961 m 0.436689,-0.85155 0.02183,1.13539 c 0.334852,-0.007 0.08761,-0.5745 0.234284,-0.78579 0.161088,-0.23206 0.61831,-0.3022 0.752957,-2e-5 0.09774,0.21935 0.03898,0.55041 0.03898,0.78581 0.04867,-9.8e-4 0.115286,0.006 0.149595,-0.0375 0.04641,-0.0582 0.02508,-0.17703 0.02508,-0.24635 0,-0.22755 0.04037,-0.53738 -0.136897,-0.71465 -0.142835,-0.14284 -0.421811,-0.16535 -0.605474,-0.10402 -0.07248,0.0242 -0.154728,0.10316 -0.231404,0.103 -0.08052,-1.7e-4 -0.139968,-0.12768 -0.248953,-0.13588 m 4.956417,0.01 c -0.424449,0.065 -0.722887,0.54014 -0.406591,0.90562 0.163134,0.1885 0.452131,0.24643 0.69044,0.20967 0.366541,-0.0565 0.707523,-0.45424 0.476236,-0.81966 -0.155837,-0.24621 -0.480811,-0.33838 -0.760085,-0.29563 m 1.244563,-0.01 c 0,0.26745 -0.04341,0.65079 0.07943,0.89514 0.189745,0.37743 0.723377,0.24189 0.968625,0.0219 0.0131,0.14516 0.04287,0.21261 0.19651,0.21834 v -0.78604 l -0.02509,-0.31185 -0.171414,-0.0375 c 0,0.21331 0.06194,0.54167 -0.0214,0.73985 -0.109391,0.26012 -0.580414,0.32639 -0.753858,0.11009 -0.184575,-0.23018 0.106693,-0.84668 -0.272798,-0.84994 m 1.724921,0 v 1.13539 h 0.152841 c 0,-0.27835 -0.07547,-0.95057 0.327517,-0.97868 0.131465,-0.009 0.311818,0.25446 0.382577,0.20899 0.147329,-0.0947 -0.10181,-0.30846 -0.186142,-0.33975 -0.221148,-0.082 -0.336083,0.0562 -0.523952,0.12689 l -0.02183,-0.15284 h -0.131007 m 1.812259,0.0122 c -0.409658,0.0863 -0.644703,0.55867 -0.355604,0.90212 0.227209,0.26994 0.660715,0.27682 0.945134,0.10089 0.05355,-0.0331 0.333118,-0.22683 0.223621,-0.30866 -0.09733,-0.0727 -0.259631,0.15542 -0.332869,0.19886 -0.200299,0.11881 -0.502421,0.10525 -0.669463,-0.0612 -0.370055,-0.36874 0.102035,-0.79969 0.516698,-0.66375 0.07987,0.0262 0.279993,0.2295 0.355443,0.18335 0.09357,-0.0572 -0.04967,-0.19422 -0.09482,-0.22723 -0.159942,-0.11691 -0.394033,-0.16528 -0.588138,-0.12438 m 2.576463,0.83936 c -0.141977,-0.0323 -0.237545,0.0658 -0.371185,0.0966 -0.297223,0.0683 -0.594956,0.013 -0.764206,-0.2494 l 1.113557,-0.0218 c -1.24e-4,-0.2233 -0.0486,-0.41145 -0.240254,-0.54941 -0.361905,-0.26052 -0.984095,-0.10526 -1.048218,0.37473 -0.06592,0.49347 0.472324,0.68492 0.873617,0.61292 0.170785,-0.0306 0.36988,-0.0895 0.436689,-0.26356 m 9.847338,-0.84149 c -0.409641,0.0627 -0.711895,0.51749 -0.423906,0.88454 0.160661,0.20477 0.459957,0.26897 0.707754,0.23074 0.381926,-0.0589 0.726933,-0.47447 0.465015,-0.84148 -0.16307,-0.2285 -0.477782,-0.3153 -0.748863,-0.2738 m 1.790424,-1e-5 c -0.426459,0.0656 -0.727061,0.5352 -0.406592,0.90562 0.160837,0.18591 0.432382,0.24603 0.668605,0.20967 0.420303,-0.0647 0.774974,-0.51859 0.442942,-0.90246 -0.160032,-0.18503 -0.470336,-0.24894 -0.704955,-0.21283 m 3.428007,-0.0101 v 1.13539 h 0.174676 v -1.13539 h -0.174676 m -41.66011,0.52403 -0.960715,-0.0218 c 0.123621,-0.49382 0.841234,-0.45545 0.960715,0.0218 m 5.000087,0 h -0.938881 c 0.0369,-0.53593 0.824469,-0.45701 0.938881,0 m 1.157225,-0.36384 c 0.201766,-0.0306 0.440143,-0.0138 0.583623,0.14704 0.218803,0.24517 0.044,0.59916 -0.256107,0.65282 -0.195769,0.035 -0.413798,0.0452 -0.561863,-0.1117 -0.23012,-0.24389 -0.09578,-0.63803 0.234347,-0.68816 m 5.06559,9.8e-4 c 0.190496,-0.0351 0.44187,-0.0178 0.583639,0.12787 0.245339,0.25218 0.05504,0.62082 -0.256123,0.67965 -0.196371,0.0371 -0.4231,0.0187 -0.561789,-0.13975 -0.204141,-0.23325 -0.06871,-0.61193 0.23427,-0.66779 m 2.423623,0.36292 h -0.93808 c 0.03689,-0.53592 0.824468,-0.457 0.938881,0 m 5.567782,-0.36385 c 0.193359,-0.0289 0.436561,-0.0193 0.579679,0.13188 0.24286,0.25643 0.03944,0.63636 -0.273997,0.68317 -0.175092,0.0262 -0.403329,0.0204 -0.537662,-0.11048 -0.255547,-0.24895 -0.112403,-0.65305 0.23198,-0.70457 m 7.18353,0.36385 h -0.938881 c 0.05506,-0.53102 0.82287,-0.4634 0.938881,0 m 10.022007,-0.36385 c 0.204155,-0.0305 0.451402,-0.0169 0.593064,0.15284 0.206452,0.24736 0.03099,0.60862 -0.265547,0.65926 -0.179803,0.0307 -0.420793,0.0276 -0.559497,-0.10753 -0.255547,-0.24895 -0.112402,-0.65305 0.23198,-0.70457 m 1.790424,1e-5 c 0.203201,-0.0309 0.439435,-0.0168 0.583261,0.14704 0.228644,0.26042 0.03069,0.61587 -0.277578,0.66522 -0.184228,0.0295 -0.405531,0.0232 -0.540029,-0.12288 -0.227588,-0.24712 -0.100446,-0.63853 0.234346,-0.68938 m -43.712546,0.51669 c -0.0026,-0.0507 -1.65e-4,-0.11036 -0.05267,-0.1372 -0.143552,-0.0734 -0.442371,-0.0159 -0.602364,-0.0156 -0.06396,8e-5 -0.151286,-0.0115 -0.206648,0.028 -0.173298,0.12349 0.225732,0.12487 0.272152,0.12487 h 0.240179 z"
       id="path1" /></g></svg>
