<?xml version="1.0" encoding="UTF-8" standalone="no"?>
<!-- Created with Inkscape (http://www.inkscape.org/) -->

<svg
   width="58.256847mm"
   height="60.830791mm"
   viewBox="0 0 58.256847 60.830791"
   version="1.1"
   id="svg1"
   xml:space="preserve"
   inkscape:export-filename="SemanticSapience-VSS-DevLogo.svg"
   inkscape:export-xdpi="96"
   inkscape:export-ydpi="96"
   xmlns:inkscape="http://www.inkscape.org/namespaces/inkscape"
   xmlns:sodipodi="http://sodipodi.sourceforge.net/DTD/sodipodi-0.dtd"
   xmlns:xlink="http://www.w3.org/1999/xlink"
   xmlns="http://www.w3.org/2000/svg"
   xmlns:svg="http://www.w3.org/2000/svg"><sodipodi:namedview
     id="namedview1"
     pagecolor="#ffffff"
     bordercolor="#000000"
     borderopacity="0.25"
     inkscape:showpageshadow="2"
     inkscape:pageopacity="0.0"
     inkscape:pagecheckerboard="0"
     inkscape:deskcolor="#d1d1d1"
     inkscape:document-units="mm" /><defs
     id="defs1"><linearGradient
       id="linearGradient11"
       inkscape:collect="always"><stop
         style="stop-color:#064bb3;stop-opacity:1"
         offset="0"
         id="stop11" /><stop
         style="stop-color:#040404;stop-opacity:0;"
         offset="1"
         id="stop12" /></linearGradient><linearGradient
       inkscape:collect="always"
       xlink:href="#linearGradient11"
       id="linearGradient12"
       x1="3.8223939"
       y1="128.81467"
       x2="67.656372"
       y2="189.59073"
       gradientUnits="userSpaceOnUse"
       gradientTransform="matrix(0.48168406,0,0,0.48168406,43.364813,38.094135)" /></defs><g
     inkscape:label="Layer 1"
     inkscape:groupmode="layer"
     id="layer1"
     transform="translate(-25.407979,-76.82694)"><path
       style="fill:url(#linearGradient12);fill-opacity:1;stroke:none;stroke-width:0.481684"
       d="m 64.430511,102.65688 c 2.13112,-1.00867 4.078482,-2.877806 5.989944,-4.260813 0.66983,-0.484646 1.480316,-1.36345 2.29402,-1.572462 0.730474,-0.18764 2.03461,0.801402 2.803801,0.982669 2.240202,0.527926 4.793021,-0.207206 6.346809,-1.905359 4.488052,-4.905037 -0.375304,-12.579182 -6.729145,-10.880552 -2.66328,0.712 -4.506714,3.213563 -4.70075,5.911519 -0.05753,0.799918 0.519053,2.065398 0.195626,2.775314 -0.243848,0.535237 -1.029263,0.930006 -1.48482,1.269733 -1.18227,0.881675 -2.368942,1.760888 -3.568489,2.618869 -0.768638,0.549774 -2.196595,2.143431 -3.186123,2.100508 -1.168643,-0.05069 -2.424899,-1.375285 -3.695924,-1.580926 -0.576407,-0.09326 -1.479213,0.151875 -1.947424,-0.265412 -0.494781,-0.440972 -0.600636,-1.464671 -0.78069,-2.075158 -0.450736,-1.528249 -0.913943,-3.055625 -1.350061,-4.588041 -0.157316,-0.552766 -0.540326,-1.3286 -0.439242,-1.90821 0.131448,-0.753715 1.316477,-1.431132 1.770898,-2.042697 0.91098,-1.226003 1.293558,-2.824378 1.209176,-4.333053 -0.261882,-4.682189 -5.595824,-7.47024 -9.677866,-5.361255 -3.766021,1.945715 -4.627576,6.981748 -1.939955,10.175703 0.813161,0.966355 1.887359,1.608444 3.086965,1.971359 0.573886,0.173619 1.599574,0.105128 2.026804,0.552704 0.408757,0.428227 0.504209,1.286082 0.674563,1.837572 0.469843,1.521028 0.857053,3.066463 1.32392,4.58804 0.178143,0.580589 0.670815,1.545575 0.462432,2.150628 -0.195896,0.568792 -0.991421,0.954616 -1.41439,1.34685 -0.568068,0.52679 -0.913528,1.29854 -1.483898,1.79379 -0.455333,0.39537 -1.211386,0.0317 -1.716876,-0.0995 -1.488916,-0.38667 -2.971062,-0.79509 -4.460596,-1.18002 -1.42836,-0.36911 -3.893715,-0.54446 -5.070304,-1.441673 -0.59486,-0.453607 -0.550271,-1.642577 -0.783555,-2.315162 -0.376855,-1.08652 -1.14374,-2.11138 -2.049095,-2.81408 -4.677833,-3.630751 -10.886871,0.109482 -10.700543,5.745325 0.148946,4.50514 5.187426,7.18552 9.172525,5.52023 0.834081,-0.34854 1.558821,-0.87982 2.170589,-1.5428 0.32852,-0.35602 0.643236,-1.00762 1.158943,-1.103 1.257726,-0.23263 3.47491,0.82402 4.699539,1.18036 1.515301,0.44093 3.066937,0.77427 4.58804,1.20098 0.542467,0.15218 1.433376,0.22273 1.820263,0.67268 0.454756,0.52888 0.335879,1.91528 0.549788,2.61041 0.155041,0.50382 0.633401,1.1287 0.612185,1.65679 -0.03103,0.77254 -1.327362,1.65871 -1.835225,2.16657 l -4.205704,4.20571 c -0.550733,0.55073 -1.188762,1.46576 -1.911683,1.78367 -0.679268,0.29873 -2.127468,-0.81581 -2.803803,-1.06651 -1.703257,-0.63135 -3.698286,-0.70633 -5.48016,-0.4159 -8.130652,1.3252 -11.388264,11.94869 -5.709926,17.78137 5.948542,6.11024 16.517725,2.83507 18.112611,-5.46552 0.340217,-1.77067 0.103439,-3.79426 -0.488752,-5.48016 -0.236377,-0.67294 -1.322305,-2.00037 -1.058688,-2.67636 0.281741,-0.72246 1.223603,-1.37342 1.761867,-1.91168 l 4.333149,-4.33315 c 0.505251,-0.50525 1.288205,-1.65436 2.039129,-1.75156 0.98306,-0.12724 2.352048,0.91797 3.44103,0.97889 1.085027,0.0607 2.1482,-0.029 3.186138,-0.36274 0.520435,-0.16732 1.206267,-0.66741 1.755753,-0.63078 0.47929,0.0319 0.970294,0.73064 1.295368,1.04277 0.953138,0.91517 1.849696,1.8891 2.803806,2.80378 0.322806,0.30947 1.024509,0.81324 1.088645,1.27977 0.11466,0.83405 -0.976176,2.24438 -1.156235,3.13959 -0.696679,3.46375 0.411195,7.14613 3.2613,9.33218 7.137041,5.47416 17.503223,-1.71241 14.494475,-10.35174 -1.417663,-4.0707 -5.531722,-6.55272 -9.77899,-6.07849 -1.009962,0.11276 -2.008387,0.33018 -2.931245,0.76968 -0.414629,0.19746 -0.964081,0.69987 -1.44104,0.45247 -1.38172,-0.7167 -2.680292,-2.62416 -3.784558,-3.72507 -0.347699,-0.34664 -1.10389,-0.85554 -1.129944,-1.38785 -0.04258,-0.87005 0.784095,-1.99734 0.940055,-2.90274 0.279959,-1.62532 -0.139896,-3.05027 -0.574457,-4.58804 z"
       id="path11" /></g></svg>
