<?xml version="1.0" encoding="UTF-8" standalone="no"?>
<!-- Created with Inkscape (http://www.inkscape.org/) -->

<svg
   width="67.773743mm"
   height="68.201164mm"
   viewBox="0 0 67.773743 68.201164"
   version="1.1"
   id="svg1"
   xml:space="preserve"
   inkscape:export-filename="SemanticSapience-VSS-DevLogo.svg"
   inkscape:export-xdpi="96"
   inkscape:export-ydpi="96"
   xmlns:inkscape="http://www.inkscape.org/namespaces/inkscape"
   xmlns:sodipodi="http://sodipodi.sourceforge.net/DTD/sodipodi-0.dtd"
   xmlns="http://www.w3.org/2000/svg"
   xmlns:svg="http://www.w3.org/2000/svg"><sodipodi:namedview
     id="namedview1"
     pagecolor="#ffffff"
     bordercolor="#000000"
     borderopacity="0.25"
     inkscape:showpageshadow="2"
     inkscape:pageopacity="0.0"
     inkscape:pagecheckerboard="0"
     inkscape:deskcolor="#d1d1d1"
     inkscape:document-units="mm" /><defs
     id="defs1" /><g
     inkscape:label="Layer 1"
     inkscape:groupmode="layer"
     id="layer1"
     transform="translate(-35.035565,-171.93217)"><path
       style="fill:#074fb6;fill-opacity:1;stroke:none"
       d="m 44.316191,194.31478 c -2.54771,0 -6.20429,-0.70361 -8.12611,1.36345 -1.40059,1.50644 -1.13431,3.61888 -1.13431,5.51572 v 12.7 c 0,1.89684 -0.26628,4.00928 1.13431,5.51572 1.92182,2.06705 5.5784,1.36345 8.12611,1.36345 v 12.96458 c 0,1.65945 -0.38206,3.90825 0.88711,5.21293 1.83196,1.88321 7.24697,0.87249 9.69622,0.87249 h 27.51667 c 2.47193,0 8.68006,1.1112 10.44549,-0.87249 1.11609,-1.25406 0.66701,-3.66233 0.66701,-5.21293 v -12.96458 c 2.5477,0 6.20428,0.7036 8.126099,-1.36345 1.4006,-1.50644 1.13431,-3.61888 1.13431,-5.51572 v -12.7 c 0,-1.89684 0.26629,-4.00928 -1.13431,-5.51572 -1.921819,-2.06706 -5.578399,-1.36345 -8.126099,-1.36345 0,-1.97785 0.49939,-4.75359 -0.22345,-6.61458 -1.38279,-3.56006 -5.97043,-7.19471 -8.49317,-10.05416 -1.39817,-1.58478 -3.24462,-4.77255 -5.33665,-5.41842 -1.85143,-0.57159 -4.39189,-0.13783 -6.31965,-0.13783 h -12.96458 -10.58334 c -1.3114,0 -3.08533,-0.29385 -4.14017,0.667 -1.51059,1.376 -1.15149,4.11976 -1.15149,5.94758 v 15.61041 m 46.56666,-4.7625 v 4.7625 h -43.92083 v -14.02291 c 0,-1.25962 -0.52361,-4.07401 0.30419,-5.10187 0.9533,-1.1837 5.41887,-0.45438 6.83956,-0.45438 h 17.19792 c 1.46094,0 4.982,-0.64469 6.1602,0.30419 0.83185,0.66993 0.45438,2.72371 0.45438,3.66456 0,2.51216 -1.01153,7.83086 0.30419,9.99704 0.67349,1.10883 2.29949,0.85078 3.39998,0.85087 h 9.26041 m -32.01458,12.96459 c -1.8289,-0.57318 -3.7094,-0.97437 -5.55625,-0.21021 -3.26318,1.35018 -4.44612,5.80805 -2.45359,8.67595 1.11179,1.60024 2.87834,2.54757 4.83484,2.51232 0.85176,-0.0153 1.98686,-0.51145 2.80409,-0.17455 0.97079,0.40022 0.87562,2.10036 0.90008,2.95482 -3.56546,0.47276 -7.12379,1.05659 -10.31783,-1.09695 -4.59201,-3.09611 -4.55755,-11.19299 -0.2489,-14.52354 2.88741,-2.23194 12.25618,-4.21586 10.03756,1.86216 m 14.2875,-3.175 c -0.11987,0.83034 -0.20123,2.60247 -1.1602,2.92606 -1.27596,0.43056 -5.53659,-1.69045 -5.53659,1.30815 0,2.30233 5.67932,3.22778 6.83432,5.29375 4.07395,7.2871 -7.04042,8.80505 -11.51461,6.8762 l 0.79375,-3.175 c 0.98589,0.18233 1.92451,0.53455 2.91041,0.71982 1.58784,0.29838 5.64121,-0.38103 3.60859,-2.79596 -1.858,-2.20747 -5.3151,-1.80185 -6.62778,-4.80391 -2.95844,-6.76585 6.56634,-7.64809 10.69211,-6.34911 m 6.61458,-0.52917 3.43959,13.49375 h 0.52916 l 2.49561,-9.78958 1.36712,-3.39998 4.07477,-0.30419 -4.23333,12.7 -1.98254,4.72289 -4.63204,0.30419 -5.55625,-17.72708 h 4.49791 m 11.1125,21.96042 v 15.875 h -43.92083 v -15.875 z"
       id="path1" /></g></svg>
