<?xml version="1.0" encoding="UTF-8" standalone="no"?>
<!-- Created with Inkscape (http://www.inkscape.org/) -->

<svg
   width="85.142647mm"
   height="83.263718mm"
   viewBox="0 0 85.142647 83.263718"
   version="1.1"
   id="svg1"
   xml:space="preserve"
   inkscape:export-filename="SemanticSapience-VSS-DevLogo.svg"
   inkscape:export-xdpi="96"
   inkscape:export-ydpi="96"
   xmlns:inkscape="http://www.inkscape.org/namespaces/inkscape"
   xmlns:sodipodi="http://sodipodi.sourceforge.net/DTD/sodipodi-0.dtd"
   xmlns="http://www.w3.org/2000/svg"
   xmlns:svg="http://www.w3.org/2000/svg"><sodipodi:namedview
     id="namedview1"
     pagecolor="#ffffff"
     bordercolor="#000000"
     borderopacity="0.25"
     inkscape:showpageshadow="2"
     inkscape:pageopacity="0.0"
     inkscape:pagecheckerboard="0"
     inkscape:deskcolor="#d1d1d1"
     inkscape:document-units="mm" /><defs
     id="defs1" /><g
     inkscape:label="Layer 1"
     inkscape:groupmode="layer"
     id="layer1"
     transform="translate(-118.3838,-55.826228)"><path
       style="fill:#074fb6;fill-opacity:1;stroke:none;stroke-width:0.528445"
       d="m 146.81612,63.084963 v 18.176291 c 0,2.166927 -0.5993,5.304986 1.13618,6.959052 1.6726,1.594141 4.85702,1.010558 6.97326,1.010558 h 17.89667 c 0,2.103031 -0.32223,4.504102 0.0703,6.571426 0.58723,3.092457 4.91864,3.826901 6.50081,1.11709 0.66387,-1.137037 0.55956,-2.509074 0.55956,-3.773627 0,-2.674373 0.56703,-6.104591 -0.25321,-8.668686 -0.51356,-1.605429 -2.36457,-2.897411 -3.52186,-4.054723 -2.63488,-2.63486 -5.19584,-5.334725 -7.8298,-7.969593 L 157.5821,61.686777 c -1.62984,-1.629829 -3.31852,-3.946036 -5.31308,-5.115285 -1.98434,-1.163272 -5.05879,-0.617239 -7.27051,-0.617239 h -10.48633 c -3.31728,0 -6.72331,0.03218 -9.64741,1.829184 -6.34668,3.900235 -6.43161,10.264608 -6.43161,16.906383 v 21.11247 23.62918 c 0,4.29529 -0.49946,8.96558 1.67935,12.86321 3.58912,6.42057 9.98082,6.71125 16.49693,6.71125 h 22.65046 c 4.36232,0 9.2125,0.57922 13.28268,-1.30407 6.32261,-2.92551 7.41034,-9.11864 7.41034,-15.33422 0,-2.72915 0.13755,-7.96066 -4.19452,-7.05262 -2.70894,0.56781 -2.93617,2.94424 -2.93617,5.235 0,3.52502 0.6703,7.5103 -2.37691,10.01434 -2.53479,2.08294 -6.87428,1.31087 -9.92705,1.31087 h -23.62924 c -3.35281,0 -7.26801,0.62802 -9.76961,-2.09773 -1.56941,-1.71 -1.55561,-3.83392 -1.55561,-6.01168 V 115.23693 78.884359 71.61385 c 0,-2.414678 -0.0593,-4.681217 1.69532,-6.569964 1.8783,-2.021834 4.42412,-1.958923 6.97338,-1.958923 h 12.58357 m 7.27054,5.173257 9.22796,9.227953 c 1.3803,1.380324 3.45435,2.862336 4.33434,4.61399 H 153.9468 v -9.507596 l 0.13987,-4.334347 m 37.1915,35.09423 h -34.25533 c -3.13211,0 -10.19126,-1.23578 -10.18987,3.63524 0.002,4.80098 7.12741,3.49546 10.18987,3.49546 h 34.25533 c -1.60859,2.20973 -3.93998,4.07978 -5.87234,6.01215 -1.0751,1.0751 -2.63362,2.21736 -2.99514,3.77508 -0.6426,2.76883 1.84064,5.04043 4.53312,4.26078 1.72856,-0.50052 3.10614,-2.47331 4.33436,-3.70151 l 9.08813,-9.08815 c 1.30309,-1.3031 3.2678,-2.84813 3.15555,-4.89363 -0.11274,-2.05437 -1.95729,-3.41573 -3.29534,-4.75378 l -9.08816,-9.088154 c -1.23477,-1.234772 -2.58768,-3.16541 -4.33436,-3.658359 -2.79691,-0.789363 -5.17669,1.954815 -4.29738,4.637077 0.57978,1.768539 2.6033,3.19956 3.87793,4.474173 z"
       id="path3" /></g></svg>
