<?xml version="1.0" encoding="UTF-8" standalone="no"?>
<!-- Created with Inkscape (http://www.inkscape.org/) -->

<svg
   width="70.33812mm"
   height="39.589588mm"
   viewBox="0 0 70.33812 39.589588"
   version="1.1"
   id="svg1"
   xml:space="preserve"
   inkscape:export-filename="SemanticSapience-VSS-DevLogo.svg"
   inkscape:export-xdpi="96"
   inkscape:export-ydpi="96"
   xmlns:inkscape="http://www.inkscape.org/namespaces/inkscape"
   xmlns:sodipodi="http://sodipodi.sourceforge.net/DTD/sodipodi-0.dtd"
   xmlns:xlink="http://www.w3.org/1999/xlink"
   xmlns="http://www.w3.org/2000/svg"
   xmlns:svg="http://www.w3.org/2000/svg"><sodipodi:namedview
     id="namedview1"
     pagecolor="#ffffff"
     bordercolor="#000000"
     borderopacity="0.25"
     inkscape:showpageshadow="2"
     inkscape:pageopacity="0.0"
     inkscape:pagecheckerboard="0"
     inkscape:deskcolor="#d1d1d1"
     inkscape:document-units="mm" /><defs
     id="defs1"><linearGradient
       id="linearGradient8"
       inkscape:collect="always"><stop
         style="stop-color:#074fb6;stop-opacity:1;"
         offset="0"
         id="stop8" /><stop
         style="stop-color:#074fb6;stop-opacity:0;"
         offset="1"
         id="stop9" /></linearGradient><linearGradient
       inkscape:collect="always"
       xlink:href="#linearGradient8"
       id="linearGradient9"
       x1="97.853279"
       y1="220.16989"
       x2="125.37452"
       y2="306.556"
       gradientUnits="userSpaceOnUse"
       gradientTransform="matrix(0.51382314,0,0,0.51382314,84.933768,146.8616)" /></defs><g
     inkscape:label="Layer 1"
     inkscape:groupmode="layer"
     id="layer1"
     transform="translate(-100.34259,-250.76957)"><path
       style="fill:url(#linearGradient9);fill-opacity:1;stroke:none;stroke-width:0.513823"
       d="m 150.15241,276.721 c -4.07514,1.56976 -8.34765,2.77762 -12.5073,4.1109 -1.84128,0.59017 -4.24019,0.94653 -5.4953,2.55203 -2.65619,3.39771 0.958,8.18582 4.9515,6.69541 1.86729,-0.6969 3.43315,-2.64996 4.89416,-3.95258 2.99356,-2.66902 6.06183,-5.28781 8.97264,-8.04627 1.09262,2.63397 1.40285,4.99273 1.90329,7.74909 h 17.80932 c 0,-9.30588 -3.69393,-18.43044 -10.33309,-25.01083 -11.94123,-11.83553 -31.95626,-13.51196 -45.54197,-3.45245 -6.85564,5.07625 -11.80222,12.49036 -13.62402,20.85014 -0.39799,1.82627 -0.68893,3.70536 -0.77851,5.57391 -0.0242,0.50422 -0.18522,1.51486 0.14453,1.93732 0.51016,0.65359 3.15369,0.23786 3.92587,0.23786 h 10.06023 c 0.82735,0 2.91093,0.377 3.57311,-0.1563 0.55106,-0.4438 0.45682,-2.90662 0.61543,-3.65027 0.51217,-2.4012 1.60599,-4.72235 3.10954,-6.6615 5.11135,-6.59217 14.33554,-9.02396 21.79502,-4.91986 2.64541,1.45548 4.8389,3.66816 6.52555,6.1434 m -15.63414,-22.9324 c 1.38771,-0.18115 2.85486,0.01 4.07848,0.71492 4.73603,2.72868 3.18548,10.25509 -2.17519,11.02439 -7.4905,1.07494 -9.43743,-10.75581 -1.90329,-11.73931 m 0.13595,0.84003 c -6.50115,1.15766 -4.66422,11.1686 1.76734,10.02477 6.51807,-1.1592 4.72051,-11.18006 -1.76734,-10.02477 m 3.40357,2.36986 c 0.81354,-0.0651 0.91608,1.16579 0.1252,1.29206 -0.87565,0.1398 -0.96762,-1.2246 -0.1252,-1.29206 m -5.27806,0.1131 c 0.75218,-0.2974 1.21206,0.83882 0.4751,1.13139 -0.74466,0.29562 -1.21435,-0.8391 -0.4751,-1.13139 m 0.28509,4.20863 c 1.00918,-0.48592 3.46675,-0.20636 4.57827,-0.0837 0.4474,0.0494 1.02879,0.49669 0.473,0.89926 -0.79092,0.57286 -3.86692,0.3386 -4.81119,0.13411 -0.48254,-0.1045 -0.80932,-0.67563 -0.24008,-0.94972 m -20.70624,5.934 c 7.56124,-0.49777 8.09845,11.28627 0.54379,11.76184 -7.59695,0.47824 -8.1425,-11.26161 -0.54379,-11.76184 m 45.40698,-0.007 c 7.43178,-0.94236 8.81964,10.78635 1.35949,11.74174 -6.03325,0.77265 -9.2474,-7.60435 -3.94252,-10.83856 0.77938,-0.47517 1.67732,-0.78834 2.58303,-0.90318 m -46.22268,0.8401 c -6.59824,1.175 -4.39,11.2861 2.17519,10.08024 6.55372,-1.20375 4.33169,-11.23898 -2.17519,-10.08024 m 45.81484,0 c -6.56924,1.16976 -4.49859,11.17456 2.03923,10.07883 6.5232,-1.09328 4.44147,-11.23284 -2.03923,-10.07883 m -47.3058,2.5214 c 0.72658,0 0.71642,1.10574 0,1.10574 -0.69485,0 -0.70497,-1.10574 0,-1.10574 m 5.04125,-0.0304 c 0.71575,-0.0778 0.79607,1.06064 0.10913,1.13693 -0.69737,0.0774 -0.79614,-1.06227 -0.10913,-1.13693 m 40.64263,-0.0111 c 0.77245,-0.10047 0.89175,1.09153 0.12198,1.17391 -0.72693,0.0778 -0.83596,-1.08104 -0.12198,-1.17391 m 5.03767,-0.008 c 0.74713,-0.14307 0.97052,0.96948 0.243,1.14051 -0.7231,0.16999 -0.99441,-0.99663 -0.243,-1.14051 m -48.95869,3.76555 c 0.90429,-0.16225 1.93585,-0.071 2.71472,0.43899 0.25332,0.16588 1.21393,1.06471 0.49047,1.28779 -0.56222,0.17337 -1.39925,-0.66932 -1.98165,-0.77468 -1.14015,-0.20625 -1.88354,0.92895 -2.81294,0.81481 -0.46596,-0.0572 -0.29217,-0.59431 -0.10285,-0.83607 0.38662,-0.4937 1.08612,-0.82208 1.69225,-0.93084 m 44.10412,0.34724 c 0.60225,-0.17676 1.57026,0.80761 2.25451,0.8777 1.01109,0.10358 1.69683,-1.01714 2.55321,-0.91873 1.22933,0.14125 -0.84091,1.64527 -1.19372,1.76464 -1.00365,0.33955 -2.23259,0.23301 -3.12484,-0.35846 -0.26503,-0.17568 -1.23613,-1.14592 -0.48916,-1.36515 m -20.58494,9.30798 c 2.5886,-0.26227 3.16365,3.7774 0.5438,4.12811 -2.76066,0.36956 -3.31615,-3.84722 -0.5438,-4.12811 z"
       id="path7" /></g></svg>
